<?xml version="1.0" standalone="no"?>
<!DOCTYPE svg PUBLIC "-//W3C//DTD SVG 20010904//EN"
 "http://www.w3.org/TR/2001/REC-SVG-20010904/DTD/svg10.dtd">
<svg version="1.0" xmlns="http://www.w3.org/2000/svg"
 width="700.000000pt" height="700.000000pt" viewBox="0 0 700.000000 700.000000"
 preserveAspectRatio="xMidYMid meet">
<metadata>
Created by potrace 1.11, written by Peter Selinger 2001-2013
</metadata>
<g transform="translate(0.000000,700.000000) scale(0.100000,-0.100000)"
fill="#000000" stroke="none">
<path d="M3170 6424 c-679 -82 -1282 -374 -1755 -849 -415 -418 -695 -947
-805 -1520 -19 -99 -53 -366 -47 -371 3 -3 2047 -1004 2065 -1011 9 -4 12 182
12 911 l0 916 790 0 790 0 0 -1303 0 -1303 608 -297 c334 -163 612 -297 619
-297 6 0 65 53 130 118 380 379 640 836 774 1358 99 390 116 824 48 1224 -206
1210 -1160 2174 -2369 2394 -253 47 -618 59 -860 30z m1420 -1489 l0 -245
-1155 0 -1155 0 0 245 0 245 1155 0 1155 0 0 -245z"/>
<path d="M630 2859 c0 -49 92 -342 154 -492 96 -232 308 -590 400 -676 11 -11
529 -267 1151 -570 l1129 -551 166 0 c199 0 376 24 594 80 209 53 528 171 528
195 0 7 -2129 1052 -3944 1937 -98 48 -178 82 -178 77z"/>
</g>
</svg>
