<?xml version="1.0" encoding="UTF-8" standalone="no"?>
<svg
   xmlns:dc="http://purl.org/dc/elements/1.1/"
   xmlns:cc="http://creativecommons.org/ns#"
   xmlns:rdf="http://www.w3.org/1999/02/22-rdf-syntax-ns#"
   xmlns:svg="http://www.w3.org/2000/svg"
   xmlns="http://www.w3.org/2000/svg"
   xmlns:sodipodi="http://sodipodi.sourceforge.net/DTD/sodipodi-0.dtd"
   xmlns:inkscape="http://www.inkscape.org/namespaces/inkscape"
   viewBox="0 0 29.999999 30.000001"
   version="1.1"
   id="svg12"
   sodipodi:docname="ic_check_mark_circle.svg"
   width="30"
   height="30"
   inkscape:version="0.92.4 (5da689c313, 2019-01-14)">
  <metadata
     id="metadata16">
    <rdf:RDF>
      <cc:Work
         rdf:about="">
        <dc:format>image/svg+xml</dc:format>
        <dc:type
           rdf:resource="http://purl.org/dc/dcmitype/StillImage" />
        <dc:title />
      </cc:Work>
    </rdf:RDF>
  </metadata>
  <sodipodi:namedview
     pagecolor="#ffffff"
     bordercolor="#666666"
     borderopacity="1"
     objecttolerance="10"
     gridtolerance="10"
     guidetolerance="10"
     inkscape:pageopacity="0"
     inkscape:pageshadow="2"
     inkscape:window-width="1920"
     inkscape:window-height="1017"
     id="namedview14"
     showgrid="false"
     inkscape:zoom="10.021232"
     inkscape:cx="-26.698324"
     inkscape:cy="11.775"
     inkscape:window-x="2992"
     inkscape:window-y="-8"
     inkscape:window-maximized="1"
     inkscape:current-layer="svg12" />
  <defs
     id="defs4">
    <style
       id="style2">.cls-1{fill:#f2eee8;}</style>
  </defs>
  <g
     id="Warstwa_2"
     data-name="Warstwa 2"
     transform="translate(3.3213565,3.1313448)"
     style="fill:#3cb878;fill-opacity:1;stroke:none;stroke-opacity:1">
    <g
       id="Layer_3"
       data-name="Layer 3"
       style="fill:#3cb878;fill-opacity:1;stroke:none;stroke-opacity:1">
      <path
         class="cls-1"
         d="M 10.13,16.58 A 1,1 0 0 1 9.41,16.26 l -2.6,-2.72 a 1.0008621,1.0008621 0 0 1 1.45,-1.38 l 1.82,1.91 5,-6.11 a 1.0019232,1.0019232 0 1 1 1.55,1.27 l -5.73,7 a 1,1 0 0 1 -0.73,0.36 z"
         id="path6"
         inkscape:connector-curvature="0"
         style="fill:#3cb878;fill-opacity:1;stroke:none;stroke-opacity:1" />
      <path
         class="cls-1"
         d="M 11.77,23.55 A 11.78,11.78 0 0 1 3.44,3.45 11.78,11.78 0 0 1 20.1,20.1 11.69,11.69 0 0 1 11.77,23.55 Z M 11.77,2 a 9.78,9.78 0 0 0 -6.91,16.69 9.79,9.79 0 0 0 13.83,0 A 9.78,9.78 0 0 0 11.77,2 Z"
         id="path8"
         inkscape:connector-curvature="0"
         style="fill:#3cb878;fill-opacity:1;stroke:none;stroke-opacity:1" />
    </g>
  </g>
</svg>
