<?xml version="1.0" encoding="UTF-8" standalone="no"?>
<svg
   xmlns:dc="http://purl.org/dc/elements/1.1/"
   xmlns:cc="http://creativecommons.org/ns#"
   xmlns:rdf="http://www.w3.org/1999/02/22-rdf-syntax-ns#"
   xmlns:svg="http://www.w3.org/2000/svg"
   xmlns="http://www.w3.org/2000/svg"
   xmlns:sodipodi="http://sodipodi.sourceforge.net/DTD/sodipodi-0.dtd"
   xmlns:inkscape="http://www.inkscape.org/namespaces/inkscape"
   id="Ñëîé_1"
   data-name="Ñëîé 1"
   viewBox="0 0 120 120"
   version="1.1"
   sodipodi:docname="ic_cert.svg"
   width="120"
   height="120"
   inkscape:version="0.92.4 (5da689c313, 2019-01-14)">
  <metadata
     id="metadata13">
    <rdf:RDF>
      <cc:Work
         rdf:about="">
        <dc:format>image/svg+xml</dc:format>
        <dc:type
           rdf:resource="http://purl.org/dc/dcmitype/StillImage" />
        <dc:title></dc:title>
      </cc:Work>
    </rdf:RDF>
  </metadata>
  <sodipodi:namedview
     pagecolor="#ffffff"
     bordercolor="#666666"
     borderopacity="1"
     objecttolerance="10"
     gridtolerance="10"
     guidetolerance="10"
     inkscape:pageopacity="0"
     inkscape:pageshadow="2"
     inkscape:window-width="1920"
     inkscape:window-height="1017"
     id="namedview11"
     showgrid="false"
     inkscape:zoom="2.3094168"
     inkscape:cx="6.0902867"
     inkscape:cy="51.09515"
     inkscape:window-x="2992"
     inkscape:window-y="-8"
     inkscape:window-maximized="1"
     inkscape:current-layer="Ñëîé_1" />
  <defs
     id="defs4">
    <style
       id="style2">.cls-1,.cls-2{fill:#3cb878;fill-rule:evenodd;}.cls-2{stroke:#3cb878;stroke-miterlimit:10;stroke-width:0.1487px;}</style>
  </defs>
  <path
     class="cls-1"
     d="m 68.9053,103.2197 a 1.6611,1.6611 0 0 1 -0.1316,0.23 l -2.743,4.7549 7.9622,-1.6675 a 1.3914,1.3914 0 0 1 1.652,0.9208 l 2.5535,7.7707 9.208,-15.9573 -0.3849,-0.0542 -0.004,-0.006 H 87.0059 L 86.8898,99.1899 86.501,99.1183 86.4797,99.1123 86.3752,99.091 86.0135,99.0076 85.9961,99.0016 85.9636,98.9956 85.8704,98.9743 85.793,98.9569 85.7446,98.9415 85.4931,98.8757 85.4544,98.8641 85.3713,98.837 85.29,98.8099 85.2455,98.7983 85.1198,98.7654 v 0 l -0.1219,-0.0425 -0.3675,-0.1222 -0.01,-0.005 -0.1045,-0.0368 -0.1257,-0.0445 -0.0987,-0.0387 -0.0174,-0.006 -0.12,-0.0428 -0.0213,-0.0113 -0.0986,-0.0387 -0.1161,-0.0484 -0.11,-0.0445 -0.01,-0.006 -0.1161,-0.05 -0.0329,-0.01 -0.087,-0.0445 -0.0716,-0.0271 -0.0445,-0.0213 -0.1083,-0.05 -0.005,-0.006 -0.116,-0.0486 -0.0333,-0.023 -0.0813,-0.0367 -0.0773,-0.0387 -0.0387,-0.0177 -0.11,-0.06 h -0.004 l -0.11,-0.0541 -0.11,-0.06 -0.0812,-0.0442 -0.029,-0.0174 -0.1142,-0.06 -0.0116,-0.006 -0.0986,-0.06 -0.048,-0.027 -0.06,-0.0329 -0.089,-0.0542 -0.0212,-0.0116 -0.11,-0.06 -0.0155,-0.0174 -0.0928,-0.0483 -0.0558,-0.0387 -0.0487,-0.0329 -0.0948,-0.06 -0.0154,-0.006 -0.1045,-0.0716 -0.0267,-0.0154 -0.1319,-0.089 -0.0116,-0.006 -0.0387,-0.0271 -0.0987,-0.0716 h -0.004 l -0.1044,-0.0754 -0.0387,-0.0232 -0.0658,-0.0484 -0.0657,-0.05 -0.0329,-0.0271 -0.1041,-0.0716 -0.006,-0.006 -0.0987,-0.07 -0.0386,-0.0329 -0.0542,-0.0445 -0.0774,-0.06 -0.0271,-0.0175 -0.0928,-0.0812 -0.0174,-0.006 -0.1316,-0.11 -0.0483,-0.0387 -0.0832,-0.0715 -0.0155,-0.0155 -0.0928,-0.0774 -0.0233,-0.0157 -0.0541,-0.05 -0.0716,-0.066 -0.006,-0.005 -0.23,-0.2073 -0.0155,-0.0171 -0.0619,-0.0542 -0.0658,-0.06 -0.01,-0.0116 -0.0712,-0.0715 -0.0449,-0.0387 -0.0325,-0.0329 -0.072,-0.0755 -0.01,-0.006 -0.006,-0.006 v -0.006 h -0.006 l -0.0542,-0.0541 -0.0654,-0.0658 -0.006,-0.0116 -0.23,-0.2418 -0.05,-0.0542 -0.0657,-0.0658 -0.01,-0.0116 -0.1045,-0.12 -0.0329,-0.0387 -0.0657,-0.0716 -0.0174,-0.0212 -0.2186,-0.2576 -0.0329,-0.0387 -0.0658,-0.0829 -0.006,-0.01 c -0.17,-0.2089 -0.3405,-0.4275 -0.4991,-0.6538 l -0.0213,-0.0273 -0.0328,-0.0482 -0.062,-0.0889 -0.004,-0.006 c -0.0948,-0.1413 -0.1877,-0.2786 -0.2805,-0.4276 l -0.06,-0.0873 -0.0329,-0.06 -0.0212,-0.0271 -0.05,-0.0889 -0.0213,-0.0271 -0.089,-0.147 v 0 L 77.0208,92.2927 76.9883,92.2388 76.9705,92.2001 76.9222,92.1131 76.9048,92.0918 76.868,92.0202 76.8235,91.937 76.8175,91.9252 76.7401,91.7842 76.7189,91.7455 76.6705,91.6527 76.6593,91.635 76.626,91.5598 76.5873,91.4824 76.5757,91.465 76.5331,91.3722 76.5099,91.3238 76.4828,91.2793 76.4403,91.1807 V 91.169 l -0.0445,-0.0812 -0.0329,-0.0774 -0.0116,-0.0213 -0.0387,-0.0928 -0.0209,-0.0445 -0.0216,-0.05 -0.0387,-0.0987 -0.006,-0.01 -0.0387,-0.089 -7.2813,12.6126 z M 89.3467,70.9221 a 14.2083,14.2083 0 0 0 -9.9857,4.0914 l -0.0812,0.0812 a 14.3069,14.3069 0 0 0 -4.0856,11.6744 l -8.3568,14.4775 H 8.3665 a 5.5908,5.5908 0 0 1 -5.577,-5.577 V 26.182 a 5.5551,5.5551 0 0 1 1.6346,-3.9424 l 0.006,-0.006 A 5.5516,5.5516 0 0 1 8.3667,20.599 h 103.2645 a 5.5908,5.5908 0 0 1 5.577,5.5828 v 69.4876 a 5.5774,5.5774 0 0 1 -1.6346,3.9424 v 0.006 a 5.5754,5.5754 0 0 1 -3.7161,1.623 L 103.5012,86.7691 A 14.2425,14.2425 0 0 0 89.3468,70.9221 Z m 13.16,19.69 -0.0809,0.1918 -0.0275,0.0561 -0.0174,0.0387 -0.0425,0.0986 -0.006,0.0211 -0.0387,0.0774 -0.0871,0.1859 -0.0232,0.0542 -0.0271,0.0387 -0.0445,0.0928 -0.004,0.0232 -0.0387,0.0716 -0.0445,0.0813 v 0.0116 l -0.0542,0.0928 -0.0232,0.0484 -0.0271,0.0445 -0.0483,0.0928 v 0.0116 l -0.05,0.0774 -0.0387,0.0716 -0.01,0.0213 -0.05,0.0928 -0.0213,0.0387 -0.0271,0.0481 -0.0561,0.0951 -0.005,0.004 -0.0487,0.0832 -0.0387,0.0658 -0.0155,0.0213 -0.05,0.0889 -0.0209,0.0368 -0.0387,0.05 -0.0564,0.0873 v 0.006 l -0.0542,0.0832 -0.0387,0.06 -0.0155,0.0271 -0.06,0.087 -0.0233,0.0329 -0.0328,0.05 -0.06,0.0871 v 0.006 l -0.06,0.0831 -0.0387,0.0542 -0.0212,0.0271 -0.06,0.0829 -0.0174,0.0274 -0.0445,0.0541 -0.06,0.0832 v 0.006 l -0.0658,0.081 -0.0386,0.05 -0.0268,0.0329 -0.06,0.0813 -0.017,0.0174 -0.0488,0.0658 -0.06,0.07 v 0.0114 l -0.0654,0.0773 -0.0387,0.0448 -0.0333,0.0326 -0.0658,0.0815 -0.0116,0.0174 -0.0541,0.06 -0.0542,0.0716 -0.0116,0.01 -0.0658,0.0774 -0.0387,0.0387 -0.0325,0.0387 -0.0661,0.0754 -0.0174,0.0174 -0.0542,0.06 -0.06,0.0658 -0.0116,0.0116 -0.0715,0.0713 -0.0368,0.0428 -0.0329,0.0329 -0.0716,0.0774 -0.0116,0.0116 -0.06,0.06 -0.06,0.06 0.006,0.006 a 14.2375,14.2375 0 0 1 -7.7316,3.9755 h -0.012 c -0.1316,0.0271 -0.2573,0.0445 -0.3943,0.06 l 9.2115,15.9573 2.5554,-7.7707 a 1.3883,1.3883 0 0 1 1.65,-0.9208 l 7.9564,1.6675 -2.7527,-4.782 a 1.2026,1.2026 0 0 1 -0.1025,-0.1818 l -7.295,-12.6296 z M 97.4461,77.0693 a 11.3872,11.3872 0 0 1 3.3563,8.0937 11.5345,11.5345 0 0 1 -0.1257,1.683 l -0.006,0.0658 -0.0174,0.0658 -0.006,0.0715 -0.01,0.06 -0.0174,0.0812 -0.01,0.0445 c -0.029,0.17 -0.0658,0.3463 -0.1045,0.5143 v 0 l -0.027,0.128 -0.006,0.01 -0.027,0.1161 -0.006,0.0271 -0.0267,0.0928 -0.012,0.0387 -0.0213,0.0871 -0.0387,0.1277 -0.0174,0.06 -0.0213,0.06 a 11.4215,11.4215 0 0 1 -2.8572,4.77 v -0.006 a 11.5075,11.5075 0 0 1 -6.2134,3.2034 l -0.0484,0.006 -0.0929,0.0155 h -0.0328 l -0.11,0.0174 -0.0213,0.004 -0.1219,0.0174 h -0.01 l -0.1277,0.0155 h -0.01 l -0.1373,0.0174 -0.1161,0.0116 -0.0329,0.004 h -0.0986 l -0.0426,0.006 -0.0886,0.006 -0.0545,0.0116 h -0.0716 l -0.0813,0.006 h -0.0561 l -0.087,0.004 h -0.0445 l -0.1045,0.006 h -0.1644 l -0.1315,0.006 -0.1374,-0.006 h -0.1563 l -0.1045,-0.006 h -0.0422 l -0.0893,-0.004 h -0.06 l -0.0715,-0.006 h -0.0725 l -0.06,-0.0116 -0.087,-0.006 -0.0442,-0.006 h -0.1048 l -0.0271,-0.004 -0.1141,-0.0116 -0.0174,-0.006 -0.1258,-0.0113 h -0.006 l -0.1315,-0.0155 h -0.006 l -0.12,-0.0174 -0.0271,-0.004 -0.1045,-0.0174 h -0.0329 l -0.0925,-0.0155 -0.0506,-0.006 -0.0774,-0.0174 -0.0654,-0.01 -0.0661,-0.0116 -0.0755,-0.0116 -0.05,-0.0155 -0.087,-0.0174 -0.0387,-0.006 -0.1045,-0.0212 -0.0213,-0.006 -0.116,-0.027 h -0.01 l -0.1219,-0.0329 h -0.005 l -0.12,-0.0274 -0.0213,-0.005 -0.1045,-0.0271 -0.0328,-0.0116 -0.0871,-0.0213 -0.0445,-0.0174 -0.2689,-0.0754 -0.0541,-0.0174 -0.0832,-0.0271 -0.0387,-0.0116 -0.0925,-0.0329 -0.0274,-0.01 -0.11,-0.0331 -0.006,-0.0114 -0.1257,-0.0387 -0.1142,-0.0445 -0.0116,-0.004 -0.11,-0.0445 -0.027,-0.006 -0.0867,-0.0387 -0.0387,-0.0155 -0.1261,-0.05 -0.0658,-0.0271 -0.0658,-0.0329 -0.0561,-0.0212 -0.0715,-0.0332 -0.0426,-0.0171 -0.0832,-0.0387 -0.1257,-0.06 -0.0155,-0.0114 -0.11,-0.0484 h -0.006 l -0.11,-0.06 -0.004,-0.006 h -0.0174 l -0.11,-0.06 -0.087,-0.05 -0.0329,-0.0157 -0.0774,-0.0443 -0.0425,-0.0212 -0.0654,-0.0387 -0.0565,-0.0329 -0.0542,-0.0329 -0.0657,-0.0387 -0.0445,-0.0213 -0.0755,-0.0445 -0.029,-0.0212 -0.087,-0.0561 -0.0155,-0.01 -0.1006,-0.0619 -0.01,-0.004 -0.1044,-0.0657 -0.006,-0.006 -0.0929,-0.0657 -0.0174,-0.006 -0.0871,-0.06 -0.027,-0.0232 -0.0774,-0.0484 -0.0329,-0.0271 -0.0658,-0.05 -0.0483,-0.0332 -0.0561,-0.0387 -0.0542,-0.0423 -0.0387,-0.0329 -0.0716,-0.05 -0.0329,-0.0212 -0.0754,-0.0661 -0.0232,-0.0113 -0.0813,-0.0716 -0.0116,-0.006 -0.0928,-0.0812 v 0 l -0.0987,-0.0774 -0.0116,-0.006 -0.0812,-0.0757 -0.0232,-0.0172 -0.0716,-0.0658 -0.0325,-0.027 -0.0662,-0.0542 -0.0329,-0.0387 -0.06,-0.0445 -0.18,-0.176 -0.06,-0.06 -0.029,-0.0269 -0.0658,-0.0657 -0.009,-0.006 -0.0178,-0.0155 -0.0773,-0.0832 -0.01,-0.006 -0.0113,-0.0155 a 11.5844,11.5844 0 0 1 -2.03,-2.8574 l -0.0154,-0.0268 c -0.0658,-0.1432 -0.1374,-0.29 -0.2032,-0.4334 l -0.0328,-0.0715 -0.0175,-0.0445 -0.0483,-0.12 -0.0445,-0.0926 -0.006,-0.0213 -0.0368,-0.11 -0.0116,-0.0116 -0.0445,-0.1141 v -0.006 l -0.0483,-0.1219 v -0.004 l -0.0387,-0.1161 -0.0116,-0.0155 -0.0329,-0.1045 -0.009,-0.027 -0.0294,-0.0948 -0.0155,-0.0426 -0.0213,-0.0832 -0.0232,-0.0483 -0.0212,-0.0774 -0.0175,-0.06 -0.0212,-0.06 -0.0174,-0.0774 -0.0155,-0.05 -0.0213,-0.0871 -0.0116,-0.0387 -0.0271,-0.0928 -0.006,-0.0271 -0.0271,-0.1161 -0.0329,-0.1376 v 0 l -0.027,-0.1312 -0.006,-0.004 -0.0233,-0.1216 -0.01,-0.0213 -0.0174,-0.1044 -0.006,-0.0329 -0.0213,-0.0929 -0.006,-0.05 -0.0209,-0.1412 -0.0178,-0.0715 -0.004,-0.0658 a 11.4807,11.4807 0 0 1 3.2228,-9.8425 l 0.0619,-0.0774 a 11.45,11.45 0 0 1 16.1314,0.0774 z m -32.22,26.9663 H 8.3661 A 8.3849,8.3849 0 0 1 -4e-4,95.6691 V 26.182 a 8.3653,8.3653 0 0 1 2.4549,-5.9117 v 0 l 0.006,-0.006 0.0119,-0.01 a 8.3546,8.3546 0 0 1 5.8939,-2.4452 h 103.2649 a 8.3845,8.3845 0 0 1 8.3684,8.3723 V 95.669 a 8.343,8.343 0 0 1 -2.4567,5.9058 l -0.006,0.004 a 8.2977,8.2977 0 0 1 -4.1726,2.2711 l 3.2634,5.6486 h -0.006 a 1.3742,1.3742 0 0 1 0.1586,0.9805 1.392,1.392 0 0 1 -1.6443,1.0816 l -9.8328,-2.0525 -3.13,9.5311 h -0.006 a 1.3873,1.3873 0 0 1 -2.5279,0.2631 L 89.3457,101.4705 79.0486,119.3023 a 1.3863,1.3863 0 0 1 -2.5226,-0.2631 h -0.005 l -3.1315,-9.5311 -9.8312,2.0525 a 1.3951,1.3951 0 0 1 -1.6443,-1.0816 1.3607,1.3607 0 0 1 0.1977,-1.0463 z m -3.1144,5.3971 0.8759,-0.598 a 1.3708,1.3708 0 0 0 -0.8759,0.598 z m 11.632,-49.3462 h 32.2564 a 1.3926,1.3926 0 0 0 0,-2.7624 H 73.7439 a 1.3918,1.3918 0 0 0 0,2.7624 z M 106.0001,46.0888 H 73.7439 a 1.4179,1.4179 0 0 0 0,2.8066 h 32.2564 a 1.4188,1.4188 0 0 0 0,-2.8066 z m 0,-11.5461 H 73.7439 a 1.4179,1.4179 0 0 0 0,2.8066 h 32.2564 a 1.4188,1.4188 0 0 0 0,-2.8066 z"
     id="path6"
     inkscape:connector-curvature="0"
     style="fill:#3cb878;fill-rule:evenodd" />
  <path
     class="cls-2"
     d="m 51.0798,73.3076 h 0.91 v -8.7487 a 0.6189,0.6189 0 0 1 0.6126,-0.6235 h 5.6551 a 0.6177,0.6177 0 0 1 0.6126,0.6235 v 8.7487 h 0.9086 a 0.97,0.97 0 0 0 0.6951,-0.29 0.9171,0.9171 0 0 0 0.2672,-0.6451 v -9.348 a 0.9188,0.9188 0 0 0 -0.2672,-0.6477 0.97,0.97 0 0 0 -0.6951,-0.29 h -4.3024 l -0.0476,0.003 -0.046,-0.003 h -4.3024 a 0.9718,0.9718 0 0 0 -0.6951,0.29 0.93,0.93 0 0 0 -0.2671,0.6477 v 9.348 a 0.9282,0.9282 0 0 0 0.2671,0.6451 0.9718,0.9718 0 0 0 0.6951,0.29 z m -29.5451,15.15 h 1.6365 V 53.5691 h -0.137 a 2.1111,2.1111 0 0 1 -1.5169,-0.6409 c -0.0119,-0.0121 -0.0262,-0.0268 -0.0392,-0.0415 a 2.1973,2.1973 0 0 1 -0.59,-1.5025 v -0.1394 h -7.57 A 2.124,2.124 0 0 1 11.8014,50.604 v 0 -0.003 A 2.1891,2.1891 0 0 1 11.1691,49.0596 V 43.146 a 2.2015,2.2015 0 0 1 0.5955,-1.5024 0.3274,0.3274 0 0 1 0.0368,-0.0416 0.2428,0.2428 0 0 1 0.0381,-0.0363 2.1235,2.1235 0 0 1 1.4786,-0.6045 h 7.5731 a 2.1979,2.1979 0 0 1 0.627,-1.4158 v -0.003 a 2.1243,2.1243 0 0 1 1.3936,-0.6356 v -8.4145 a 0.62,0.62 0 0 1 0.61,-0.6261 0.6027,0.6027 0 0 1 0.4347,0.1836 l 0.0119,0.01 8.6865,8.8414 h 0.4943 a 2.1281,2.1281 0 0 1 1.517,0.6408 v 0.003 l 0.003,-0.003 a 2.1972,2.1972 0 0 1 0.6245,1.4184 h 17.1714 l 0.017,0.003 h 0.0144 l 0.0145,0.003 h 0.0145 l 0.0144,0.005 0.0147,0.003 0.0143,0.002 0.0144,0.003 0.0145,0.005 0.0144,0.003 0.012,0.004 0.0144,0.005 0.0145,0.005 0.0144,0.007 0.0147,0.005 0.0117,0.005 0.0145,0.007 0.0119,0.008 0.0145,0.007 0.0144,0.008 0.0128,0.007 0.0119,0.01 0.0119,0.008 0.0119,0.0121 0.0145,0.008 0.0119,0.01 0.0119,0.01 0.01,0.0122 0.0119,0.01 0.0119,0.0122 8.8652,9.0232 0.01,0.009 a 0.6344,0.6344 0 0 1 0.18,0.4426 0.6193,0.6193 0 0 1 -0.6151,0.6235 h -5.2664 v 9.5948 h 3.7349 a 2.046,2.046 0 0 1 1.4693,0.6261 2.2153,2.2153 0 0 1 0.6339,1.5587 v 9.348 a 2.2167,2.2167 0 0 1 -0.6339,1.5561 2.0476,2.0476 0 0 1 -1.4693,0.6278 H 51.08 a 2.0607,2.0607 0 0 1 -1.471,-0.6278 2.2229,2.2229 0 0 1 -0.6321,-1.5561 v -9.348 A 2.2215,2.2215 0 0 1 49.609,61.4671 2.0591,2.0591 0 0 1 51.08,60.841 h 3.7333 v -9.5948 h -19.515 v 0.1394 a 2.2,2.2 0 0 1 -0.63,1.544 2.1452,2.1452 0 0 1 -1.3933,0.6383 v 34.891 h 28.0348 a 0.6193,0.6193 0 0 1 0.6151,0.6235 v 3.3235 a 0.6193,0.6193 0 0 1 -0.6151,0.6235 H 11.7846 a 0.62,0.62 0 0 1 -0.6153,-0.6235 v -13.29 a 0.6184,0.6184 0 0 1 0.6153,-0.6235 h 9.138 a 0.6183,0.6183 0 0 1 0.6126,0.6235 v 9.3428 z m 39.1624,1.247 h -48.3 v 2.0765 H 60.6976 V 89.7046 Z M 53.2162,73.3077 v -8.1226 h 4.4257 v 8.1226 z M 20.307,79.7382 h -7.91 v 8.7193 h 7.91 z M 55.3822,49.9953 h 4.4471 l -7.3942,-7.5261 -7.3967,7.5261 z M 30.9182,38.9024 24.1364,31.9999 v 6.9025 z m -6.2654,32.11 7.3942,7.5286 V 63.486 l -7.3942,7.526 z m 7.1406,9.0354 -7.3941,-7.5278 v 15.0538 z m 0.2536,1.5076 -6.7816,6.9025 h 6.7816 z m -7.6477,-12.0481 7.3941,-7.5277 -7.3941,-7.526 z m 0.8661,-15.9378 6.7816,6.9025 v -6.9025 z m 8.8047,-5.5257 h -4.4445 a 2.1628,2.1628 0 0 1 -1.5484,-0.6477 2.0674,2.0674 0 0 1 -0.5981,-1.45 v -5.7932 h -4.4445 a 0.9105,0.9105 0 0 0 -0.6517,0.2727 0.9454,0.9454 0 0 0 -0.27,0.6625 v 10.297 a 0.9441,0.9441 0 0 0 0.2461,0.6383 l 0.0236,0.0251 a 0.9162,0.9162 0 0 0 0.6517,0.2745 h 10.1141 a 0.9155,0.9155 0 0 0 0.6517,-0.2745 0.954,0.954 0 0 0 0.27,-0.6634 v -3.3408 z m -5.3633,-7.8914 v 5.7932 a 1.0831,1.0831 0 0 0 0.2986,0.756 0.8847,0.8847 0 0 0 0.62,0.2675 h 4.4445 v -5.8819 0 -0.0121 0 -0.0295 a 0.953,0.953 0 0 0 -0.27,-0.6191 l 0.002,-0.002 a 0.9093,0.9093 0 0 0 -0.6536,-0.2727 h -4.4419 z m -15.44,2.0592 7.6213,7.76 v -7.76 z m 5.9112,7.7841 -6.779,-6.9 -0.002,0.0512 v 5.9136 a 0.9421,0.9421 0 0 0 0.27,0.6625 l 0.002,-0.003 a 0.9017,0.9017 0 0 0 0.6489,0.2755 z m 16.9859,-7.7841 7.3959,7.5259 7.3943,-7.5259 z m 5.9155,7.7841 -6.7816,-6.9 v 6.9 z"
     id="path8"
     inkscape:connector-curvature="0"
     style="fill:#3cb878;fill-rule:evenodd;stroke:#3cb878;stroke-width:0.1487px;stroke-miterlimit:10" />
</svg>
