<?xml version="1.0" encoding="UTF-8" standalone="no"?>
<svg
   xmlns:dc="http://purl.org/dc/elements/1.1/"
   xmlns:cc="http://creativecommons.org/ns#"
   xmlns:rdf="http://www.w3.org/1999/02/22-rdf-syntax-ns#"
   xmlns:svg="http://www.w3.org/2000/svg"
   xmlns="http://www.w3.org/2000/svg"
   xmlns:sodipodi="http://sodipodi.sourceforge.net/DTD/sodipodi-0.dtd"
   xmlns:inkscape="http://www.inkscape.org/namespaces/inkscape"
   viewBox="0 0 120 120"
   version="1.1"
   id="svg193"
   sodipodi:docname="Zasób 1.svg"
   inkscape:version="0.92.4 (5da689c313, 2019-01-14)"
   width="120"
   height="120">
  <metadata
     id="metadata197">
    <rdf:RDF>
      <cc:Work
         rdf:about="">
        <dc:format>image/svg+xml</dc:format>
        <dc:type
           rdf:resource="http://purl.org/dc/dcmitype/StillImage" />
        <dc:title></dc:title>
      </cc:Work>
    </rdf:RDF>
  </metadata>
  <sodipodi:namedview
     pagecolor="#ffffff"
     bordercolor="#666666"
     borderopacity="1"
     objecttolerance="10"
     gridtolerance="10"
     guidetolerance="10"
     inkscape:pageopacity="0"
     inkscape:pageshadow="2"
     inkscape:window-width="1920"
     inkscape:window-height="1017"
     id="namedview195"
     showgrid="false"
     inkscape:zoom="1.0569215"
     inkscape:cx="20.294622"
     inkscape:cy="26.654861"
     inkscape:window-x="2992"
     inkscape:window-y="-8"
     inkscape:window-maximized="1"
     inkscape:current-layer="svg193" />
  <defs
     id="defs4">
    <style
       id="style2">.cls-1{fill:none;stroke:#354157;stroke-linecap:round;stroke-linejoin:round;stroke-width:5px;}.cls-2{fill:#354157;}</style>
  </defs>
  <g
     id="g1375"
     transform="translate(300.90941,20.174979)">
    <path
       class="cls-1"
       d="m -235.54135,-18.309869 v 90.84402 a 22.639076,22.639076 0 0 1 -1.41195,7.81631 l -2.66405,7.23556 a 1.4385857,1.4385857 0 0 1 -2.69601,0 l -2.66405,-7.23556 a 22.639076,22.639076 0 0 1 -1.37998,-7.81631 v -90.84402"
       id="path6"
       inkscape:connector-curvature="0"
       style="fill:none;stroke:#3cb878;stroke-width:2.66404748px;stroke-linecap:round;stroke-linejoin:round;stroke-opacity:1" />
    <path
       class="cls-1"
       d="m -229.00378,26.414161 -0.0746,0.0373 a 41.713656,41.713656 0 0 1 -6.46298,1.64106"
       id="path8"
       inkscape:connector-curvature="0"
       style="fill:none;stroke:#3cb878;stroke-width:2.66404748px;stroke-linecap:round;stroke-linejoin:round;stroke-opacity:1" />
    <path
       class="cls-1"
       d="m -246.35739,29.286001 c -3.72966,0 -6.52691,-0.75659 -6.52691,-2.87184 0,-2.01402 2.82389,-4.79529 6.52691,-7.61385 a 114.68725,114.68725 0 0 1 10.81604,-7.0544 c 1.51318,-0.88979 2.87717,-1.66236 3.9641,-2.2644402 a 1.1029157,1.1029157 0 0 0 -0.29305,-2.04066 l -3.67105,-0.82585"
       id="path10"
       inkscape:connector-curvature="0"
       style="fill:none;stroke:#3cb878;stroke-width:2.66404748px;stroke-linecap:round;stroke-linejoin:round;stroke-opacity:1" />
    <path
       class="cls-1"
       d="m -229.00378,44.737481 -0.0746,0.0373 a 41.713656,41.713656 0 0 1 -6.46298,1.65171"
       id="path12"
       inkscape:connector-curvature="0"
       style="fill:none;stroke:#3cb878;stroke-width:2.66404748px;stroke-linecap:round;stroke-linejoin:round;stroke-opacity:1" />
    <path
       class="cls-1"
       d="m -246.35739,47.609321 c -3.72966,0 -6.52691,-0.75659 -6.52691,-2.87184 0,-2.01402 2.82389,-4.79529 6.52691,-7.61385 a 114.68725,114.68725 0 0 1 10.81604,-7.0544 c 3.3567,-1.97672 5.99943,-3.37801 6.46298,-3.61778 l 0.0746,-0.0373"
       id="path14"
       inkscape:connector-curvature="0"
       style="fill:none;stroke:#3cb878;stroke-width:2.66404748px;stroke-linecap:round;stroke-linejoin:round;stroke-opacity:1" />
    <path
       class="cls-1"
       d="m -229.00378,63.055471 -0.0746,0.0373 a 40.877145,40.877145 0 0 1 -6.46298,1.64639"
       id="path16"
       inkscape:connector-curvature="0"
       style="fill:none;stroke:#3cb878;stroke-width:2.66404748px;stroke-linecap:round;stroke-linejoin:round;stroke-opacity:1" />
    <path
       class="cls-1"
       d="m -246.35739,65.927311 c -3.72966,0 -6.52691,-0.75126 -6.52691,-2.87184 0,-2.01402 2.82389,-4.79529 6.52691,-7.61385 a 116.83447,116.83447 0 0 1 10.81604,-7.0544 c 3.3567,-1.97672 5.99943,-3.37268 6.46298,-3.61245 l 0.0746,-0.0373"
       id="path18"
       inkscape:connector-curvature="0"
       style="fill:none;stroke:#3cb878;stroke-width:2.66404748px;stroke-linecap:round;stroke-linejoin:round;stroke-opacity:1" />
    <path
       class="cls-1"
       d="m -233.95891,77.776991 c -0.44756,0.22378 -1.34801,0.66069 -2.51486,1.16153"
       id="path20"
       inkscape:connector-curvature="0"
       style="fill:none;stroke:#3cb878;stroke-width:2.66404748px;stroke-linecap:round;stroke-linejoin:round;stroke-opacity:1" />
    <path
       class="cls-1"
       d="m -244.47657,81.671831 c -3.11693,0.65536 -5.70639,0.42625 -5.70639,-2.09394 0,-1.59843 1.59843,-3.55384 3.87353,-5.5572 3.00504,-2.62143 7.24088,-5.3281 10.76808,-7.37409 3.30874,-1.9341 5.9941,-3.31407 6.46298,-3.55384 l 0.0746,-0.0373"
       id="path22"
       inkscape:connector-curvature="0"
       style="fill:none;stroke:#3cb878;stroke-width:2.66404748px;stroke-linecap:round;stroke-linejoin:round;stroke-opacity:1" />
    <path
       class="cls-1"
       d="m -299.55309,-7.4725292 h 36.55606 a 4.1825546,4.1825546 0 0 1 4.19854,4.18256 V 68.383561 c 0,0.72462 0,1.44392 0.0639,2.16321 a 37.062229,37.062229 0 0 0 8.15199,21.10458 l 2.27509,2.81857 a 9.4680249,9.4680249 0 0 0 14.74284,0 l 2.2751,-2.81857 a 37.014276,37.014276 0 0 0 8.18928,-22.95876 c 0,-0.10123 0,-0.20779 0,-0.30903 V -3.2899692 a 4.1825546,4.1825546 0 0 1 4.18788,-4.18256 h 36.57205"
       id="path24"
       inkscape:connector-curvature="0"
       style="fill:none;stroke:#3cb878;stroke-width:2.66404748px;stroke-linecap:round;stroke-linejoin:round;stroke-opacity:1" />
    <path
       class="cls-1"
       d="m -223.10025,21.203281 c 10.18199,0 10.18199,2.78659 20.36931,2.78659 10.18732,0 10.18199,-2.78659 20.36931,-2.78659"
       id="path26"
       inkscape:connector-curvature="0"
       style="fill:none;stroke:#3cb878;stroke-width:2.66404748px;stroke-linecap:round;stroke-linejoin:round;stroke-opacity:1" />
    <path
       class="cls-1"
       d="m -258.79849,21.203281 c -10.18199,0 -10.18199,2.78659 -20.36931,2.78659 -10.18731,0 -10.2033,-2.78659 -20.39062,-2.78659"
       id="path28"
       inkscape:connector-curvature="0"
       style="fill:none;stroke:#3cb878;stroke-width:2.66404748px;stroke-linecap:round;stroke-linejoin:round;stroke-opacity:1" />
    <path
       class="cls-1"
       d="m -182.34032,61.377121 c -10.18732,0 -10.18732,-2.79192 -20.36931,-2.79192 -10.18199,0 -10.18732,2.79192 -20.36931,2.79192"
       id="path30"
       inkscape:connector-curvature="0"
       style="fill:none;stroke:#3cb878;stroke-width:2.66404748px;stroke-linecap:round;stroke-linejoin:round;stroke-opacity:1" />
    <path
       class="cls-1"
       d="m -299.55842,61.377121 c 10.18732,0 10.18732,-2.79192 20.36931,-2.79192 10.18199,0 10.18732,2.79192 20.36931,2.79192"
       id="path32"
       inkscape:connector-curvature="0"
       style="fill:none;stroke:#3cb878;stroke-width:2.66404748px;stroke-linecap:round;stroke-linejoin:round;stroke-opacity:1" />
    <line
       class="cls-1"
       x1="-299.54242"
       y1="21.203278"
       x2="-299.55841"
       y2="21.219269"
       id="line34"
       style="fill:none;stroke:#3cb878;stroke-width:2.66404748px;stroke-linecap:round;stroke-linejoin:round;stroke-opacity:1" />
    <line
       class="cls-1"
       x1="-289.60553"
       y1="22.535309"
       x2="-299.55841"
       y2="32.48819"
       id="line36"
       style="fill:none;stroke:#3cb878;stroke-width:2.66404748px;stroke-linecap:round;stroke-linejoin:round;stroke-opacity:1" />
    <line
       class="cls-1"
       x1="-279.79651"
       y1="23.989868"
       x2="-299.55841"
       y2="43.751785"
       id="line38"
       style="fill:none;stroke:#3cb878;stroke-width:2.66404748px;stroke-linecap:round;stroke-linejoin:round;stroke-opacity:1" />
    <line
       class="cls-1"
       x1="-266.49225"
       y1="21.954544"
       x2="-299.55841"
       y2="55.020706"
       id="line40"
       style="fill:none;stroke:#3cb878;stroke-width:2.66404748px;stroke-linecap:round;stroke-linejoin:round;stroke-opacity:1" />
    <line
       class="cls-1"
       x1="-258.80914"
       y1="25.540344"
       x2="-294.32623"
       y2="61.062759"
       id="line42"
       style="fill:none;stroke:#3cb878;stroke-width:2.66404748px;stroke-linecap:round;stroke-linejoin:round;stroke-opacity:1" />
    <line
       class="cls-1"
       x1="-258.80914"
       y1="36.809265"
       x2="-280.61169"
       y2="58.606506"
       id="line44"
       style="fill:none;stroke:#3cb878;stroke-width:2.66404748px;stroke-linecap:round;stroke-linejoin:round;stroke-opacity:1" />
    <line
       class="cls-1"
       x1="-258.80914"
       y1="48.072861"
       x2="-270.36044"
       y2="59.624176"
       id="line46"
       style="fill:none;stroke:#3cb878;stroke-width:2.66404748px;stroke-linecap:round;stroke-linejoin:round;stroke-opacity:1" />
    <line
       class="cls-1"
       x1="-220.72392"
       y1="21.256561"
       x2="-223.08427"
       y2="23.616913"
       id="line48"
       style="fill:none;stroke:#3cb878;stroke-width:2.66404748px;stroke-linecap:round;stroke-linejoin:round;stroke-opacity:1" />
    <line
       class="cls-1"
       x1="-258.80914"
       y1="59.341782"
       x2="-260.80719"
       y2="61.339828"
       id="line50"
       style="fill:none;stroke:#3cb878;stroke-width:2.66404748px;stroke-linecap:round;stroke-linejoin:round;stroke-opacity:1" />
    <line
       class="cls-1"
       x1="-211.23991"
       y1="23.041473"
       x2="-223.08427"
       y2="34.885834"
       id="line52"
       style="fill:none;stroke:#3cb878;stroke-width:2.66404748px;stroke-linecap:round;stroke-linejoin:round;stroke-opacity:1" />
    <line
       class="cls-1"
       x1="-200.89809"
       y1="23.963226"
       x2="-223.08427"
       y2="46.149429"
       id="line54"
       style="fill:none;stroke:#3cb878;stroke-width:2.66404748px;stroke-linecap:round;stroke-linejoin:round;stroke-opacity:1" />
    <line
       class="cls-1"
       x1="-187.12494"
       y1="21.45903"
       x2="-223.08427"
       y2="57.41835"
       id="line56"
       style="fill:none;stroke:#3cb878;stroke-width:2.66404748px;stroke-linecap:round;stroke-linejoin:round;stroke-opacity:1" />
    <line
       class="cls-1"
       x1="-182.2977"
       y1="27.900696"
       x2="-214.91098"
       y2="60.513962"
       id="line58"
       style="fill:none;stroke:#3cb878;stroke-width:2.66404748px;stroke-linecap:round;stroke-linejoin:round;stroke-opacity:1" />
    <line
       class="cls-1"
       x1="-182.2977"
       y1="39.164291"
       x2="-201.73459"
       y2="58.601181"
       id="line60"
       style="fill:none;stroke:#3cb878;stroke-width:2.66404748px;stroke-linecap:round;stroke-linejoin:round;stroke-opacity:1" />
    <line
       class="cls-1"
       x1="-182.2977"
       y1="50.433212"
       x2="-191.99484"
       y2="60.130341"
       id="line62"
       style="fill:none;stroke:#3cb878;stroke-width:2.66404748px;stroke-linecap:round;stroke-linejoin:round;stroke-opacity:1" />
    <path
       class="cls-2"
       d="m -216.7758,-0.75379915 a 1.8648333,1.8648333 0 1 0 1.86483,-1.86483005 1.8701614,1.8701614 0 0 0 -1.86483,1.86483005 z"
       id="path64"
       inkscape:connector-curvature="0"
       style="fill:#3cb878;fill-opacity:1;stroke-width:0.5328095" />
    <path
       class="cls-2"
       d="m -265.04302,-0.75379915 a 1.8648333,1.8648333 0 1 1 -1.86483,-1.86483005 1.8648333,1.8648333 0 0 1 1.86483,1.86483005 z"
       id="path66"
       inkscape:connector-curvature="0"
       style="fill:#3cb878;fill-opacity:1;stroke-width:0.5328095" />
    <path
       class="cls-2"
       d="m -219.02426,6.6149608 a 1.8648333,1.8648333 0 1 0 1.86483,-1.86484 1.8648333,1.8648333 0 0 0 -1.86483,1.86484 z"
       id="path68"
       inkscape:connector-curvature="0"
       style="fill:#3cb878;fill-opacity:1;stroke-width:0.5328095" />
    <path
       class="cls-2"
       d="m -262.78923,6.6149608 a 1.8648333,1.8648333 0 1 1 -1.86483,-1.86484 1.8648333,1.8648333 0 0 1 1.86483,1.86484 z"
       id="path70"
       inkscape:connector-curvature="0"
       style="fill:#3cb878;fill-opacity:1;stroke-width:0.5328095" />
    <path
       class="cls-2"
       d="m -208.83161,-2.5919892 a 1.8648333,1.8648333 0 1 0 1.86483,-1.86484 1.8648333,1.8648333 0 0 0 -1.86483,1.86484 z"
       id="path72"
       inkscape:connector-curvature="0"
       style="fill:#3cb878;fill-opacity:1;stroke-width:0.5328095" />
    <path
       class="cls-2"
       d="m -272.98188,-2.5919892 a 1.8648333,1.8648333 0 1 1 -1.86483,-1.86484 1.8701614,1.8701614 0 0 1 1.86483,1.86484 z"
       id="path74"
       inkscape:connector-curvature="0"
       style="fill:#3cb878;fill-opacity:1;stroke-width:0.5328095" />
    <path
       class="cls-2"
       d="m -211.23991,4.5796208 a 1.8648333,1.8648333 0 1 0 1.86483,-1.86483 1.8648333,1.8648333 0 0 0 -1.86483,1.86483 z"
       id="path76"
       inkscape:connector-curvature="0"
       style="fill:#3cb878;fill-opacity:1;stroke-width:0.5328095" />
    <path
       class="cls-2"
       d="m -270.57891,4.5796208 a 1.8648333,1.8648333 0 1 1 -1.86483,-1.86483 1.8648333,1.8648333 0 0 1 1.86483,1.86483 z"
       id="path78"
       inkscape:connector-curvature="0"
       style="fill:#3cb878;fill-opacity:1;stroke-width:0.5328095" />
    <path
       class="cls-2"
       d="m -219.02426,15.523531 a 1.8648333,1.8648333 0 1 0 1.86483,-1.86483 1.8648333,1.8648333 0 0 0 -1.86483,1.86483 z"
       id="path80"
       inkscape:connector-curvature="0"
       style="fill:#3cb878;fill-opacity:1;stroke-width:0.5328095" />
    <path
       class="cls-2"
       d="m -262.78923,15.523531 a 1.8648333,1.8648333 0 1 1 -1.86483,-1.86483 1.8701614,1.8701614 0 0 1 1.86483,1.86483 z"
       id="path82"
       inkscape:connector-curvature="0"
       style="fill:#3cb878;fill-opacity:1;stroke-width:0.5328095" />
    <path
       class="cls-2"
       d="m -213.85601,11.793861 a 1.8648333,1.8648333 0 1 0 1.86484,-1.8648302 1.8648333,1.8648333 0 0 0 -1.86484,1.8648302 z"
       id="path84"
       inkscape:connector-curvature="0"
       style="fill:#3cb878;fill-opacity:1;stroke-width:0.5328095" />
    <path
       class="cls-2"
       d="m -267.96281,11.793861 a 1.8648333,1.8648333 0 1 1 -1.86484,-1.8648302 1.8648333,1.8648333 0 0 1 1.86484,1.8648302 z"
       id="path86"
       inkscape:connector-curvature="0"
       style="fill:#3cb878;fill-opacity:1;stroke-width:0.5328095" />
    <path
       class="cls-2"
       d="m -209.37508,19.253201 a 1.8648333,1.8648333 0 1 0 1.86483,-1.86484 1.8648333,1.8648333 0 0 0 -1.86483,1.86484 z"
       id="path88"
       inkscape:connector-curvature="0"
       style="fill:#3cb878;fill-opacity:1;stroke-width:0.5328095" />
    <path
       class="cls-2"
       d="m -207.51025,11.793861 a 1.8648333,1.8648333 0 1 0 1.86484,-1.8648302 1.8648333,1.8648333 0 0 0 -1.86484,1.8648302 z"
       id="path90"
       inkscape:connector-curvature="0"
       style="fill:#3cb878;fill-opacity:1;stroke-width:0.5328095" />
    <path
       class="cls-2"
       d="m -274.30857,11.793861 a 1.8648333,1.8648333 0 1 1 -1.86484,-1.8648302 1.8648333,1.8648333 0 0 1 1.86484,1.8648302 z"
       id="path92"
       inkscape:connector-curvature="0"
       style="fill:#3cb878;fill-opacity:1;stroke-width:0.5328095" />
    <path
       class="cls-2"
       d="m -202.76291,17.947811 a 1.8648333,1.8648333 0 1 0 1.86483,-1.86483 1.8648333,1.8648333 0 0 0 -1.86483,1.86483 z"
       id="path94"
       inkscape:connector-curvature="0"
       style="fill:#3cb878;fill-opacity:1;stroke-width:0.5328095" />
    <path
       class="cls-2"
       d="m -279.04525,17.947811 a 1.8648333,1.8648333 0 1 1 -1.86483,-1.86483 1.8595052,1.8595052 0 0 1 1.86483,1.86483 z"
       id="path96"
       inkscape:connector-curvature="0"
       style="fill:#3cb878;fill-opacity:1;stroke-width:0.5328095" />
    <path
       class="cls-2"
       d="m -196.73683,17.388361 a 1.8648333,1.8648333 0 1 0 1.87549,-1.86483 1.8648333,1.8648333 0 0 0 -1.87549,1.86483 z"
       id="path98"
       inkscape:connector-curvature="0"
       style="fill:#3cb878;fill-opacity:1;stroke-width:0.5328095" />
    <path
       class="cls-2"
       d="m -285.07665,17.388361 a 1.8648333,1.8648333 0 1 1 -1.86484,-1.86483 1.8648333,1.8648333 0 0 1 1.86484,1.86483 z"
       id="path100"
       inkscape:connector-curvature="0"
       style="fill:#3cb878;fill-opacity:1;stroke-width:0.5328095" />
    <path
       class="cls-2"
       d="m -200.4665,10.445861 a 1.8648333,1.8648333 0 1 0 1.87549,-1.8488502 1.8648333,1.8648333 0 0 0 -1.87549,1.8488502 z"
       id="path102"
       inkscape:connector-curvature="0"
       style="fill:#3cb878;fill-opacity:1;stroke-width:0.5328095" />
    <path
       class="cls-2"
       d="m -281.34699,10.445861 a 1.8648333,1.8648333 0 1 1 -1.86483,-1.8648402 1.8701614,1.8701614 0 0 1 1.86483,1.8648402 z"
       id="path104"
       inkscape:connector-curvature="0"
       style="fill:#3cb878;fill-opacity:1;stroke-width:0.5328095" />
    <path
       class="cls-2"
       d="m -203.78058,4.5796208 a 1.8648333,1.8648333 0 1 0 1.86483,-1.86483 1.8648333,1.8648333 0 0 0 -1.86483,1.86483 z"
       id="path106"
       inkscape:connector-curvature="0"
       style="fill:#3cb878;fill-opacity:1;stroke-width:0.5328095" />
    <path
       class="cls-2"
       d="m -278.03824,4.5796208 a 1.8648333,1.8648333 0 1 1 -1.86483,-1.86483 1.8648333,1.8648333 0 0 1 1.86483,1.86483 z"
       id="path108"
       inkscape:connector-curvature="0"
       style="fill:#3cb878;fill-opacity:1;stroke-width:0.5328095" />
    <path
       class="cls-2"
       d="m -200.4665,-0.74846915 a 1.8648333,1.8648333 0 1 0 1.87549,-1.84352005 1.8648333,1.8648333 0 0 0 -1.87549,1.84352005 z"
       id="path110"
       inkscape:connector-curvature="0"
       style="fill:#3cb878;fill-opacity:1;stroke-width:0.5328095" />
    <path
       class="cls-2"
       d="m -281.34699,-0.74846915 a 1.8648333,1.8648333 0 1 1 -1.86483,-1.84352005 1.8648333,1.8648333 0 0 1 1.86483,1.84352005 z"
       id="path112"
       inkscape:connector-curvature="0"
       style="fill:#3cb878;fill-opacity:1;stroke-width:0.5328095" />
    <path
       class="cls-2"
       d="m -195.43145,6.4657708 a 1.8648333,1.8648333 0 1 0 1.86483,-1.86483 1.8648333,1.8648333 0 0 0 -1.86483,1.86483 z"
       id="path114"
       inkscape:connector-curvature="0"
       style="fill:#3cb878;fill-opacity:1;stroke-width:0.5328095" />
    <path
       class="cls-2"
       d="m -286.38736,6.4657708 a 1.8648333,1.8648333 0 1 1 -1.86484,-1.86483 1.8648333,1.8648333 0 0 1 1.86484,1.86483 z"
       id="path116"
       inkscape:connector-curvature="0"
       style="fill:#3cb878;fill-opacity:1;stroke-width:0.5328095" />
    <path
       class="cls-2"
       d="m -193.56662,-1.5263692 a 1.8648333,1.8648333 0 1 0 1.86484,-1.86484 1.8648333,1.8648333 0 0 0 -1.86484,1.86484 z"
       id="path118"
       inkscape:connector-curvature="0"
       style="fill:#3cb878;fill-opacity:1;stroke-width:0.5328095" />
    <path
       class="cls-2"
       d="m -288.2522,-1.5263692 a 1.8648333,1.8648333 0 1 1 -1.86483,-1.86484 1.8648333,1.8648333 0 0 1 1.86483,1.86484 z"
       id="path120"
       inkscape:connector-curvature="0"
       style="fill:#3cb878;fill-opacity:1;stroke-width:0.5328095" />
    <path
       class="cls-2"
       d="m -186.06999,-2.5919892 a 1.8648333,1.8648333 0 1 0 1.86484,-1.86484 1.8701614,1.8701614 0 0 0 -1.86484,1.86484 z"
       id="path122"
       inkscape:connector-curvature="0"
       style="fill:#3cb878;fill-opacity:1;stroke-width:0.5328095" />
    <path
       class="cls-2"
       d="m -295.74883,-2.5919892 a 1.8648333,1.8648333 0 1 1 -1.86483,-1.86484 1.8648333,1.8648333 0 0 1 1.86483,1.86484 z"
       id="path124"
       inkscape:connector-curvature="0"
       style="fill:#3cb878;fill-opacity:1;stroke-width:0.5328095" />
    <path
       class="cls-2"
       d="m -189.00044,2.7361008 a 1.8648333,1.8648333 0 1 0 1.86483,-1.86482995 1.8648333,1.8648333 0 0 0 -1.86483,1.86482995 z"
       id="path126"
       inkscape:connector-curvature="0"
       style="fill:#3cb878;fill-opacity:1;stroke-width:0.5328095" />
    <path
       class="cls-2"
       d="m -292.80772,2.7361008 a 1.8648333,1.8648333 0 1 1 -1.86483,-1.86482995 1.8648333,1.8648333 0 0 1 1.86483,1.86482995 z"
       id="path128"
       inkscape:connector-curvature="0"
       style="fill:#3cb878;fill-opacity:1;stroke-width:0.5328095" />
    <path
       class="cls-2"
       d="m -186.06999,8.4797908 a 1.8648333,1.8648333 0 1 0 1.86484,-1.86483 1.8648333,1.8648333 0 0 0 -1.86484,1.86483 z"
       id="path130"
       inkscape:connector-curvature="0"
       style="fill:#3cb878;fill-opacity:1;stroke-width:0.5328095" />
    <path
       class="cls-2"
       d="m -295.74883,8.4797908 a 1.8648333,1.8648333 0 1 1 -1.86483,-1.86483 1.8648333,1.8648333 0 0 1 1.86483,1.86483 z"
       id="path132"
       inkscape:connector-curvature="0"
       style="fill:#3cb878;fill-opacity:1;stroke-width:0.5328095" />
    <path
       class="cls-2"
       d="m -192.7301,11.793861 a 1.8648333,1.8648333 0 1 0 1.86483,-1.8648302 1.8648333,1.8648333 0 0 0 -1.86483,1.8648302 z"
       id="path134"
       inkscape:connector-curvature="0"
       style="fill:#3cb878;fill-opacity:1;stroke-width:0.5328095" />
    <path
       class="cls-2"
       d="m -289.07805,11.793861 a 1.8648333,1.8648333 0 1 1 -1.86484,-1.8648302 1.8648333,1.8648333 0 0 1 1.86484,1.8648302 z"
       id="path136"
       inkscape:connector-curvature="0"
       style="fill:#3cb878;fill-opacity:1;stroke-width:0.5328095" />
    <path
       class="cls-2"
       d="m -186.06999,15.523531 a 1.8648333,1.8648333 0 1 0 1.86484,-1.86483 1.8701614,1.8701614 0 0 0 -1.86484,1.86483 z"
       id="path138"
       inkscape:connector-curvature="0"
       style="fill:#3cb878;fill-opacity:1;stroke-width:0.5328095" />
    <path
       class="cls-2"
       d="m -295.74883,15.523531 a 1.8648333,1.8648333 0 1 1 -1.86483,-1.86483 1.8648333,1.8648333 0 0 1 1.86483,1.86483 z"
       id="path140"
       inkscape:connector-curvature="0"
       style="fill:#3cb878;fill-opacity:1;stroke-width:0.5328095" />
    <line
       class="cls-1"
       x1="-299.47849"
       y1="67.312607"
       x2="-294.32623"
       y2="67.312607"
       id="line142"
       style="fill:none;stroke:#3cb878;stroke-width:2.66404748px;stroke-linecap:round;stroke-linejoin:round;stroke-opacity:1" />
    <line
       class="cls-1"
       x1="-182.34033"
       y1="67.312607"
       x2="-187.4926"
       y2="67.312607"
       id="line144"
       style="fill:none;stroke:#3cb878;stroke-width:2.66404748px;stroke-linecap:round;stroke-linejoin:round;stroke-opacity:1" />
    <line
       class="cls-1"
       x1="-285.07666"
       y1="63.897308"
       x2="-279.79651"
       y2="63.897308"
       id="line146"
       style="fill:none;stroke:#3cb878;stroke-width:2.66404748px;stroke-linecap:round;stroke-linejoin:round;stroke-opacity:1" />
    <line
       class="cls-1"
       x1="-196.73685"
       y1="63.897308"
       x2="-202.02231"
       y2="63.897308"
       id="line148"
       style="fill:none;stroke:#3cb878;stroke-width:2.66404748px;stroke-linecap:round;stroke-linejoin:round;stroke-opacity:1" />
    <line
       class="cls-1"
       x1="-272.98187"
       y1="65.762131"
       x2="-265.04303"
       y2="65.762131"
       id="line150"
       style="fill:none;stroke:#3cb878;stroke-width:2.66404748px;stroke-linecap:round;stroke-linejoin:round;stroke-opacity:1" />
    <line
       class="cls-1"
       x1="-208.83162"
       y1="65.762131"
       x2="-216.7758"
       y2="65.762131"
       id="line152"
       style="fill:none;stroke:#3cb878;stroke-width:2.66404748px;stroke-linecap:round;stroke-linejoin:round;stroke-opacity:1" />
    <line
       class="cls-1"
       x1="-265.04303"
       y1="73.157532"
       x2="-271.69247"
       y2="73.157532"
       id="line154"
       style="fill:none;stroke:#3cb878;stroke-width:2.66404748px;stroke-linecap:round;stroke-linejoin:round;stroke-opacity:1" />
    <line
       class="cls-1"
       x1="-216.7758"
       y1="73.157532"
       x2="-210.12634"
       y2="73.157532"
       id="line156"
       style="fill:none;stroke:#3cb878;stroke-width:2.66404748px;stroke-linecap:round;stroke-linejoin:round;stroke-opacity:1" />
    <line
       class="cls-1"
       x1="-280.61169"
       y1="71.425903"
       x2="-285.07666"
       y2="71.425903"
       id="line158"
       style="fill:none;stroke:#3cb878;stroke-width:2.66404748px;stroke-linecap:round;stroke-linejoin:round;stroke-opacity:1" />
    <line
       class="cls-1"
       x1="-201.20711"
       y1="71.425903"
       x2="-196.73685"
       y2="71.425903"
       id="line160"
       style="fill:none;stroke:#3cb878;stroke-width:2.66404748px;stroke-linecap:round;stroke-linejoin:round;stroke-opacity:1" />
    <line
       class="cls-1"
       x1="-299.47849"
       y1="75.459274"
       x2="-294.67255"
       y2="75.459274"
       id="line162"
       style="fill:none;stroke:#3cb878;stroke-width:2.66404748px;stroke-linecap:round;stroke-linejoin:round;stroke-opacity:1" />
    <line
       class="cls-1"
       x1="-182.34033"
       y1="75.459274"
       x2="-187.14627"
       y2="75.459274"
       id="line164"
       style="fill:none;stroke:#3cb878;stroke-width:2.66404748px;stroke-linecap:round;stroke-linejoin:round;stroke-opacity:1" />
    <line
       class="cls-1"
       x1="-288.2522"
       y1="78.938522"
       x2="-279.90308"
       y2="78.938522"
       id="line166"
       style="fill:none;stroke:#3cb878;stroke-width:2.66404748px;stroke-linecap:round;stroke-linejoin:round;stroke-opacity:1" />
    <line
       class="cls-1"
       x1="-193.56662"
       y1="78.938522"
       x2="-201.91576"
       y2="78.938522"
       id="line168"
       style="fill:none;stroke:#3cb878;stroke-width:2.66404748px;stroke-linecap:round;stroke-linejoin:round;stroke-opacity:1" />
    <line
       class="cls-1"
       x1="-299.55841"
       y1="84.085449"
       x2="-292.80771"
       y2="84.085449"
       id="line170"
       style="fill:none;stroke:#3cb878;stroke-width:2.66404748px;stroke-linecap:round;stroke-linejoin:round;stroke-opacity:1" />
    <line
       class="cls-1"
       x1="-182.26041"
       y1="84.085449"
       x2="-189.01111"
       y2="84.085449"
       id="line172"
       style="fill:none;stroke:#3cb878;stroke-width:2.66404748px;stroke-linecap:round;stroke-linejoin:round;stroke-opacity:1" />
    <line
       class="cls-1"
       x1="-271.69247"
       y1="80.952545"
       x2="-264.58481"
       y2="80.952545"
       id="line174"
       style="fill:none;stroke:#3cb878;stroke-width:2.66404748px;stroke-linecap:round;stroke-linejoin:round;stroke-opacity:1" />
    <line
       class="cls-1"
       x1="-210.12634"
       y1="80.952545"
       x2="-217.23402"
       y2="80.952545"
       id="line176"
       style="fill:none;stroke:#3cb878;stroke-width:2.66404748px;stroke-linecap:round;stroke-linejoin:round;stroke-opacity:1" />
    <line
       class="cls-1"
       x1="-258.80914"
       y1="88.385239"
       x2="-266.49225"
       y2="88.385239"
       id="line178"
       style="fill:none;stroke:#3cb878;stroke-width:2.66404748px;stroke-linecap:round;stroke-linejoin:round;stroke-opacity:1" />
    <line
       class="cls-1"
       x1="-223.00967"
       y1="88.385239"
       x2="-215.32657"
       y2="88.385239"
       id="line180"
       style="fill:none;stroke:#3cb878;stroke-width:2.66404748px;stroke-linecap:round;stroke-linejoin:round;stroke-opacity:1" />
    <line
       class="cls-1"
       x1="-278.03824"
       y1="85.902344"
       x2="-283.21182"
       y2="85.902344"
       id="line182"
       style="fill:none;stroke:#3cb878;stroke-width:2.66404748px;stroke-linecap:round;stroke-linejoin:round;stroke-opacity:1" />
    <line
       class="cls-1"
       x1="-203.78058"
       y1="85.902344"
       x2="-198.60167"
       y2="85.902344"
       id="line184"
       style="fill:none;stroke:#3cb878;stroke-width:2.66404748px;stroke-linecap:round;stroke-linejoin:round;stroke-opacity:1" />
    <line
       class="cls-1"
       x1="-294.32623"
       y1="90.16481"
       x2="-299.47849"
       y2="90.16481"
       id="line186"
       style="fill:none;stroke:#3cb878;stroke-width:2.66404748px;stroke-linecap:round;stroke-linejoin:round;stroke-opacity:1" />
    <line
       class="cls-1"
       x1="-187.4926"
       y1="90.16481"
       x2="-182.34033"
       y2="90.16481"
       id="line188"
       style="fill:none;stroke:#3cb878;stroke-width:2.66404748px;stroke-linecap:round;stroke-linejoin:round;stroke-opacity:1" />
  </g>
</svg>
