<?xml version="1.0" encoding="UTF-8" standalone="no"?>
<svg
   xmlns:dc="http://purl.org/dc/elements/1.1/"
   xmlns:cc="http://creativecommons.org/ns#"
   xmlns:rdf="http://www.w3.org/1999/02/22-rdf-syntax-ns#"
   xmlns:svg="http://www.w3.org/2000/svg"
   xmlns="http://www.w3.org/2000/svg"
   xmlns:sodipodi="http://sodipodi.sourceforge.net/DTD/sodipodi-0.dtd"
   xmlns:inkscape="http://www.inkscape.org/namespaces/inkscape"
   viewBox="0 0 30.000001 29.999999"
   version="1.1"
   id="svg14"
   sodipodi:docname="ic_envelope.svg"
   width="30"
   height="30"
   inkscape:version="0.92.4 (5da689c313, 2019-01-14)">
  <metadata
     id="metadata18">
    <rdf:RDF>
      <cc:Work
         rdf:about="">
        <dc:format>image/svg+xml</dc:format>
        <dc:type
           rdf:resource="http://purl.org/dc/dcmitype/StillImage" />
        <dc:title></dc:title>
      </cc:Work>
    </rdf:RDF>
  </metadata>
  <sodipodi:namedview
     pagecolor="#ffffff"
     bordercolor="#666666"
     borderopacity="1"
     objecttolerance="10"
     gridtolerance="10"
     guidetolerance="10"
     inkscape:pageopacity="0"
     inkscape:pageshadow="2"
     inkscape:window-width="1920"
     inkscape:window-height="1017"
     id="namedview16"
     showgrid="false"
     inkscape:zoom="14.216867"
     inkscape:cx="2.682796"
     inkscape:cy="8.3000002"
     inkscape:window-x="2992"
     inkscape:window-y="-8"
     inkscape:window-maximized="1"
     inkscape:current-layer="svg14" />
  <defs
     id="defs4">
    <style
       id="style2">.cls-1{fill:#f2eee8;}</style>
  </defs>
  <g
     id="Warstwa_2"
     data-name="Warstwa 2"
     transform="translate(3.56,6.7)"
     style="fill:#ffffff">
    <g
       id="Layer_3"
       data-name="Layer 3"
       style="fill:#ffffff">
      <path
         class="cls-1"
         d="M 20.52,16.6 H 2.36 A 2.36,2.36 0 0 1 0,14.24 V 2.36 A 2.36,2.36 0 0 1 2.36,0 h 18.16 a 2.36,2.36 0 0 1 2.36,2.36 V 14.24 A 2.36,2.36 0 0 1 20.52,16.6 Z M 2.36,2 A 0.36,0.36 0 0 0 2,2.36 v 11.88 a 0.36,0.36 0 0 0 0.36,0.36 h 18.16 a 0.36,0.36 0 0 0 0.36,-0.36 V 2.36 A 0.36,0.36 0 0 0 20.52,2 Z"
         id="path6"
         inkscape:connector-curvature="0"
         style="fill:#ffffff" />
      <path
         class="cls-1"
         d="M 20.52,16.1 H 2.36 A 1.85,1.85 0 0 1 0.63,14.9 0.49,0.49 0 0 1 0.76,14.35 L 7.85,8 a 0.48,0.48 0 0 1 0.7,0 0.49,0.49 0 0 1 0,0.7 l -6.82,6.12 a 0.88,0.88 0 0 0 0.63,0.28 h 18.16 a 0.88,0.88 0 0 0 0.63,-0.28 L 14.29,8.7 A 0.5,0.5 0 0 1 15,8 l 7.17,6.39 a 0.5,0.5 0 0 1 0.14,0.55 1.87,1.87 0 0 1 -1.74,1.2 z"
         id="path8"
         inkscape:connector-curvature="0"
         style="fill:#ffffff" />
      <path
         class="cls-1"
         d="M 11.44,11.61 A 0.51,0.51 0 0 1 11.11,11.48 L 0.76,2.25 A 0.5,0.5 0 0 1 0.63,1.7 1.85,1.85 0 0 1 2.36,0.5 h 18.16 a 1.87,1.87 0 0 1 1.74,1.2 0.5,0.5 0 0 1 -0.14,0.55 l -10.35,9.23 a 0.51,0.51 0 0 1 -0.33,0.13 z M 1.73,1.78 11.44,10.44 21.15,1.78 A 0.84,0.84 0 0 0 20.52,1.5 H 2.36 A 0.84,0.84 0 0 0 1.73,1.78 Z"
         id="path10"
         inkscape:connector-curvature="0"
         style="fill:#ffffff" />
    </g>
  </g>
</svg>
