<?xml version="1.0" encoding="UTF-8" standalone="no"?>
<svg
   xmlns:dc="http://purl.org/dc/elements/1.1/"
   xmlns:cc="http://creativecommons.org/ns#"
   xmlns:rdf="http://www.w3.org/1999/02/22-rdf-syntax-ns#"
   xmlns:svg="http://www.w3.org/2000/svg"
   xmlns="http://www.w3.org/2000/svg"
   xmlns:sodipodi="http://sodipodi.sourceforge.net/DTD/sodipodi-0.dtd"
   xmlns:inkscape="http://www.inkscape.org/namespaces/inkscape"
   id="Elements"
   viewBox="0 0 120 120"
   version="1.1"
   sodipodi:docname="ic_handshake.svg"
   width="120"
   height="120"
   inkscape:version="0.92.4 (5da689c313, 2019-01-14)">
  <metadata
     id="metadata54">
    <rdf:RDF>
      <cc:Work
         rdf:about="">
        <dc:format>image/svg+xml</dc:format>
        <dc:type
           rdf:resource="http://purl.org/dc/dcmitype/StillImage" />
        <dc:title></dc:title>
      </cc:Work>
    </rdf:RDF>
  </metadata>
  <sodipodi:namedview
     pagecolor="#ffffff"
     bordercolor="#666666"
     borderopacity="1"
     objecttolerance="10"
     gridtolerance="10"
     guidetolerance="10"
     inkscape:pageopacity="0"
     inkscape:pageshadow="2"
     inkscape:window-width="1920"
     inkscape:window-height="1017"
     id="namedview52"
     showgrid="false"
     inkscape:zoom="2.4666274"
     inkscape:cx="12.026223"
     inkscape:cy="47.8386"
     inkscape:window-x="2992"
     inkscape:window-y="-8"
     inkscape:window-maximized="1"
     inkscape:current-layer="Elements" />
  <defs
     id="defs4">
    <style
       id="style2">.cls-1{fill:none;stroke:#3cb878;stroke-linecap:round;stroke-linejoin:round;stroke-width:5px;}</style>
  </defs>
  <g
     id="g908"
     transform="matrix(1.0153933,0,0,1.0153933,-0.89325399,-1.0034178)">
    <path
       class="cls-1"
       d="m 48.882683,89.507721 -9.296227,9.296803 a 4.145218,4.145218 0 0 1 -5.86155,-5.862029 L 48.882683,76.964886"
       id="path6"
       inkscape:connector-curvature="0"
       style="fill:none;stroke:#3cb878;stroke-width:3;stroke-linecap:round;stroke-linejoin:round;stroke-miterlimit:4;stroke-dasharray:none" />
    <path
       class="cls-1"
       d="m 54.744616,95.369271 -9.296707,9.296709 a 4.1446742,4.1446742 0 0 1 -5.861453,-5.861456 l 9.296227,-9.296803"
       id="path8"
       inkscape:connector-curvature="0"
       style="fill:none;stroke:#3cb878;stroke-width:3;stroke-linecap:round;stroke-linejoin:round;stroke-miterlimit:4;stroke-dasharray:none" />
    <path
       class="cls-1"
       d="m 54.744136,95.370806 -9.294692,9.294594 a 4.1447382,4.1447382 0 1 0 5.861454,5.86155 l 8.171836,-8.17222"
       id="path10"
       inkscape:connector-curvature="0"
       style="fill:none;stroke:#3cb878;stroke-width:3;stroke-linecap:round;stroke-linejoin:round;stroke-miterlimit:4;stroke-dasharray:none" />
    <line
       class="cls-1"
       x1="60.605717"
       y1="101.23231"
       x2="60.578079"
       y2="101.25993"
       id="line12"
       style="fill:none;stroke:#3cb878;stroke-width:3;stroke-linecap:round;stroke-linejoin:round;stroke-miterlimit:4;stroke-dasharray:none" />
    <path
       class="cls-1"
       d="m 62.629454,110.93073 -5.457199,5.45719 a 4.1445463,4.1445463 0 0 1 -5.861549,-5.86097 l 8.171837,-8.17222"
       id="path14"
       inkscape:connector-curvature="0"
       style="fill:none;stroke:#3cb878;stroke-width:3;stroke-linecap:round;stroke-linejoin:round;stroke-miterlimit:4;stroke-dasharray:none" />
    <line
       class="cls-1"
       x1="60.605717"
       y1="101.23231"
       x2="60.578079"
       y2="101.25993"
       id="line16"
       style="fill:none;stroke:#3cb878;stroke-width:3;stroke-linecap:round;stroke-linejoin:round;stroke-miterlimit:4;stroke-dasharray:none" />
    <path
       class="cls-1"
       d="m 82.211099,95.594667 -3.232886,-3.975475 a 4.1447382,4.1447382 0 0 1 6.431421,-5.2295 l 3.23279,3.974995"
       id="path18"
       inkscape:connector-curvature="0"
       style="fill:none;stroke:#3cb878;stroke-width:3;stroke-linecap:round;stroke-linejoin:round;stroke-miterlimit:4;stroke-dasharray:none" />
    <path
       class="cls-1"
       d="m 75.779678,100.82848 -3.232886,-3.975471 a 4.1462735,4.1462735 0 0 1 6.291903,-5.397419 l 0.07101,0.08348 0.06813,0.07964 3.232886,3.975475"
       id="path20"
       inkscape:connector-curvature="0"
       style="fill:none;stroke:#3cb878;stroke-width:3;stroke-linecap:round;stroke-linejoin:round;stroke-miterlimit:4;stroke-dasharray:none" />
    <path
       class="cls-1"
       d="m 69.348833,106.05856 -3.232886,-3.97538 a 4.1444504,4.1444504 0 1 1 6.430845,-5.229499 l 3.232886,3.975479"
       id="path22"
       inkscape:connector-curvature="0"
       style="fill:none;stroke:#3cb878;stroke-width:3;stroke-linecap:round;stroke-linejoin:round;stroke-miterlimit:4;stroke-dasharray:none" />
    <path
       class="cls-1"
       d="m 62.917316,111.28854 -3.23231,-3.97548 a 4.1446423,4.1446423 0 1 1 6.430845,-5.23026 l 3.232886,3.97538"
       id="path24"
       inkscape:connector-curvature="0"
       style="fill:none;stroke:#3cb878;stroke-width:3;stroke-linecap:round;stroke-linejoin:round;stroke-miterlimit:4;stroke-dasharray:none" />
    <path
       class="cls-1"
       d="m 66.115947,102.0828 3.232886,3.97538 a 4.145218,4.145218 0 0 1 -6.431421,5.23036 l -3.23231,-3.97548"
       id="path26"
       inkscape:connector-curvature="0"
       style="fill:none;stroke:#3cb878;stroke-width:3;stroke-linecap:round;stroke-linejoin:round;stroke-miterlimit:4;stroke-dasharray:none" />
    <path
       class="cls-1"
       d="m 72.546792,96.853009 3.232886,3.975471 a 4.1444504,4.1444504 0 0 1 -6.430845,5.2295 l -3.232886,-3.97538"
       id="path28"
       inkscape:connector-curvature="0"
       style="fill:none;stroke:#3cb878;stroke-width:3;stroke-linecap:round;stroke-linejoin:round;stroke-miterlimit:4;stroke-dasharray:none" />
    <path
       class="cls-1"
       d="m 78.838695,91.45559 0.07101,0.08348 0.06813,0.07964 3.232886,3.975475 A 4.1459856,4.1459856 0 0 1 75.779294,100.828 l -3.232886,-3.975471"
       id="path30"
       inkscape:connector-curvature="0"
       style="fill:none;stroke:#3cb878;stroke-width:3;stroke-linecap:round;stroke-linejoin:round;stroke-miterlimit:4;stroke-dasharray:none" />
    <path
       class="cls-1"
       d="m 85.409634,86.389404 3.23279,3.974996 a 4.145218,4.145218 0 1 1 -6.431325,5.230267 l -3.232886,-3.975475 -0.06813,-0.07964"
       id="path32"
       inkscape:connector-curvature="0"
       style="fill:none;stroke:#3cb878;stroke-width:3;stroke-linecap:round;stroke-linejoin:round;stroke-miterlimit:4;stroke-dasharray:none" />
    <line
       class="cls-1"
       x1="33.725033"
       y1="92.942535"
       x2="23.620199"
       y2="83.972939"
       id="line34"
       style="fill:none;stroke:#3cb878;stroke-width:3;stroke-linecap:round;stroke-linejoin:round;stroke-miterlimit:4;stroke-dasharray:none" />
    <path
       class="cls-1"
       d="m 48.882683,76.964407 8.755909,-1.536897 a 4.7512642,4.7512642 0 0 1 5.118769,2.656297 l 2.065508,4.396618 a 4.1452752,4.1452752 0 1 0 7.501597,-3.529768 l -3.840467,-8.16512 a 7.5595534,7.5595534 0 0 0 -6.807561,-4.313809 c -0.193732,0 -0.386888,0.0096 -0.580715,0.02399 L 51.839413,64.948074 39.971328,62.9624"
       id="path36"
       inkscape:connector-curvature="0"
       style="fill:none;stroke:#3cb878;stroke-width:3;stroke-linecap:round;stroke-linejoin:round;stroke-miterlimit:4;stroke-dasharray:none" />
    <path
       class="cls-1"
       d="M 79.885459,62.924592 68.418942,60.647984 a 13.407381,13.407381 0 0 0 -7.595729,0.701329 l -8.983416,3.598759 v 0"
       id="path38"
       inkscape:connector-curvature="0"
       style="fill:none;stroke:#3cb878;stroke-width:3;stroke-linecap:round;stroke-linejoin:round;stroke-miterlimit:4;stroke-dasharray:none" />
    <line
       class="cls-1"
       x1="96.319458"
       y1="83.972939"
       x2="88.642548"
       y2="90.364441"
       id="line40"
       style="fill:none;stroke:#3cb878;stroke-width:3;stroke-linecap:round;stroke-linejoin:round;stroke-miterlimit:4;stroke-dasharray:none" />
    <polyline
       transform="matrix(0.9595412,0,0,0.9595412,-0.00120907,28.196538)"
       class="cls-1"
       points="88.817 27.387 80.833 33.01 100.382 58.128 102.239 60.515 109.108 55.392"
       id="polyline42"
       style="fill:none;stroke:#3cb878;stroke-width:3.12649417;stroke-linecap:round;stroke-linejoin:round;stroke-miterlimit:4;stroke-dasharray:none" />
    <polyline
       transform="matrix(0.9595412,0,0,0.9595412,-0.00120907,28.196538)"
       class="cls-1"
       points="36.183 27.387 44.167 33.01 24.617 58.128 22.76 60.515 15.892 55.392"
       id="polyline44"
       style="fill:none;stroke:#3cb878;stroke-width:3.12649417;stroke-linecap:round;stroke-linejoin:round;stroke-miterlimit:4;stroke-dasharray:none" />
    <polyline
       transform="matrix(0.9595412,0,0,0.9595412,-0.00120907,28.196538)"
       class="cls-1"
       points="122.5 53.902 113.381 61.287 87.355 25.37 122.5 2.5"
       id="polyline46"
       style="fill:none;stroke:#3cb878;stroke-width:3.12649417;stroke-linecap:round;stroke-linejoin:round;stroke-miterlimit:4;stroke-dasharray:none" />
    <polyline
       transform="matrix(0.9595412,0,0,0.9595412,-0.00120907,28.196538)"
       class="cls-1"
       points="2.5 53.902 11.618 61.287 37.644 25.37 2.5 2.5"
       id="polyline48"
       style="fill:none;stroke:#3cb878;stroke-width:3.12649417;stroke-linecap:round;stroke-linejoin:round;stroke-miterlimit:4;stroke-dasharray:none" />
  </g>
</svg>
