<?xml version="1.0" encoding="UTF-8" standalone="no"?>
<svg
   xmlns:dc="http://purl.org/dc/elements/1.1/"
   xmlns:cc="http://creativecommons.org/ns#"
   xmlns:rdf="http://www.w3.org/1999/02/22-rdf-syntax-ns#"
   xmlns:svg="http://www.w3.org/2000/svg"
   xmlns="http://www.w3.org/2000/svg"
   xmlns:sodipodi="http://sodipodi.sourceforge.net/DTD/sodipodi-0.dtd"
   xmlns:inkscape="http://www.inkscape.org/namespaces/inkscape"
   viewBox="0 0 30.000001 30.000001"
   version="1.1"
   id="svg12"
   sodipodi:docname="ic_info_circle.svg"
   width="30"
   height="30"
   inkscape:version="0.92.4 (5da689c313, 2019-01-14)">
  <metadata
     id="metadata16">
    <rdf:RDF>
      <cc:Work
         rdf:about="">
        <dc:format>image/svg+xml</dc:format>
        <dc:type
           rdf:resource="http://purl.org/dc/dcmitype/StillImage" />
        <dc:title></dc:title>
      </cc:Work>
    </rdf:RDF>
  </metadata>
  <sodipodi:namedview
     pagecolor="#ffffff"
     bordercolor="#666666"
     borderopacity="1"
     objecttolerance="10"
     gridtolerance="10"
     guidetolerance="10"
     inkscape:pageopacity="0"
     inkscape:pageshadow="2"
     inkscape:window-width="1920"
     inkscape:window-height="1017"
     id="namedview14"
     showgrid="false"
     inkscape:zoom="10.021232"
     inkscape:cx="-0.64862286"
     inkscape:cy="11.775"
     inkscape:window-x="2992"
     inkscape:window-y="-8"
     inkscape:window-maximized="1"
     inkscape:current-layer="svg12" />
  <defs
     id="defs4">
    <style
       id="style2">.cls-1{fill:#f2eee8;}</style>
  </defs>
  <g
     id="Warstwa_2"
     data-name="Warstwa 2"
     transform="translate(3.2200042,3.2299958)"
     style="fill:#ffffff">
    <g
       id="Layer_3"
       data-name="Layer 3"
       style="fill:#ffffff">
      <path
         class="cls-1"
         d="M 11.75,8.27 A 1.08,1.08 0 0 1 11,8 0.94,0.94 0 0 1 10.69,7.26 0.92,0.92 0 0 1 11,6.56 a 1.08,1.08 0 0 1 1.42,0 0.93,0.93 0 0 1 0.31,0.74 0.91,0.91 0 0 1 -0.3,0.73 1,1 0 0 1 -0.68,0.24 z m 1,2.09 v 5.88 a 1.33,1.33 0 0 1 -0.29,0.92 1,1 0 0 1 -0.74,0.31 0.94,0.94 0 0 1 -0.73,-0.32 1.37,1.37 0 0 1 -0.28,-0.91 v -5.82 a 1.31,1.31 0 0 1 0.28,-0.9 0.93,0.93 0 0 1 0.73,-0.31 1,1 0 0 1 0.74,0.31 1.17,1.17 0 0 1 0.3,0.84 z"
         id="path6"
         inkscape:connector-curvature="0"
         style="fill:#ffffff" />
      <path
         class="cls-1"
         d="M 11.77,23.55 A 11.78,11.78 0 0 1 0,11.78 11.78,11.78 0 1 1 11.77,23.55 Z M 11.78,2 a 9.78,9.78 0 0 0 -6.92,16.69 9.79,9.79 0 0 0 13.83,0 A 9.78,9.78 0 0 0 11.78,2 Z"
         id="path8"
         inkscape:connector-curvature="0"
         style="fill:#ffffff" />
    </g>
  </g>
</svg>
