<?xml version="1.0" encoding="UTF-8" standalone="no"?>
<svg
   xmlns:dc="http://purl.org/dc/elements/1.1/"
   xmlns:cc="http://creativecommons.org/ns#"
   xmlns:rdf="http://www.w3.org/1999/02/22-rdf-syntax-ns#"
   xmlns:svg="http://www.w3.org/2000/svg"
   xmlns="http://www.w3.org/2000/svg"
   xmlns:sodipodi="http://sodipodi.sourceforge.net/DTD/sodipodi-0.dtd"
   xmlns:inkscape="http://www.inkscape.org/namespaces/inkscape"
   viewBox="0 0 30 30"
   version="1.1"
   id="svg12"
   sodipodi:docname="ic_map_pin.svg"
   inkscape:version="0.92.4 (5da689c313, 2019-01-14)"
   width="30"
   height="30">
  <metadata
     id="metadata16">
    <rdf:RDF>
      <cc:Work
         rdf:about="">
        <dc:format>image/svg+xml</dc:format>
        <dc:type
           rdf:resource="http://purl.org/dc/dcmitype/StillImage" />
        <dc:title></dc:title>
      </cc:Work>
    </rdf:RDF>
  </metadata>
  <sodipodi:namedview
     pagecolor="#ffffff"
     bordercolor="#666666"
     borderopacity="1"
     objecttolerance="10"
     gridtolerance="10"
     guidetolerance="10"
     inkscape:pageopacity="0"
     inkscape:pageshadow="2"
     inkscape:window-width="1920"
     inkscape:window-height="1017"
     id="namedview14"
     showgrid="false"
     inkscape:zoom="0.86019176"
     inkscape:cx="-420.63558"
     inkscape:cy="-59.628524"
     inkscape:window-x="2992"
     inkscape:window-y="-8"
     inkscape:window-maximized="1"
     inkscape:current-layer="svg12" />
  <defs
     id="defs4">
    <style
       id="style2">.cls-1{fill:#f2eee8;}</style>
    <style
       id="style819">.cls-1{fill:#f2eee8;}</style>
    <style
       id="style2-0">.cls-1{fill:#f2eee8;}</style>
    <style
       id="style857">.cls-1{fill:#f2eee8;}</style>
    <style
       id="style884">.cls-1{fill:#f2eee8;}</style>
  </defs>
  <g
     style="fill:#ffffff"
     data-name="Warstwa 2"
     id="Warstwa_2-1"
     transform="translate(4.75,2.88)">
    <g
       style="fill:#ffffff"
       data-name="Layer 3"
       id="Layer_3-9">
      <path
         style="fill:#ffffff"
         id="path6-2"
         d="M 10.25,24.25 A 1,1 0 0 1 9.6,24 C 8.6,23.16 0,15.66 0,10.24 a 10.25,10.25 0 0 1 20.5,0 c 0,5.42 -8.62,12.92 -9.6,13.76 a 1,1 0 0 1 -0.65,0.24 z M 10.25,2 A 8.26,8.26 0 0 0 2,10.25 C 2,13.76 7.46,19.4 10.25,21.92 13,19.4 18.5,13.76 18.5,10.25 A 8.26,8.26 0 0 0 10.25,2 Z"
         class="cls-1"
         inkscape:connector-curvature="0" />
      <path
         style="fill:#ffffff"
         id="path8-2"
         d="m 10.25,15.25 a 5,5 0 1 1 5,-5 5,5 0 0 1 -5,5 z m 0,-8 a 3,3 0 1 0 3,3 3,3 0 0 0 -3,-3 z"
         class="cls-1"
         inkscape:connector-curvature="0" />
    </g>
  </g>
</svg>
