<?xml version="1.0" encoding="UTF-8" standalone="no"?>
<svg
   xmlns:dc="http://purl.org/dc/elements/1.1/"
   xmlns:cc="http://creativecommons.org/ns#"
   xmlns:rdf="http://www.w3.org/1999/02/22-rdf-syntax-ns#"
   xmlns:svg="http://www.w3.org/2000/svg"
   xmlns="http://www.w3.org/2000/svg"
   xmlns:sodipodi="http://sodipodi.sourceforge.net/DTD/sodipodi-0.dtd"
   xmlns:inkscape="http://www.inkscape.org/namespaces/inkscape"
   viewBox="0 0 30 29.999999"
   version="1.1"
   id="svg16"
   sodipodi:docname="ic_phone.svg"
   width="30"
   height="30"
   inkscape:version="0.92.4 (5da689c313, 2019-01-14)">
  <metadata
     id="metadata20">
    <rdf:RDF>
      <cc:Work
         rdf:about="">
        <dc:format>image/svg+xml</dc:format>
        <dc:type
           rdf:resource="http://purl.org/dc/dcmitype/StillImage" />
        <dc:title></dc:title>
      </cc:Work>
    </rdf:RDF>
  </metadata>
  <sodipodi:namedview
     pagecolor="#ffffff"
     bordercolor="#666666"
     borderopacity="1"
     objecttolerance="10"
     gridtolerance="10"
     guidetolerance="10"
     inkscape:pageopacity="0"
     inkscape:pageshadow="2"
     inkscape:window-width="1920"
     inkscape:window-height="1017"
     id="namedview18"
     showgrid="false"
     inkscape:zoom="9.9201341"
     inkscape:cx="-0.72023361"
     inkscape:cy="11.895"
     inkscape:window-x="2992"
     inkscape:window-y="-8"
     inkscape:window-maximized="1"
     inkscape:current-layer="svg16" />
  <defs
     id="defs4">
    <style
       id="style2">.cls-1{fill:#f2eee8;}</style>
  </defs>
  <g
     id="Warstwa_2"
     data-name="Warstwa 2"
     transform="translate(3.17,3.105)"
     style="fill:#ffffff">
    <g
       id="Layer_3"
       data-name="Layer 3"
       style="fill:#ffffff">
      <path
         class="cls-1"
         d="M 18.33,23.79 A 18.21,18.21 0 0 1 5.7,18.16 L 5.62,18.09 A 18.09,18.09 0 0 1 0,5.13 V 4.79 L 0.21,4.53 a 11.87,11.87 0 0 1 1,-1.1 12.2,12.2 0 0 1 4.22,-2.76 1.88,1.88 0 0 1 0.65,-0.11 c 0.54,0 1.75,0.27 2.06,1.12 0.54,1.51 1.23,3.49 1.74,5.39 A 2.42,2.42 0 0 1 9.13,9.35 l -1.76,1.12 a 1.31,1.31 0 0 0 0.24,0.61 24.56,24.56 0 0 0 2.39,2.76 24.48,24.48 0 0 0 2.74,2.34 1,1 0 0 0 0.56,0.21 h 0.1 l 1.07,-1.73 a 2.39,2.39 0 0 1 1.86,-0.78 1.48,1.48 0 0 1 0.38,0 25,25 0 0 1 5.5,1.77 2.37,2.37 0 0 1 0.93,2.69 12.08,12.08 0 0 1 -2.75,4.23 11.68,11.68 0 0 1 -1.11,1 l -0.26,0.21 z M 2,5.51 a 16.46,16.46 0 0 0 5,11.17 l 0.1,0.1 a 16.26,16.26 0 0 0 11.14,5 c 0.24,-0.2 0.46,-0.4 0.67,-0.6 a 10.3,10.3 0 0 0 2.3,-3.55 c 0,0 -0.05,-0.13 -0.09,-0.23 a 23.11,23.11 0 0 0 -4.91,-1.55 0.86,0.86 0 0 0 -0.24,0.05 l -1,1.58 a 2.45,2.45 0 0 1 -3.48,0.3 25.45,25.45 0 0 1 -3,-2.54 26.84,26.84 0 0 1 -2.56,-3 A 2.82,2.82 0 0 1 5.38,10.06 1.92,1.92 0 0 1 6.3,8.78 l 1.59,-1 a 1.6,1.6 0 0 0 0,-0.27 C 7.49,5.85 6.86,4.05 6.35,2.62 A 0.74,0.74 0 0 0 6.08,2.56 10.22,10.22 0 0 0 2.6,4.85 Q 2.3,5.15 2,5.51 Z"
         id="path6"
         inkscape:connector-curvature="0"
         style="fill:#ffffff" />
      <path
         class="cls-1"
         d="m 22.66,12.67 a 1,1 0 0 1 -1,-1 A 9.68,9.68 0 0 0 12,2 a 1,1 0 0 1 0,-2 11.67,11.67 0 0 1 11.66,11.67 1,1 0 0 1 -1,1 z"
         id="path8"
         inkscape:connector-curvature="0"
         style="fill:#ffffff" />
      <path
         class="cls-1"
         d="m 19.53,12.67 a 1,1 0 0 1 -1,-1 6.54,6.54 0 0 0 -6.53,-6.54 1,1 0 0 1 0,-2 8.55,8.55 0 0 1 8.54,8.54 1,1 0 0 1 -1,1 z"
         id="path10"
         inkscape:connector-curvature="0"
         style="fill:#ffffff" />
      <path
         class="cls-1"
         d="m 16.23,12.67 a 1,1 0 0 1 -1,-1 3.24,3.24 0 0 0 -3.23,-3.24 1,1 0 0 1 0,-2 5.25,5.25 0 0 1 5.24,5.24 1,1 0 0 1 -1,1 z"
         id="path12"
         inkscape:connector-curvature="0"
         style="fill:#ffffff" />
    </g>
  </g>
</svg>
