<svg xmlns="http://www.w3.org/2000/svg" viewBox="0 0 120 120.0163"><defs><style>.cls-1{fill:#3cb878;}</style></defs><g id="Warstwa_2" data-name="Warstwa 2"><g id="Layer_3" data-name="Layer 3"><path class="cls-1" d="M94.6807,120.0163c-23.0062,0-46.7893-10.5951-65.2553-29.0606l-.373-.3937.01-.0051C9.9008,71.2488-.5429,46.9965.0218,23.6018l.0408-1.7255L1.132,20.5242a63.8521,63.8521,0,0,1,4.9948-5.671A63.0651,63.0651,0,0,1,28.033.5905,9.3017,9.3017,0,0,1,31.4036,0c2.7846,0,9.041,1.4176,10.6452,5.8023,2.8151,7.8352,6.3773,18.0516,8.97,27.8243.7166,2.7448.01,9.3743-3.8241,11.79l-9.132,5.792a6.8716,6.8716,0,0,0,1.2312,3.1282,128.7616,128.7616,0,0,0,12.1992,14.288A127.2361,127.2361,0,0,0,65.6806,80.7088a5.1623,5.1623,0,0,0,2.8559,1.0849l3.1582-4.41,2.9158-4.5862c2.5228-3.9248,8.87-4.0359,9.5763-4.0359a9.0659,9.0659,0,0,1,2.0077.202c12.0282,2.6839,19.1923,4.9943,28.3744,9.1568,4.0866,1.8418,6.66,9.243,4.8337,13.89a62.7722,62.7722,0,0,1-14.2276,21.8711,64.1555,64.1555,0,0,1-5.7015,5.02l-1.3417,1.0544-3.4511.0605ZM10.3343,25.5743c.0811,19.9539,9.7271,41.4014,26.0336,57.7125l.4944.5048c16.3468,16.3415,37.3752,25.8161,57.5865,25.892,1.2006-1.0038,2.3511-2.0484,3.43-3.1179a52.6478,52.6478,0,0,0,11.8969-18.3042c-.05-.04-.252-.6712-.4742-1.1754-7.9918-3.5622-14.5608-5.6308-25.3677-8.0424a10.7687,10.7687,0,0,0-1.2105.2573L77.5269,87.49c-3.2191,5.2268-11.7859,6.0746-17.9411,1.5639A137.2752,137.2752,0,0,1,44.1881,75.931,140.5364,140.5364,0,0,1,30.95,60.432a14.63,14.63,0,0,1-2.8359-11.3013,9.9556,9.9556,0,0,1,4.46-6.6749l8.1633-5.1813a5.5168,5.5168,0,0,0,.2119-1.428c-2.27-8.4557-5.4892-17.79-8.1432-25.2163a4.6718,4.6718,0,0,0-1.4021-.2976A52.8318,52.8318,0,0,0,13.4423,22.1537c-1.0493,1.0545-2.0783,2.18-3.108,3.4206Z"/></g></g></svg>