<?xml version="1.0" encoding="UTF-8" standalone="no"?>
<svg
   xmlns:dc="http://purl.org/dc/elements/1.1/"
   xmlns:cc="http://creativecommons.org/ns#"
   xmlns:rdf="http://www.w3.org/1999/02/22-rdf-syntax-ns#"
   xmlns:svg="http://www.w3.org/2000/svg"
   xmlns="http://www.w3.org/2000/svg"
   xmlns:sodipodi="http://sodipodi.sourceforge.net/DTD/sodipodi-0.dtd"
   xmlns:inkscape="http://www.inkscape.org/namespaces/inkscape"
   id="Ñëîé_1"
   data-name="Ñëîé 1"
   viewBox="0 0 120 120"
   version="1.1"
   sodipodi:docname="ic_worker.svg"
   width="120"
   height="120"
   inkscape:version="0.92.4 (5da689c313, 2019-01-14)">
  <metadata
     id="metadata11">
    <rdf:RDF>
      <cc:Work
         rdf:about="">
        <dc:format>image/svg+xml</dc:format>
        <dc:type
           rdf:resource="http://purl.org/dc/dcmitype/StillImage" />
        <dc:title></dc:title>
      </cc:Work>
    </rdf:RDF>
  </metadata>
  <sodipodi:namedview
     pagecolor="#ffffff"
     bordercolor="#666666"
     borderopacity="1"
     objecttolerance="10"
     gridtolerance="10"
     guidetolerance="10"
     inkscape:pageopacity="0"
     inkscape:pageshadow="2"
     inkscape:window-width="1920"
     inkscape:window-height="1017"
     id="namedview9"
     showgrid="false"
     inkscape:zoom="1.9660113"
     inkscape:cx="-16.869186"
     inkscape:cy="60.02"
     inkscape:window-x="2992"
     inkscape:window-y="-8"
     inkscape:window-maximized="1"
     inkscape:current-layer="Ñëîé_1" />
  <defs
     id="defs4">
    <style
       id="style2">.cls-1{fill:#3cb878;stroke:#3cb878;stroke-linecap:round;stroke-linejoin:round;stroke-width:0.04px;fill-rule:evenodd;}</style>
  </defs>
  <path
     class="cls-1"
     d="m 83.323956,34.702 a 73.044451,73.044451 0 0 0 -7.778907,-0.980373 c -0.03999,0.0032 -0.07608,0.0032 -0.116361,0.0032 a 1.3395535,1.3395535 0 0 1 -0.302899,-0.03509 c -4.628457,-0.36188 -10.078041,-0.54202 -15.533922,-0.529324 -8.907731,0.02229 -17.765978,0.564412 -22.971643,1.667744 a 14.63832,14.63832 0 0 0 1.544985,0.832223 145.89397,145.89397 0 0 0 21.498434,1.55948 152.42469,152.42469 0 0 0 22.123425,-1.686838 L 83.323956,34.7022 Z M 76.576705,7.3905048 V 31.519461 a 60.160946,60.160946 0 0 1 8.735588,1.283472 V 32.672177 C 85.529521,21.89267 85.718858,12.031457 76.576705,7.3906047 Z M 74.276072,31.339521 V 5.2482189 C 73.539917,4.9771092 72.756578,4.7251932 71.916858,4.4984688 71.189801,4.3039336 70.41176,4.1269926 69.598631,3.9686454 V 31.068611 c 1.613862,0.07178 3.182339,0.162646 4.677841,0.27101 z M 67.297498,30.98244 V 2.6952699 Q 65.915259,2.5396217 64.405362,2.4417544 62.303163,2.3125974 60.017625,2.3110979 c -1.524192,0 -2.983006,0.039987 -4.389237,0.1306565 q -1.511496,0.08857 -2.887438,0.2440186 v 28.309463 c 2.241753,-0.07647 4.545585,-0.116361 6.851017,-0.125958 2.589137,-0.0047 5.18827,0.03189 7.705531,0.113262 z M 50.440317,31.086106 V 3.9467527 C 49.612893,4.0999016 48.840851,4.2721442 48.107795,4.461881 47.285069,4.6787087 46.50383,4.9226274 45.757678,5.1936371 V 31.37151 c 1.5003,-0.11796 3.073976,-0.20903 4.682639,-0.285304 z m -6.978573,0.474941 V 7.3221275 C 34.310094,11.87411 34.491934,21.599668 34.694666,32.373776 l 0.01,0.556615 a 58.076341,58.076341 0 0 1 8.75778,-1.369544 z m -6.281706,6.168744 0.01,1.297767 c 0,0.505232 0.008,0.943886 0.02239,1.340853 a 1.2246918,1.2246918 0 0 1 -0.0144,0.322093 v 0.03999 a 29.695201,29.695201 0 0 0 1.871676,10.087537 35.12969,35.12969 0 0 0 5.291336,9.523126 q 0.942286,1.193202 1.963045,2.273542 l 0.0028,0.0032 0.0143,0.0144 0.04468,0.04458 a 25.789703,25.789703 0 0 0 5.599433,4.488504 16.043052,16.043052 0 0 0 8.022826,2.359214 16.026158,16.026158 0 0 0 8.018027,-2.359214 27.581806,27.581806 0 0 0 7.624259,-6.823925 35.270443,35.270443 0 0 0 5.291736,-9.523126 29.631423,29.631423 0 0 0 1.874975,-10.087837 v -0.05408 a 1.2067977,1.2067977 0 0 1 -0.02239,-0.253516 c 0.01439,-0.247117 0.02239,-0.468743 0.02239,-0.668077 v -0.03189 c 0,-0.113163 0.0048,-0.342786 0.0048,-0.695169 0,-0.226324 0.0047,-0.741353 0.0143,-1.455814 l -0.09997,0.05438 a 1.055948,1.055948 0 0 1 -0.41926,0.14825 154.46391,154.46391 0 0 1 -22.652449,1.731523 147.27151,147.27151 0 0 1 -21.968777,-1.595968 v 0 a 1.152116,1.152116 0 0 1 -0.279007,-0.07647 L 37.180837,37.729991 Z M 47.533786,2.2425208 c 0.923192,-0.2391203 1.894069,-0.4512496 2.91133,-0.6281906 a 1.1388204,1.1388204 0 0 1 0.993269,-1.07454182 q 1.920459,-0.25831389 4.059247,-0.3890703 2.102199,-0.12915695 4.519993,-0.13075642 c 1.616761,0 3.121859,0.04468511 4.52849,0.13555482 q 2.094902,0.12915695 3.976275,0.37927357 a 1.1536155,1.1536155 0 0 1 1.076141,1.10183275 c 1.021959,0.1817394 1.997734,0.3985671 2.91133,0.6425858 a 26.855448,26.855448 0 0 1 3.288903,1.1032322 1.1473176,1.1473176 0 0 1 0.778041,1.089037 V 4.8604481 C 88.056278,9.8762761 87.839451,20.772244 87.603129,32.717162 l -0.03189,1.568877 v 0.02709 0 0.05898 0 c 0,0.03669 0,0.07658 -0.0031,0.12116 l -0.0048,0.01919 v 0 0.01749 l -0.0048,0.01 -0.0044,0.008 -0.0132,0.07807 v 0 l -0.0095,0.01759 v 0.01 l -0.0048,0.008 -0.01759,0.05898 v 0.01759 h -0.0045 l -0.01,0.01909 v 0.008 l -0.0044,0.01 -0.03069,0.07148 -0.01,0.01939 -0.0047,0.0047 -0.0048,0.0128 c -0.02239,0.03669 -0.03999,0.06858 -0.06178,0.103665 l -0.0052,0.0048 -0.01,0.01409 -0.01,0.013 v 0 l -0.0127,0.01429 v 0.008 l -0.0144,0.01 -0.03509,0.04458 -0.0047,0.01 -0.01,0.01 -0.01279,0.0079 v 0.0048 l -0.0139,0.0144 -0.0052,0.0048 -0.008,0.0079 -0.01,0.01 -0.0047,0.0048 -0.01759,0.01749 v 0 l -0.0143,0.01 -0.0044,0.008 -0.0084,0.0048 -0.0144,0.01429 h -0.0047 l -0.01759,0.01759 v 0 l -0.0127,0.01 -0.0048,0.0048 -0.0144,0.008 -0.008,0.01 h -0.0047 l -0.01919,0.0127 v 0 l -0.01749,0.0144 -0.0048,0.0048 -0.01239,0.0046 -0.01,0.0081 h -0.01 l -0.01749,0.0144 v 0 l -0.01759,0.0079 -0.01909,0.0144 -0.01279,0.0048 -0.02229,0.0127 -1.7985,0.967778 -0.01,0.994768 c -0.0048,0.279207 -0.0048,0.80853 -0.0048,1.694935 0,0.130756 -0.0048,0.382672 -0.0128,0.74975 l -0.01909,0.56901 a 1.0412529,1.0412529 0 0 1 0.02229,0.209031 v 0 0.175441 A 32.041819,32.041819 0 0 1 83.09427,51.605524 37.235588,37.235588 0 0 1 77.450152,61.764837 c -0.601,0.768444 -1.233989,1.504998 -1.884472,2.204965 0.05738,0.687171 0.111563,1.492203 0.170943,2.386805 a 76.963045,76.963045 0 0 0 0.871709,8.671509 l 3.896702,2.4013 c 7.582772,1.594368 14.258347,4.158613 18.904298,7.664145 4.389338,3.308297 7.010468,7.453615 7.010468,12.437654 h -0.005 l -0.005,15.556215 a 6.8624125,6.8624125 0 0 1 -2.01523,4.86758 l -0.005,0.005 a 6.8906031,6.8906031 0 0 1 -4.86838,2.02003 H 20.475806 a 6.9131955,6.9131955 0 0 1 -6.895601,-6.902 V 97.526558 c 0,-4.981039 2.626324,-9.110363 7.013562,-12.400966 4.658447,-3.498034 11.349116,-6.042686 18.950682,-7.633855 l 3.917295,-2.557348 a 76.586671,76.586671 0 0 0 0.750949,-8.7005 c 0.04998,-0.926291 0.09407,-1.761712 0.135555,-2.377107 -0.622992,-0.668077 -1.216494,-1.369544 -1.790503,-2.096601 A 37.46911,37.46911 0 0 1 36.913726,51.600867 31.947751,31.947751 0 0 1 34.898498,40.730491 v -0.175442 a 1.1067311,1.1067311 0 0 1 0.02229,-0.221526 c -0.02229,-0.47984 -0.02709,-0.923192 -0.02709,-1.305865 0,-0.896001 -0.0048,-1.366344 -0.01,-1.613462 l -0.01,-0.95838 a 14.852449,14.852449 0 0 0 -1.670843,-0.895902 1.1560147,1.1560147 0 0 1 -0.696767,-0.69037 1.1269243,1.1269243 0 0 1 -0.06698,-0.452749 l -0.03669,-2.005731 C 32.181304,20.461347 31.976772,9.7186287 43.460944,4.7966694 v -0.3889704 0 a 1.148917,1.148917 0 0 1 0.714362,-1.061846 26.983105,26.983105 0 0 1 3.35768,-1.1033322 z m 25.883472,63.8160272 0.03189,0.441653 c 0.199233,2.869843 0.452749,6.625991 0.859713,8.700399 L 60.138884,83.290404 45.767275,75.08314 a 86.90703,86.90703 0 0 0 0.736555,-8.73069 l 0.01759,-0.357181 a 26.6986,26.6986 0 0 0 4.315861,3.153649 18.305498,18.305498 0 0 0 9.170843,2.676907 18.308397,18.308397 0 0 0 9.169144,-2.676907 26.30933,26.30933 0 0 0 4.239986,-3.09037 z M 44.4933,76.994303 l -2.667311,1.745818 13.26028,12.662479 0.953482,-1.729924 0.01749,-0.02709 0.01,-0.02389 0.0147,-0.02229 2.507564,-4.555182 z m -5.324625,2.920926 c -6.937088,1.532089 -12.987671,3.882206 -17.200067,7.040653 -3.805731,2.855548 -6.08887,6.385471 -6.08887,10.570676 v 15.551422 a 4.6162612,4.6162612 0 0 0 4.596568,4.60136 h 36.250616 l -1.997734,-3.55231 -0.02239,-0.0416 c -1.261079,-2.29593 -2.350016,-4.22509 -3.372076,-6.02339 l -0.03189,-0.0637 C 46.255112,99.063546 42.793766,92.926792 39.168675,79.915229 Z m 24.098767,37.764111 h 36.253815 a 4.6084638,4.6084638 0 0 0 4.606163,-4.59656 V 97.526558 h -0.005 c 0,-4.185205 -2.28274,-7.732722 -6.08727,-10.607364 C 93.818056,83.743253 87.77537,81.374043 80.84628,79.841553 77.209492,92.934489 73.733751,99.075942 68.657343,108.05705 l -0.0032,0.005 0.0032,0.005 c -0.953082,1.67574 -1.965845,3.47094 -3.158447,5.63132 l -0.0048,0.0128 v 0 l -0.008,0.0175 -0.01,0.01 -0.01,0.0143 -2.200267,3.92699 z m 14.995001,-38.944018 -2.653016,-1.640553 -13.920359,7.94945 2.509163,4.555182 0.03999,0.08127 0.945485,1.713928 13.07824,-12.65928 z m -36.002799,3.587204 c 3.254116,10.77001 6.485838,16.506498 11.036321,24.550124 l 0.03659,0.054 c 0.561313,0.99966 1.148018,2.03462 1.73942,3.08687 l 0.516528,-3.81873 c 0.532523,-3.92209 1.067045,-7.850584 1.62146,-12.415263 l 0.0048,-0.03999 a 0.62689103,0.62689103 0 0 0 -0.01709,-0.243919 1.2237921,1.2237921 0 0 0 -0.140753,-0.325292 1.3127624,1.3127624 0 0 1 -0.09567,-0.181339 l -0.05418,-0.135555 -0.527724,0.958281 v 0 a 1.0254582,1.0254582 0 0 1 -0.176941,0.23912 1.1425192,1.1425192 0 0 1 -1.618361,0.04129 z m 22.89187,27.294004 c 0.50983,-0.91359 1.01726,-1.81299 1.513095,-2.6849 v 0 C 71.212093,98.891003 74.443516,93.173809 77.688035,82.477175 L 65.70313,94.082706 a 1.1388204,1.1388204 0 0 1 -1.617861,-0.02249 1.0517494,1.0517494 0 0 1 -0.184838,-0.248517 v 0 l -0.529824,-0.953483 -0.05418,0.130757 v -0.0048 c -0.02229,0.05108 -0.04429,0.09567 -0.07178,0.145152 a 1.4223259,1.4223259 0 0 0 -0.163845,0.366678 0.58660446,0.58660446 0 0 0 -0.01789,0.248717 c 0.551616,4.567877 1.084138,8.49637 1.623059,12.42326 l 0.465545,3.44885 z m -3.204632,-19.347552 -1.807998,-3.276408 -1.808097,3.276408 0.732256,1.793702 a 3.698767,3.698767 0 0 1 0.353582,0.83972 2.8990336,2.8990336 0 0 1 0.07688,1.116028 v 0.03189 c -0.529824,4.357448 -1.08134,8.407202 -1.632956,12.447252 -0.310996,2.30863 -0.628191,4.61846 -0.921593,6.87331 v 0 l 2.418694,4.30796 h 1.278674 l 2.648217,-4.71932 v -0.003 c -0.275808,-2.1062 -0.578807,-4.29857 -0.872109,-6.48114 -0.551717,-4.05445 -1.103333,-8.104102 -1.631057,-12.45995 a 2.8998334,2.8998334 0 0 1 0.08127,-1.112829 3.8049317,3.8049317 0 0 1 0.347584,-0.83972 z"
     id="path6"
     inkscape:connector-curvature="0"
     style="fill:#3cb878;fill-rule:evenodd;stroke:#3cb878;stroke-width:0.03998667px;stroke-linecap:round;stroke-linejoin:round" />
</svg>
