<?xml version="1.0" encoding="UTF-8" standalone="no"?>
<!-- Generator: Adobe Illustrator 24.0.2, SVG Export Plug-In . SVG Version: 6.00 Build 0)  -->

<svg
   xmlns:dc="http://purl.org/dc/elements/1.1/"
   xmlns:cc="http://creativecommons.org/ns#"
   xmlns:rdf="http://www.w3.org/1999/02/22-rdf-syntax-ns#"
   xmlns:svg="http://www.w3.org/2000/svg"
   xmlns="http://www.w3.org/2000/svg"
   xmlns:sodipodi="http://sodipodi.sourceforge.net/DTD/sodipodi-0.dtd"
   xmlns:inkscape="http://www.inkscape.org/namespaces/inkscape"
   version="1.0"
   id="Layer_1"
   x="0px"
   y="0px"
   viewBox="0 0 340 84"
   enable-background="new 0 0 1920 540"
   xml:space="preserve"
   sodipodi:docname="logo.svg"
   width="340"
   height="84"
   inkscape:version="0.92.4 (5da689c313, 2019-01-14)"><metadata
   id="metadata159"><rdf:RDF><cc:Work
       rdf:about=""><dc:format>image/svg+xml</dc:format><dc:type
         rdf:resource="http://purl.org/dc/dcmitype/StillImage" /><dc:title></dc:title></cc:Work></rdf:RDF></metadata><defs
   id="defs157" /><sodipodi:namedview
   pagecolor="#ffffff"
   bordercolor="#666666"
   borderopacity="1"
   objecttolerance="10"
   gridtolerance="10"
   guidetolerance="10"
   inkscape:pageopacity="0"
   inkscape:pageshadow="2"
   inkscape:window-width="1920"
   inkscape:window-height="1017"
   id="namedview155"
   showgrid="false"
   scale-x="1"
   inkscape:zoom="0.74791667"
   inkscape:cx="584.20382"
   inkscape:cy="146.67639"
   inkscape:window-x="2992"
   inkscape:window-y="-8"
   inkscape:window-maximized="1"
   inkscape:current-layer="Layer_1"
   viewbox-height="64" />
<g
   id="g152"
   transform="matrix(0.18842372,0,0,0.18842372,-10.886779,-8.8744044)">
	<g
   id="g110">
		<g
   id="g46">
			<path
   d="m 769.28,193.53 h 9.83 v 5.5 c 3.52,-4.28 7.71,-6.41 12.56,-6.41 2.58,0 4.82,0.53 6.72,1.59 1.9,1.06 3.45,2.67 4.67,4.82 1.77,-2.15 3.68,-3.76 5.73,-4.82 2.05,-1.06 4.24,-1.59 6.57,-1.59 2.96,0 5.47,0.6 7.52,1.8 2.05,1.2 3.58,2.97 4.59,5.3 0.73,1.72 1.1,4.5 1.1,8.35 v 25.77 H 817.9 V 210.8 c 0,-4 -0.37,-6.58 -1.1,-7.74 -0.99,-1.52 -2.51,-2.28 -4.55,-2.28 -1.49,0 -2.9,0.46 -4.21,1.37 -1.32,0.91 -2.26,2.25 -2.85,4 -0.58,1.76 -0.87,4.54 -0.87,8.33 v 19.36 h -10.67 v -22.09 c 0,-3.92 -0.19,-6.45 -0.57,-7.59 -0.38,-1.14 -0.97,-1.99 -1.77,-2.54 -0.8,-0.56 -1.88,-0.84 -3.25,-0.84 -1.65,0 -3.13,0.44 -4.44,1.33 -1.32,0.89 -2.26,2.16 -2.83,3.83 -0.57,1.67 -0.85,4.44 -0.85,8.31 v 19.59 h -10.67 v -40.31 z"
   id="path2"
   inkscape:connector-curvature="0" />
			<path
   d="m 838.21,236.5 12.18,1.48 c 0.2,1.42 0.67,2.39 1.4,2.92 1.01,0.76 2.61,1.14 4.78,1.14 2.78,0 4.87,-0.42 6.26,-1.25 0.94,-0.56 1.64,-1.46 2.13,-2.7 0.33,-0.89 0.49,-2.52 0.49,-4.9 v -5.88 c -3.19,4.35 -7.21,6.53 -12.07,6.53 -5.42,0 -9.7,-2.29 -12.87,-6.87 -2.48,-3.62 -3.72,-8.12 -3.72,-13.51 0,-6.76 1.63,-11.92 4.88,-15.49 3.25,-3.57 7.29,-5.35 12.13,-5.35 4.99,0 9.1,2.19 12.34,6.57 v -5.66 h 9.98 v 36.17 c 0,4.76 -0.39,8.31 -1.18,10.67 -0.78,2.35 -1.89,4.2 -3.3,5.54 -1.42,1.34 -3.31,2.39 -5.67,3.15 -2.37,0.76 -5.36,1.14 -8.98,1.14 -6.83,0 -11.68,-1.17 -14.54,-3.51 -2.86,-2.34 -4.29,-5.31 -4.29,-8.9 0.02,-0.36 0.03,-0.79 0.05,-1.29 z m 9.53,-23.65 c 0,4.28 0.83,7.41 2.49,9.39 1.66,1.99 3.7,2.98 6.13,2.98 2.61,0 4.81,-1.02 6.6,-3.06 1.8,-2.04 2.7,-5.05 2.7,-9.05 0,-4.18 -0.86,-7.28 -2.58,-9.3 -1.72,-2.02 -3.9,-3.04 -6.53,-3.04 -2.56,0 -4.66,0.99 -6.32,2.98 -1.66,2 -2.49,5.03 -2.49,9.1 z"
   id="path4"
   inkscape:connector-curvature="0" />
			<path
   d="m 896.9,233.84 h -10.67 v -40.31 h 9.91 v 5.73 c 1.7,-2.71 3.22,-4.49 4.57,-5.35 1.35,-0.86 2.89,-1.29 4.61,-1.29 2.43,0 4.77,0.67 7.02,2.01 l -3.3,9.3 c -1.8,-1.16 -3.47,-1.75 -5.01,-1.75 -1.49,0 -2.76,0.41 -3.8,1.23 -1.04,0.82 -1.85,2.31 -2.45,4.46 -0.59,2.15 -0.89,6.66 -0.89,13.51 v 12.46 z"
   id="path6"
   inkscape:connector-curvature="0" />
			<path
   d="m 938.63,188.06 v -9.87 h 10.67 v 9.87 z m 0,45.78 v -40.31 h 10.67 v 40.31 z"
   id="path8"
   inkscape:connector-curvature="0" />
			<path
   d="m 996.9,233.84 h -10.67 v -20.57 c 0,-4.35 -0.23,-7.17 -0.68,-8.45 -0.46,-1.28 -1.2,-2.27 -2.22,-2.98 -1.02,-0.71 -2.26,-1.06 -3.7,-1.06 -1.85,0 -3.51,0.51 -4.97,1.52 -1.47,1.01 -2.47,2.35 -3.02,4.02 -0.54,1.67 -0.82,4.76 -0.82,9.26 v 18.26 h -10.67 v -40.31 h 9.91 v 5.92 c 3.52,-4.55 7.95,-6.83 13.29,-6.83 2.35,0 4.5,0.42 6.45,1.27 1.95,0.85 3.42,1.93 4.42,3.25 1,1.32 1.7,2.81 2.09,4.48 0.39,1.67 0.59,4.06 0.59,7.17 z"
   id="path10"
   inkscape:connector-curvature="0" />
			<path
   d="m 1003.43,233.84 v -8.31 l 15.11,-17.35 c 2.48,-2.83 4.31,-4.85 5.5,-6.04 -1.24,0.08 -2.87,0.13 -4.9,0.15 l -14.23,0.08 v -8.84 h 33.33 v 7.55 l -15.41,17.76 -5.43,5.88 c 2.96,-0.18 4.8,-0.27 5.5,-0.27 h 16.51 v 9.38 h -35.98 z m 12.37,-46.5 v -10.1 h 10.48 v 10.1 z"
   id="path12"
   inkscape:connector-curvature="0" />
			<path
   d="m 1046.58,233.84 v -10.67 h 10.67 v 10.67 z"
   id="path14"
   inkscape:connector-curvature="0" />
			<path
   d="m 1090.16,233.84 v -55.65 h 18.03 c 6.83,0 11.29,0.28 13.36,0.84 3.19,0.84 5.86,2.65 8.01,5.45 2.15,2.8 3.23,6.41 3.23,10.84 0,3.42 -0.62,6.29 -1.86,8.62 -1.24,2.33 -2.82,4.16 -4.73,5.48 -1.91,1.33 -3.85,2.21 -5.83,2.64 -2.68,0.53 -6.57,0.8 -11.65,0.8 h -7.33 v 20.99 h -11.23 z m 11.24,-46.23 v 15.79 h 6.15 c 4.43,0 7.39,-0.29 8.88,-0.87 1.49,-0.58 2.66,-1.49 3.51,-2.73 0.85,-1.24 1.27,-2.68 1.27,-4.33 0,-2.02 -0.59,-3.69 -1.78,-5.01 -1.19,-1.32 -2.69,-2.14 -4.52,-2.47 -1.34,-0.25 -4.04,-0.38 -8.09,-0.38 z"
   id="path16"
   inkscape:connector-curvature="0" />
			<path
   d="m 1152.15,233.84 h -10.67 v -40.31 h 9.91 v 5.73 c 1.7,-2.71 3.22,-4.49 4.57,-5.35 1.35,-0.86 2.89,-1.29 4.61,-1.29 2.43,0 4.77,0.67 7.02,2.01 l -3.3,9.3 c -1.8,-1.16 -3.47,-1.75 -5.01,-1.75 -1.49,0 -2.76,0.41 -3.8,1.23 -1.04,0.82 -1.85,2.31 -2.45,4.46 -0.59,2.15 -0.89,6.66 -0.89,13.51 v 12.46 z"
   id="path18"
   inkscape:connector-curvature="0" />
			<path
   d="m 1167.9,233.84 v -8.31 l 15.11,-17.35 c 2.48,-2.83 4.31,-4.85 5.5,-6.04 -1.24,0.08 -2.87,0.13 -4.9,0.15 l -14.23,0.08 v -8.84 h 33.33 v 7.55 l -15.41,17.76 -5.43,5.88 c 2.96,-0.18 4.8,-0.27 5.5,-0.27 h 16.51 v 9.38 h -35.98 z"
   id="path20"
   inkscape:connector-curvature="0" />
			<path
   d="m 1234.4,221.01 10.63,1.78 c -1.37,3.9 -3.52,6.86 -6.47,8.9 -2.95,2.04 -6.64,3.06 -11.06,3.06 -7.01,0 -12.2,-2.29 -15.56,-6.87 -2.66,-3.67 -3.99,-8.3 -3.99,-13.89 0,-6.68 1.75,-11.91 5.24,-15.7 3.49,-3.78 7.91,-5.67 13.25,-5.67 6,0 10.73,1.98 14.2,5.94 3.47,3.96 5.12,10.03 4.97,18.2 h -26.72 c 0.08,3.16 0.94,5.62 2.58,7.38 1.64,1.76 3.69,2.64 6.15,2.64 1.67,0 3.07,-0.46 4.21,-1.37 1.13,-0.91 1.99,-2.37 2.57,-4.4 z m 0.61,-10.78 c -0.08,-3.09 -0.87,-5.43 -2.39,-7.04 -1.52,-1.61 -3.37,-2.41 -5.54,-2.41 -2.33,0 -4.25,0.85 -5.77,2.54 -1.52,1.7 -2.27,4 -2.24,6.91 z"
   id="path22"
   inkscape:connector-curvature="0" />
			<path
   d="m 1253.5,193.53 h 9.83 v 5.5 c 3.52,-4.28 7.71,-6.41 12.56,-6.41 2.58,0 4.82,0.53 6.72,1.59 1.9,1.06 3.45,2.67 4.67,4.82 1.77,-2.15 3.68,-3.76 5.73,-4.82 2.05,-1.06 4.24,-1.59 6.57,-1.59 2.96,0 5.47,0.6 7.52,1.8 2.05,1.2 3.58,2.97 4.59,5.3 0.73,1.72 1.1,4.5 1.1,8.35 v 25.77 h -10.67 V 210.8 c 0,-4 -0.37,-6.58 -1.1,-7.74 -0.99,-1.52 -2.51,-2.28 -4.55,-2.28 -1.49,0 -2.9,0.46 -4.21,1.37 -1.32,0.91 -2.26,2.25 -2.85,4 -0.58,1.76 -0.87,4.54 -0.87,8.33 v 19.36 h -10.67 v -22.09 c 0,-3.92 -0.19,-6.45 -0.57,-7.59 -0.38,-1.14 -0.97,-1.99 -1.77,-2.54 -0.8,-0.56 -1.88,-0.84 -3.25,-0.84 -1.65,0 -3.13,0.44 -4.44,1.33 -1.32,0.89 -2.26,2.16 -2.83,3.83 -0.57,1.67 -0.85,4.44 -0.85,8.31 v 19.59 h -10.67 v -40.31 z"
   id="path24"
   inkscape:connector-curvature="0" />
			<path
   d="m 1318.37,193.53 h 11.35 l 9.64,28.62 9.41,-28.62 h 11.05 l -14.23,38.79 -2.54,7.02 c -0.94,2.35 -1.83,4.15 -2.68,5.39 -0.85,1.24 -1.82,2.25 -2.92,3.02 -1.1,0.77 -2.46,1.37 -4.06,1.8 -1.61,0.43 -3.42,0.65 -5.45,0.65 -2.05,0 -4.06,-0.22 -6.04,-0.65 l -0.95,-8.35 c 1.67,0.33 3.18,0.49 4.52,0.49 2.48,0 4.31,-0.73 5.5,-2.18 1.19,-1.46 2.1,-3.31 2.73,-5.56 z"
   id="path26"
   inkscape:connector-curvature="0" />
			<path
   d="m 1362.89,222.34 10.7,-1.63 c 0.46,2.08 1.38,3.65 2.77,4.73 1.39,1.08 3.34,1.61 5.85,1.61 2.76,0 4.83,-0.51 6.23,-1.52 0.94,-0.71 1.4,-1.66 1.4,-2.85 0,-0.81 -0.25,-1.48 -0.76,-2.01 -0.53,-0.51 -1.72,-0.97 -3.57,-1.4 -8.6,-1.9 -14.06,-3.63 -16.36,-5.2 -3.19,-2.18 -4.78,-5.2 -4.78,-9.07 0,-3.49 1.38,-6.43 4.14,-8.81 2.76,-2.38 7.03,-3.57 12.83,-3.57 5.52,0 9.62,0.9 12.3,2.7 2.68,1.8 4.53,4.45 5.54,7.97 l -10.06,1.86 c -0.43,-1.57 -1.25,-2.77 -2.45,-3.61 -1.2,-0.84 -2.92,-1.25 -5.14,-1.25 -2.81,0 -4.82,0.39 -6.04,1.18 -0.81,0.56 -1.21,1.28 -1.21,2.16 0,0.76 0.35,1.4 1.06,1.94 0.96,0.71 4.28,1.71 9.96,3 5.68,1.29 9.65,2.87 11.9,4.74 2.23,1.9 3.34,4.54 3.34,7.93 0,3.69 -1.54,6.87 -4.63,9.53 -3.09,2.66 -7.66,3.99 -13.7,3.99 -5.49,0 -9.84,-1.11 -13.04,-3.34 -3.2,-2.24 -5.29,-5.26 -6.28,-9.08 z"
   id="path28"
   inkscape:connector-curvature="0" />
			<path
   d="m 1409.88,206.51 v -28.32 h 10.67 v 19.24 l 5.2,-4.4 v 7.21 l -5.2,4.4 v 29.19 h -10.67 v -20.12 l -5.2,4.4 v -7.21 z"
   id="path30"
   inkscape:connector-curvature="0" />
			<path
   d="m 1439.45,205.83 -9.68,-1.75 c 1.09,-3.9 2.96,-6.78 5.62,-8.65 2.66,-1.87 6.6,-2.81 11.84,-2.81 4.76,0 8.3,0.56 10.63,1.69 2.33,1.13 3.97,2.56 4.92,4.29 0.95,1.73 1.42,4.92 1.42,9.55 l -0.11,12.45 c 0,3.54 0.17,6.16 0.51,7.84 0.34,1.68 0.98,3.49 1.92,5.41 h -10.55 c -0.28,-0.71 -0.62,-1.76 -1.02,-3.15 -0.18,-0.63 -0.3,-1.05 -0.38,-1.25 -1.82,1.77 -3.77,3.1 -5.85,3.99 -2.08,0.89 -4.29,1.33 -6.64,1.33 -4.15,0 -7.42,-1.13 -9.81,-3.38 -2.39,-2.25 -3.59,-5.1 -3.59,-8.54 0,-2.28 0.54,-4.31 1.63,-6.09 1.09,-1.78 2.61,-3.15 4.57,-4.1 1.96,-0.95 4.79,-1.78 8.48,-2.49 4.98,-0.94 8.44,-1.81 10.36,-2.62 v -1.06 c 0,-2.05 -0.51,-3.51 -1.52,-4.38 -1.01,-0.87 -2.92,-1.31 -5.73,-1.31 -1.9,0 -3.38,0.37 -4.44,1.12 -1.06,0.73 -1.92,2.04 -2.58,3.91 z m 14.27,8.65 c -1.37,0.46 -3.53,1 -6.49,1.63 -2.96,0.63 -4.9,1.25 -5.81,1.86 -1.39,0.99 -2.09,2.24 -2.09,3.76 0,1.49 0.56,2.78 1.67,3.87 1.11,1.09 2.53,1.63 4.25,1.63 1.92,0 3.76,-0.63 5.5,-1.9 1.29,-0.96 2.14,-2.14 2.54,-3.53 0.28,-0.91 0.42,-2.64 0.42,-5.2 v -2.12 z"
   id="path32"
   inkscape:connector-curvature="0" />
			<path
   d="m 1482.23,233.84 -12.75,-40.31 h 10.36 l 7.55,26.42 6.95,-26.42 h 10.29 l 6.72,26.42 7.71,-26.42 h 10.51 l -12.94,40.31 h -10.25 l -6.95,-25.93 -6.83,25.93 z"
   id="path34"
   inkscape:connector-curvature="0" />
			<path
   d="m 1559.21,178.19 h 20.54 c 4.63,0 8.16,0.35 10.59,1.06 3.26,0.96 6.06,2.67 8.39,5.12 2.33,2.46 4.1,5.46 5.31,9.02 1.21,3.56 1.82,7.94 1.82,13.15 0,4.58 -0.57,8.53 -1.71,11.84 -1.39,4.05 -3.38,7.33 -5.96,9.83 -1.95,1.9 -4.58,3.38 -7.9,4.44 -2.48,0.78 -5.8,1.18 -9.95,1.18 h -21.14 v -55.64 z m 11.23,9.42 v 36.86 h 8.39 c 3.14,0 5.4,-0.18 6.79,-0.53 1.82,-0.46 3.33,-1.23 4.54,-2.32 1.2,-1.09 2.18,-2.88 2.94,-5.37 0.76,-2.49 1.14,-5.89 1.14,-10.19 0,-4.3 -0.38,-7.6 -1.14,-9.91 -0.76,-2.3 -1.82,-4.1 -3.19,-5.39 -1.37,-1.29 -3.1,-2.16 -5.2,-2.62 -1.57,-0.35 -4.64,-0.53 -9.22,-0.53 z"
   id="path36"
   inkscape:connector-curvature="0" />
			<path
   d="m 1610.26,193.53 h 11.35 l 9.64,28.62 9.41,-28.62 h 11.05 l -14.23,38.79 -2.54,7.02 c -0.94,2.35 -1.83,4.15 -2.68,5.39 -0.85,1.24 -1.82,2.25 -2.92,3.02 -1.1,0.77 -2.46,1.37 -4.06,1.8 -1.61,0.43 -3.42,0.65 -5.45,0.65 -2.05,0 -4.06,-0.22 -6.04,-0.65 l -0.95,-8.35 c 1.67,0.33 3.18,0.49 4.52,0.49 2.48,0 4.31,-0.73 5.5,-2.18 1.19,-1.46 2.1,-3.31 2.73,-5.56 z"
   id="path38"
   inkscape:connector-curvature="0" />
			<path
   d="m 1657.74,193.53 h 9.83 v 5.5 c 3.52,-4.28 7.71,-6.41 12.56,-6.41 2.58,0 4.82,0.53 6.72,1.59 1.9,1.06 3.45,2.67 4.67,4.82 1.77,-2.15 3.68,-3.76 5.73,-4.82 2.05,-1.06 4.24,-1.59 6.57,-1.59 2.96,0 5.47,0.6 7.52,1.8 2.05,1.2 3.58,2.97 4.59,5.3 0.73,1.72 1.1,4.5 1.1,8.35 v 25.77 h -10.67 V 210.8 c 0,-4 -0.37,-6.58 -1.1,-7.74 -0.99,-1.52 -2.51,-2.28 -4.55,-2.28 -1.49,0 -2.9,0.46 -4.21,1.37 -1.32,0.91 -2.27,2.25 -2.85,4 -0.58,1.76 -0.87,4.54 -0.87,8.33 v 19.36 h -10.67 v -22.09 c 0,-3.92 -0.19,-6.45 -0.57,-7.59 -0.38,-1.14 -0.97,-1.99 -1.77,-2.54 -0.8,-0.56 -1.88,-0.84 -3.25,-0.84 -1.65,0 -3.13,0.44 -4.44,1.33 -1.32,0.89 -2.26,2.16 -2.83,3.83 -0.57,1.67 -0.85,4.44 -0.85,8.31 v 19.59 h -10.67 v -40.31 z"
   id="path40"
   inkscape:connector-curvature="0" />
			<path
   d="m 1751.01,221.01 10.63,1.78 c -1.37,3.9 -3.52,6.86 -6.47,8.9 -2.95,2.04 -6.64,3.06 -11.06,3.06 -7.01,0 -12.2,-2.29 -15.56,-6.87 -2.66,-3.67 -3.99,-8.3 -3.99,-13.89 0,-6.68 1.75,-11.91 5.24,-15.7 3.49,-3.78 7.91,-5.67 13.25,-5.67 6,0 10.73,1.98 14.2,5.94 3.47,3.96 5.12,10.03 4.97,18.2 h -26.72 c 0.08,3.16 0.94,5.62 2.58,7.38 1.64,1.76 3.69,2.64 6.15,2.64 1.67,0 3.07,-0.46 4.21,-1.37 1.12,-0.91 1.98,-2.37 2.57,-4.4 z m 0.6,-10.78 c -0.08,-3.09 -0.87,-5.43 -2.39,-7.04 -1.52,-1.61 -3.37,-2.41 -5.54,-2.41 -2.33,0 -4.25,0.85 -5.77,2.54 -1.52,1.7 -2.27,4 -2.24,6.91 z"
   id="path42"
   inkscape:connector-curvature="0" />
			<path
   d="m 1770.52,233.84 v -55.65 h 10.67 v 29.53 l 12.49,-14.2 h 13.13 l -13.78,14.73 14.77,25.58 h -11.5 l -10.13,-18.11 -4.97,5.2 v 12.91 h -10.68 z"
   id="path44"
   inkscape:connector-curvature="0" />
		</g>
		<g
   id="g106">
			<path
   d="m 769.28,348.65 10.05,-47.98 h 20.03 c 3.47,0 6.07,0.4 7.81,1.19 1.73,0.8 3.17,2.16 4.3,4.09 1.13,1.93 1.7,4.1 1.7,6.5 0,1.99 -0.4,4 -1.21,6.05 -0.81,2.05 -1.83,3.74 -3.06,5.07 -1.23,1.33 -2.48,2.33 -3.75,3.01 -1.27,0.68 -2.62,1.18 -4.06,1.51 -3.08,0.72 -6.19,1.08 -9.33,1.08 h -12.01 l -4.06,19.47 h -6.41 z m 11.62,-24.91 h 10.57 c 4.1,0 7.11,-0.44 9.03,-1.32 1.92,-0.88 3.46,-2.23 4.61,-4.04 1.16,-1.81 1.73,-3.73 1.73,-5.76 0,-1.57 -0.31,-2.85 -0.92,-3.85 -0.61,-0.99 -1.47,-1.72 -2.59,-2.19 -1.12,-0.47 -3.25,-0.7 -6.41,-0.7 h -12.31 z"
   id="path48"
   inkscape:connector-curvature="0" />
			<path
   d="m 813.33,348.65 7.27,-34.76 h 5.24 l -1.47,7.1 c 1.79,-2.68 3.54,-4.67 5.25,-5.96 1.71,-1.29 3.46,-1.93 5.25,-1.93 1.18,0 2.63,0.43 4.35,1.28 l -2.42,5.5 c -1.03,-0.74 -2.15,-1.11 -3.37,-1.11 -2.07,0 -4.2,1.16 -6.38,3.47 -2.18,2.31 -3.89,6.47 -5.14,12.47 l -2.95,13.94 z"
   id="path50"
   inkscape:connector-curvature="0" />
			<path
   d="m 859.08,344.33 c -2.05,1.77 -4.03,3.06 -5.92,3.88 -1.9,0.82 -3.93,1.23 -6.09,1.23 -3.21,0 -5.79,-0.94 -7.76,-2.83 -1.96,-1.89 -2.95,-4.3 -2.95,-7.25 0,-1.94 0.44,-3.66 1.33,-5.15 0.88,-1.49 2.06,-2.69 3.52,-3.6 1.46,-0.91 3.25,-1.55 5.37,-1.95 1.33,-0.26 3.86,-0.47 7.58,-0.62 3.72,-0.15 6.39,-0.54 8,-1.18 0.46,-1.61 0.69,-2.96 0.69,-4.03 0,-1.37 -0.5,-2.45 -1.51,-3.24 -1.37,-1.09 -3.38,-1.64 -6.02,-1.64 -2.49,0 -4.52,0.55 -6.1,1.65 -1.58,1.1 -2.73,2.67 -3.45,4.7 l -5.99,-0.52 c 1.22,-3.45 3.16,-6.09 5.81,-7.92 2.65,-1.83 5.99,-2.75 10.03,-2.75 4.3,0 7.7,1.03 10.21,3.08 1.92,1.53 2.88,3.51 2.88,5.96 0,1.85 -0.27,4 -0.82,6.45 l -1.93,8.64 c -0.61,2.75 -0.92,4.99 -0.92,6.71 0,1.09 0.24,2.66 0.72,4.71 h -5.99 c -0.33,-1.14 -0.55,-2.58 -0.69,-4.33 z m 2.2,-13.29 c -0.83,0.33 -1.72,0.58 -2.67,0.75 -0.95,0.17 -2.54,0.36 -4.76,0.56 -3.45,0.31 -5.88,0.69 -7.3,1.16 -1.42,0.47 -2.49,1.22 -3.21,2.24 -0.72,1.03 -1.08,2.16 -1.08,3.4 0,1.66 0.57,3.02 1.72,4.09 1.15,1.07 2.78,1.6 4.89,1.6 1.96,0 3.85,-0.52 5.66,-1.55 1.81,-1.04 3.24,-2.48 4.29,-4.34 1.05,-1.84 1.87,-4.48 2.46,-7.91 z"
   id="path52"
   inkscape:connector-curvature="0" />
			<path
   d="m 896.92,335.98 5.92,0.62 c -1.48,4.34 -3.59,7.57 -6.33,9.67 -2.74,2.11 -5.85,3.16 -9.34,3.16 -3.77,0 -6.83,-1.22 -9.18,-3.67 -2.35,-2.44 -3.52,-5.86 -3.52,-10.24 0,-3.8 0.75,-7.53 2.26,-11.19 1.51,-3.66 3.66,-6.45 6.46,-8.36 2.8,-1.91 6.01,-2.86 9.61,-2.86 3.73,0 6.69,1.05 8.87,3.16 2.18,2.11 3.27,4.89 3.27,8.36 l -5.83,0.39 c -0.02,-2.2 -0.66,-3.93 -1.91,-5.17 -1.25,-1.24 -2.91,-1.87 -4.96,-1.87 -2.38,0 -4.44,0.75 -6.19,2.26 -1.75,1.51 -3.11,3.79 -4.11,6.86 -0.99,3.07 -1.49,6.02 -1.49,8.85 0,2.97 0.65,5.19 1.96,6.68 1.31,1.48 2.92,2.23 4.84,2.23 1.92,0 3.76,-0.73 5.51,-2.19 1.77,-1.47 3.15,-3.7 4.16,-6.69 z"
   id="path54"
   inkscape:connector-curvature="0" />
			<path
   d="m 907.49,335.46 c 0,-6.79 2,-12.4 5.99,-16.85 3.29,-3.67 7.61,-5.5 12.96,-5.5 4.19,0 7.57,1.31 10.13,3.93 2.56,2.62 3.85,6.15 3.85,10.6 0,3.99 -0.81,7.71 -2.42,11.14 -1.61,3.44 -3.91,6.07 -6.89,7.9 -2.98,1.83 -6.11,2.75 -9.41,2.75 -2.71,0 -5.17,-0.58 -7.38,-1.73 -2.21,-1.16 -3.91,-2.79 -5.07,-4.91 -1.18,-2.11 -1.76,-4.56 -1.76,-7.33 z m 5.92,-0.59 c 0,3.27 0.79,5.76 2.36,7.45 1.57,1.69 3.57,2.54 5.99,2.54 1.27,0 2.52,-0.26 3.76,-0.77 1.24,-0.51 2.4,-1.29 3.47,-2.34 1.07,-1.05 1.98,-2.24 2.73,-3.58 0.75,-1.34 1.36,-2.79 1.82,-4.34 0.68,-2.16 1.01,-4.23 1.01,-6.22 0,-3.14 -0.79,-5.58 -2.37,-7.32 -1.58,-1.73 -3.57,-2.6 -5.97,-2.6 -1.85,0 -3.55,0.44 -5.07,1.33 -1.53,0.88 -2.91,2.18 -4.14,3.88 -1.23,1.7 -2.14,3.68 -2.72,5.94 -0.58,2.25 -0.87,4.26 -0.87,6.03 z"
   id="path56"
   inkscape:connector-curvature="0" />
			<path
   d="m 950.33,348.65 -3.63,-34.76 h 5.69 l 1.57,15.61 0.62,8.77 c 0.04,0.65 0.11,1.98 0.2,3.96 0.65,-2.23 1.21,-3.93 1.67,-5.12 0.46,-1.19 1.19,-2.88 2.19,-5.09 l 8.28,-18.13 h 6.45 l 1.15,17.38 c 0.17,2.64 0.28,6.16 0.33,10.57 1.09,-2.92 2.87,-6.98 5.33,-12.17 l 7.46,-15.77 h 5.92 l -16.99,34.76 h -6.15 l -1.31,-20.39 c -0.09,-1.27 -0.15,-3.73 -0.2,-7.4 -0.9,2.33 -1.95,4.86 -3.17,7.56 l -9.2,20.23 h -6.21 z"
   id="path58"
   inkscape:connector-curvature="0" />
			<path
   d="m 992.12,348.65 7.27,-34.76 h 5.37 l -1.28,6.05 c 2.33,-2.38 4.52,-4.11 6.55,-5.2 2.03,-1.09 4.1,-1.64 6.22,-1.64 2.81,0 5.02,0.76 6.63,2.29 1.6,1.53 2.41,3.57 2.41,6.12 0,1.29 -0.28,3.32 -0.85,6.09 l -4.42,21.04 h -5.92 l 4.61,-22.03 c 0.46,-2.14 0.69,-3.72 0.69,-4.75 0,-1.16 -0.4,-2.09 -1.19,-2.81 -0.8,-0.72 -1.95,-1.08 -3.45,-1.08 -3.03,0 -5.73,1.09 -8.1,3.27 -2.37,2.18 -4.11,5.92 -5.22,11.23 l -3.37,16.17 h -5.95 z"
   id="path60"
   inkscape:connector-curvature="0" />
			<path
   d="m 1029.17,348.65 7.27,-34.76 h 5.92 l -7.27,34.76 z m 8.64,-41.27 1.41,-6.71 h 5.89 l -1.41,6.71 z"
   id="path62"
   inkscape:connector-curvature="0" />
			<path
   d="m 1067.72,344.33 c -2.05,1.77 -4.03,3.06 -5.92,3.88 -1.9,0.82 -3.93,1.23 -6.09,1.23 -3.21,0 -5.79,-0.94 -7.76,-2.83 -1.96,-1.89 -2.95,-4.3 -2.95,-7.25 0,-1.94 0.44,-3.66 1.33,-5.15 0.88,-1.49 2.06,-2.69 3.52,-3.6 1.46,-0.91 3.25,-1.55 5.37,-1.95 1.33,-0.26 3.86,-0.47 7.58,-0.62 3.72,-0.15 6.39,-0.54 8,-1.18 0.46,-1.61 0.69,-2.96 0.69,-4.03 0,-1.37 -0.5,-2.45 -1.51,-3.24 -1.37,-1.09 -3.38,-1.64 -6.02,-1.64 -2.49,0 -4.52,0.55 -6.1,1.65 -1.58,1.1 -2.73,2.67 -3.45,4.7 l -5.99,-0.52 c 1.22,-3.45 3.16,-6.09 5.81,-7.92 2.65,-1.83 5.99,-2.75 10.03,-2.75 4.3,0 7.7,1.03 10.21,3.08 1.92,1.53 2.88,3.51 2.88,5.96 0,1.85 -0.27,4 -0.82,6.45 l -1.93,8.64 c -0.61,2.75 -0.92,4.99 -0.92,6.71 0,1.09 0.24,2.66 0.72,4.71 h -5.99 c -0.33,-1.14 -0.56,-2.58 -0.69,-4.33 z m 2.19,-13.29 c -0.83,0.33 -1.72,0.58 -2.67,0.75 -0.95,0.17 -2.54,0.36 -4.76,0.56 -3.45,0.31 -5.88,0.69 -7.3,1.16 -1.42,0.47 -2.49,1.22 -3.21,2.24 -0.72,1.03 -1.08,2.16 -1.08,3.4 0,1.66 0.57,3.02 1.72,4.09 1.15,1.07 2.78,1.6 4.89,1.6 1.96,0 3.85,-0.52 5.66,-1.55 1.81,-1.04 3.24,-2.48 4.29,-4.34 1.06,-1.84 1.87,-4.48 2.46,-7.91 z"
   id="path64"
   inkscape:connector-curvature="0" />
			<path
   d="m 1118.72,348.65 10.05,-47.98 h 6.38 l -10.01,47.98 z"
   id="path66"
   inkscape:connector-curvature="0" />
			<path
   d="m 1135.74,348.65 7.27,-34.76 h 5.37 l -1.28,6.05 c 2.33,-2.38 4.52,-4.11 6.55,-5.2 2.03,-1.09 4.1,-1.64 6.22,-1.64 2.81,0 5.02,0.76 6.63,2.29 1.6,1.53 2.41,3.57 2.41,6.12 0,1.29 -0.28,3.32 -0.85,6.09 l -4.42,21.04 h -5.92 l 4.61,-22.03 c 0.46,-2.14 0.69,-3.72 0.69,-4.75 0,-1.16 -0.4,-2.09 -1.19,-2.81 -0.8,-0.72 -1.95,-1.08 -3.45,-1.08 -3.03,0 -5.73,1.09 -8.1,3.27 -2.37,2.18 -4.11,5.92 -5.22,11.23 l -3.37,16.17 h -5.95 z"
   id="path68"
   inkscape:connector-curvature="0" />
			<path
   d="m 1172.1,348.65 0.95,-4.58 18.69,-21.04 c 1.33,-1.48 2.81,-3.02 4.45,-4.61 -2.81,0.28 -4.83,0.43 -6.05,0.43 h -12.93 l 1.05,-4.94 h 26.87 l -0.79,3.73 -18.85,21.17 c -1.07,1.2 -2.66,2.85 -4.78,4.94 3.29,-0.2 5.55,-0.29 6.77,-0.29 h 13.68 l -1.08,5.2 h -27.98 z m 15.61,-39.57 1.54,-7.3 h 7.3 l -1.57,7.3 z"
   id="path70"
   inkscape:connector-curvature="0" />
			<path
   d="m 1204.3,362.07 0.36,-5.56 c 1.22,0.35 2.41,0.52 3.57,0.52 1.2,0 2.17,-0.27 2.91,-0.82 0.96,-0.72 2.01,-2.07 3.14,-4.06 l 1.9,-3.4 -5.79,-34.85 h 5.83 l 2.62,17.57 c 0.52,3.47 0.97,6.94 1.34,10.41 l 15.55,-27.98 h 6.19 l -22.16,39.37 c -2.14,3.84 -4.04,6.38 -5.69,7.63 -1.66,1.24 -3.57,1.87 -5.73,1.87 -1.39,-0.02 -2.73,-0.24 -4.04,-0.7 z"
   id="path72"
   inkscape:connector-curvature="0" />
			<path
   d="m 1240.04,348.65 7.27,-34.76 h 5.37 l -1.28,6.05 c 2.33,-2.38 4.52,-4.11 6.55,-5.2 2.03,-1.09 4.1,-1.64 6.22,-1.64 2.81,0 5.02,0.76 6.63,2.29 1.6,1.53 2.41,3.57 2.41,6.12 0,1.29 -0.28,3.32 -0.85,6.09 l -4.42,21.04 H 1262 l 4.61,-22.03 c 0.46,-2.14 0.69,-3.72 0.69,-4.75 0,-1.16 -0.4,-2.09 -1.19,-2.81 -0.8,-0.72 -1.95,-1.08 -3.45,-1.08 -3.03,0 -5.73,1.09 -8.1,3.27 -2.37,2.18 -4.11,5.92 -5.22,11.23 l -3.37,16.17 h -5.93 z"
   id="path74"
   inkscape:connector-curvature="0" />
			<path
   d="m 1277.09,348.65 7.27,-34.76 h 5.92 l -7.27,34.76 z m 8.64,-41.27 1.41,-6.71 h 5.89 l -1.41,6.71 z"
   id="path76"
   inkscape:connector-curvature="0" />
			<path
   d="m 1317.74,336.83 5.76,0.59 c -0.83,2.86 -2.73,5.57 -5.71,8.15 -2.98,2.57 -6.53,3.86 -10.65,3.86 -2.57,0 -4.94,-0.59 -7.09,-1.78 -2.15,-1.19 -3.79,-2.92 -4.91,-5.19 -1.12,-2.27 -1.69,-4.85 -1.69,-7.76 0,-3.8 0.88,-7.48 2.63,-11.05 1.76,-3.57 4.03,-6.22 6.82,-7.95 2.79,-1.73 5.81,-2.6 9.07,-2.6 4.15,0 7.46,1.29 9.93,3.86 2.48,2.57 3.71,6.09 3.71,10.54 0,1.7 -0.15,3.45 -0.46,5.24 h -25.59 c -0.09,0.68 -0.13,1.29 -0.13,1.83 0,3.25 0.75,5.73 2.24,7.45 1.49,1.71 3.32,2.57 5.48,2.57 2.03,0 4.03,-0.67 5.99,-2 1.98,-1.33 3.5,-3.25 4.6,-5.76 z m -17.22,-8.6 h 19.51 c 0.02,-0.61 0.03,-1.05 0.03,-1.31 0,-2.97 -0.74,-5.24 -2.23,-6.82 -1.48,-1.58 -3.39,-2.37 -5.73,-2.37 -2.53,0 -4.84,0.87 -6.92,2.62 -2.08,1.74 -3.63,4.37 -4.66,7.88 z"
   id="path78"
   inkscape:connector-curvature="0" />
			<path
   d="m 1329.48,348.65 7.27,-34.76 h 5.24 l -1.47,7.1 c 1.79,-2.68 3.54,-4.67 5.25,-5.96 1.71,-1.29 3.46,-1.93 5.25,-1.93 1.18,0 2.63,0.43 4.35,1.28 l -2.42,5.5 c -1.03,-0.74 -2.15,-1.11 -3.37,-1.11 -2.07,0 -4.2,1.16 -6.38,3.47 -2.18,2.31 -3.89,6.47 -5.14,12.47 l -2.95,13.94 z"
   id="path80"
   inkscape:connector-curvature="0" />
			<path
   d="m 1352.36,336.77 5.92,-0.36 c 0,1.7 0.26,3.15 0.79,4.35 0.52,1.2 1.49,2.18 2.9,2.95 1.41,0.76 3.05,1.15 4.93,1.15 2.62,0 4.58,-0.52 5.89,-1.57 1.31,-1.05 1.96,-2.28 1.96,-3.7 0,-1.03 -0.39,-2 -1.18,-2.91 -0.81,-0.92 -2.78,-2.05 -5.91,-3.39 -3.13,-1.34 -5.13,-2.29 -6.01,-2.83 -1.46,-0.89 -2.56,-1.95 -3.31,-3.16 -0.74,-1.21 -1.11,-2.6 -1.11,-4.17 0,-2.75 1.09,-5.11 3.27,-7.07 2.18,-1.96 5.24,-2.95 9.16,-2.95 4.36,0 7.68,1.01 9.97,3.03 2.28,2.02 3.46,4.67 3.55,7.97 l -5.79,0.39 c -0.09,-2.09 -0.83,-3.75 -2.23,-4.97 -1.4,-1.22 -3.37,-1.83 -5.92,-1.83 -2.05,0 -3.64,0.47 -4.78,1.41 -1.13,0.94 -1.7,1.95 -1.7,3.04 0,1.09 0.49,2.05 1.47,2.88 0.65,0.57 2.35,1.44 5.07,2.62 4.54,1.96 7.4,3.51 8.58,4.65 1.88,1.81 2.81,4.01 2.81,6.61 0,1.72 -0.53,3.41 -1.59,5.07 -1.06,1.66 -2.67,2.98 -4.84,3.98 -2.17,0.99 -4.73,1.49 -7.67,1.49 -4.01,0 -7.43,-0.99 -10.24,-2.98 -2.81,-2 -4.14,-5.23 -3.99,-9.7 z"
   id="path82"
   inkscape:connector-curvature="0" />
			<path
   d="m 1385.38,348.65 10.05,-47.98 h 5.89 l -6.22,29.75 17.28,-16.53 h 7.82 l -14.82,12.96 8.97,21.8 h -6.48 l -6.94,-17.84 -7.2,6.22 -2.42,11.62 z"
   id="path84"
   inkscape:connector-curvature="0" />
			<path
   d="m 1419.88,335.46 c 0,-6.79 2,-12.4 5.99,-16.85 3.29,-3.67 7.61,-5.5 12.96,-5.5 4.19,0 7.57,1.31 10.13,3.93 2.56,2.62 3.85,6.15 3.85,10.6 0,3.99 -0.81,7.71 -2.42,11.14 -1.61,3.44 -3.91,6.07 -6.89,7.9 -2.98,1.83 -6.11,2.75 -9.41,2.75 -2.71,0 -5.17,-0.58 -7.38,-1.73 -2.22,-1.16 -3.91,-2.79 -5.07,-4.91 -1.18,-2.11 -1.76,-4.56 -1.76,-7.33 z m 5.92,-0.59 c 0,3.27 0.79,5.76 2.36,7.45 1.57,1.69 3.57,2.54 5.99,2.54 1.27,0 2.52,-0.26 3.76,-0.77 1.24,-0.51 2.4,-1.29 3.47,-2.34 1.07,-1.05 1.98,-2.24 2.73,-3.58 0.75,-1.34 1.36,-2.79 1.82,-4.34 0.68,-2.16 1.01,-4.23 1.01,-6.22 0,-3.14 -0.79,-5.58 -2.37,-7.32 -1.58,-1.73 -3.57,-2.6 -5.97,-2.6 -1.85,0 -3.55,0.44 -5.07,1.33 -1.53,0.88 -2.91,2.18 -4.14,3.88 -1.23,1.7 -2.14,3.68 -2.72,5.94 -0.58,2.25 -0.87,4.26 -0.87,6.03 z"
   id="path86"
   inkscape:connector-curvature="0" />
			<path
   d="m 1475.61,334.25 1.24,-5.92 h 18.07 l -1.21,5.92 z"
   id="path88"
   inkscape:connector-curvature="0" />
			<path
   d="m 1526.73,300.67 h 6.41 l -6.15,29.49 c -0.5,2.44 -0.75,4.26 -0.75,5.43 0,2.57 1.01,4.65 3.04,6.22 2.03,1.57 4.58,2.36 7.66,2.36 2.44,0 4.72,-0.56 6.82,-1.69 2.1,-1.12 3.77,-2.78 4.99,-4.96 1.22,-2.18 2.32,-5.66 3.31,-10.44 l 5.53,-26.41 h 6.41 l -5.86,28.15 c -1,4.8 -2.32,8.6 -3.96,11.41 -1.64,2.8 -3.91,5.05 -6.81,6.74 -2.9,1.69 -6.27,2.54 -10.11,2.54 -3.62,0 -6.76,-0.6 -9.41,-1.8 -2.65,-1.2 -4.64,-2.86 -5.96,-4.97 -1.32,-2.12 -1.98,-4.52 -1.98,-7.2 0,-1.68 0.45,-4.57 1.34,-8.67 z"
   id="path90"
   inkscape:connector-curvature="0" />
			<path
   d="m 1564.63,336.77 5.92,-0.36 c 0,1.7 0.26,3.15 0.79,4.35 0.52,1.2 1.49,2.18 2.9,2.95 1.41,0.76 3.05,1.15 4.93,1.15 2.62,0 4.58,-0.52 5.89,-1.57 1.31,-1.05 1.96,-2.28 1.96,-3.7 0,-1.03 -0.39,-2 -1.18,-2.91 -0.81,-0.92 -2.78,-2.05 -5.91,-3.39 -3.13,-1.34 -5.13,-2.29 -6.01,-2.83 -1.46,-0.89 -2.56,-1.95 -3.31,-3.16 -0.74,-1.21 -1.11,-2.6 -1.11,-4.17 0,-2.75 1.09,-5.11 3.27,-7.07 2.18,-1.96 5.24,-2.95 9.16,-2.95 4.36,0 7.68,1.01 9.97,3.03 2.28,2.02 3.46,4.67 3.55,7.97 l -5.79,0.39 c -0.09,-2.09 -0.83,-3.75 -2.23,-4.97 -1.4,-1.22 -3.37,-1.83 -5.92,-1.83 -2.05,0 -3.64,0.47 -4.78,1.41 -1.13,0.94 -1.7,1.95 -1.7,3.04 0,1.09 0.49,2.05 1.47,2.88 0.65,0.57 2.35,1.44 5.07,2.62 4.54,1.96 7.4,3.51 8.58,4.65 1.88,1.81 2.81,4.01 2.81,6.61 0,1.72 -0.53,3.41 -1.59,5.07 -1.06,1.66 -2.67,2.98 -4.84,3.98 -2.17,0.99 -4.73,1.49 -7.67,1.49 -4.01,0 -7.43,-0.99 -10.24,-2.98 -2.81,-2 -4.14,-5.23 -3.99,-9.7 z"
   id="path92"
   inkscape:connector-curvature="0" />
			<path
   d="m 1601.58,328.26 -4.97,2.65 1.08,-5.11 4.97,-2.62 4.68,-22.52 h 5.92 l -3.96,18.98 5.17,-2.75 -1.05,5.07 -5.17,2.75 -5.01,23.92 h -5.92 z"
   id="path94"
   inkscape:connector-curvature="0" />
			<path
   d="m 1636.2,342.37 c -4.17,4.71 -8.43,7.07 -12.8,7.07 -2.68,0 -4.85,-0.77 -6.5,-2.31 -1.65,-1.54 -2.47,-3.42 -2.47,-5.64 0,-1.46 0.37,-3.97 1.11,-7.53 l 4.19,-20.06 h 5.92 l -4.65,22.22 c -0.39,1.85 -0.59,3.29 -0.59,4.32 0,1.31 0.4,2.33 1.19,3.06 0.8,0.73 1.97,1.1 3.52,1.1 1.66,0 3.28,-0.4 4.86,-1.21 1.58,-0.81 2.95,-1.9 4.09,-3.27 1.15,-1.37 2.08,-3 2.8,-4.88 0.48,-1.2 1.04,-3.31 1.67,-6.32 l 3.14,-15.02 h 5.92 l -7.27,34.76 h -5.47 z"
   id="path96"
   inkscape:connector-curvature="0" />
			<path
   d="m 1649.43,351.79 5.99,0.56 c -0.04,1.35 0.12,2.37 0.49,3.04 0.37,0.68 0.96,1.2 1.77,1.57 1.07,0.48 2.45,0.72 4.16,0.72 3.58,0 6.15,-0.93 7.72,-2.78 1.03,-1.24 1.97,-3.95 2.85,-8.12 l 0.59,-2.81 c -3.08,3.12 -6.35,4.68 -9.82,4.68 -3.51,0 -6.45,-1.29 -8.82,-3.88 -2.37,-2.59 -3.55,-6.25 -3.55,-10.98 0,-3.91 0.93,-7.49 2.8,-10.77 1.87,-3.27 4.09,-5.74 6.66,-7.41 2.57,-1.67 5.22,-2.5 7.95,-2.5 4.56,0 8.07,2.16 10.54,6.48 l 1.18,-5.69 h 5.43 l -7,33.54 c -0.76,3.69 -1.77,6.56 -3.01,8.62 -1.24,2.06 -2.97,3.66 -5.19,4.79 -2.21,1.13 -4.77,1.7 -7.67,1.7 -2.79,0 -5.2,-0.36 -7.22,-1.08 -2.02,-0.72 -3.52,-1.77 -4.52,-3.16 -0.99,-1.39 -1.49,-2.97 -1.49,-4.76 -0.01,-0.54 0.05,-1.13 0.16,-1.76 z m 7.39,-18.52 c 0,2.38 0.23,4.17 0.69,5.37 0.65,1.68 1.59,2.96 2.8,3.85 1.21,0.88 2.56,1.33 4.04,1.33 1.94,0 3.87,-0.68 5.79,-2.05 1.92,-1.36 3.47,-3.47 4.66,-6.33 1.19,-2.86 1.78,-5.58 1.78,-8.18 0,-2.86 -0.79,-5.13 -2.37,-6.82 -1.58,-1.69 -3.54,-2.54 -5.87,-2.54 -1.44,0 -2.84,0.39 -4.19,1.16 -1.35,0.78 -2.61,1.95 -3.78,3.53 -1.17,1.58 -2.05,3.47 -2.65,5.68 -0.6,2.19 -0.9,3.86 -0.9,5 z"
   id="path98"
   inkscape:connector-curvature="0" />
			<path
   d="m 1688.08,335.46 c 0,-6.79 2,-12.4 5.99,-16.85 3.29,-3.67 7.61,-5.5 12.96,-5.5 4.19,0 7.57,1.31 10.13,3.93 2.56,2.62 3.85,6.15 3.85,10.6 0,3.99 -0.81,7.71 -2.42,11.14 -1.61,3.44 -3.91,6.07 -6.89,7.9 -2.98,1.83 -6.11,2.75 -9.41,2.75 -2.71,0 -5.17,-0.58 -7.38,-1.73 -2.22,-1.16 -3.91,-2.79 -5.07,-4.91 -1.18,-2.11 -1.76,-4.56 -1.76,-7.33 z m 5.92,-0.59 c 0,3.27 0.79,5.76 2.36,7.45 1.57,1.69 3.57,2.54 5.99,2.54 1.27,0 2.52,-0.26 3.76,-0.77 1.24,-0.51 2.4,-1.29 3.47,-2.34 1.07,-1.05 1.98,-2.24 2.73,-3.58 0.75,-1.34 1.36,-2.79 1.82,-4.34 0.68,-2.16 1.01,-4.23 1.01,-6.22 0,-3.14 -0.79,-5.58 -2.37,-7.32 -1.58,-1.73 -3.57,-2.6 -5.97,-2.6 -1.85,0 -3.55,0.44 -5.07,1.33 -1.53,0.88 -2.91,2.18 -4.14,3.88 -1.23,1.7 -2.14,3.68 -2.72,5.94 -0.58,2.25 -0.87,4.26 -0.87,6.03 z"
   id="path100"
   inkscape:connector-curvature="0" />
			<path
   d="m 1730.92,348.65 -3.63,-34.76 h 5.7 l 1.57,15.61 0.62,8.77 c 0.04,0.65 0.11,1.98 0.2,3.96 0.65,-2.23 1.21,-3.93 1.67,-5.12 0.46,-1.19 1.19,-2.88 2.19,-5.09 l 8.28,-18.13 h 6.45 l 1.15,17.38 c 0.17,2.64 0.28,6.16 0.33,10.57 1.09,-2.92 2.87,-6.98 5.33,-12.17 l 7.46,-15.77 h 5.92 l -16.99,34.76 h -6.15 l -1.31,-20.39 c -0.09,-1.27 -0.15,-3.73 -0.2,-7.4 -0.9,2.33 -1.95,4.86 -3.17,7.56 l -9.2,20.23 h -6.22 z"
   id="path102"
   inkscape:connector-curvature="0" />
			<path
   d="m 1796.14,344.33 c -2.05,1.77 -4.03,3.06 -5.92,3.88 -1.9,0.82 -3.93,1.23 -6.09,1.23 -3.21,0 -5.79,-0.94 -7.76,-2.83 -1.96,-1.89 -2.95,-4.3 -2.95,-7.25 0,-1.94 0.44,-3.66 1.33,-5.15 0.88,-1.49 2.06,-2.69 3.52,-3.6 1.46,-0.91 3.25,-1.55 5.37,-1.95 1.33,-0.26 3.86,-0.47 7.58,-0.62 3.72,-0.15 6.39,-0.54 8,-1.18 0.46,-1.61 0.69,-2.96 0.69,-4.03 0,-1.37 -0.5,-2.45 -1.5,-3.24 -1.38,-1.09 -3.38,-1.64 -6.02,-1.64 -2.49,0 -4.52,0.55 -6.1,1.65 -1.58,1.1 -2.73,2.67 -3.45,4.7 l -5.99,-0.52 c 1.22,-3.45 3.16,-6.09 5.81,-7.92 2.65,-1.83 5.99,-2.75 10.03,-2.75 4.3,0 7.7,1.03 10.21,3.08 1.92,1.53 2.88,3.51 2.88,5.96 0,1.85 -0.27,4 -0.82,6.45 l -1.93,8.64 c -0.61,2.75 -0.92,4.99 -0.92,6.71 0,1.09 0.24,2.66 0.72,4.71 h -5.99 c -0.34,-1.14 -0.57,-2.58 -0.7,-4.33 z m 2.19,-13.29 c -0.83,0.33 -1.72,0.58 -2.67,0.75 -0.95,0.17 -2.54,0.36 -4.76,0.56 -3.45,0.31 -5.88,0.69 -7.3,1.16 -1.42,0.47 -2.49,1.22 -3.21,2.24 -0.72,1.03 -1.08,2.16 -1.08,3.4 0,1.66 0.57,3.02 1.72,4.09 1.15,1.07 2.78,1.6 4.89,1.6 1.96,0 3.85,-0.52 5.66,-1.55 1.81,-1.04 3.24,-2.48 4.29,-4.34 1.06,-1.84 1.87,-4.48 2.46,-7.91 z"
   id="path104"
   inkscape:connector-curvature="0" />
		</g>
		<rect
   x="769.28003"
   y="271.38"
   width="1039.05"
   height="7.6300001"
   id="rect108" />
	</g>
	<g
   id="g150">
		<g
   id="g132">
			<path
   d="m 152.83,403.03 h -4.72 v 25.49 c -1.32,0.05 -2.44,0.07 -3.37,0.07 -5.57,0 -10.67,-1.29 -15.31,-3.88 -4.66,-2.61 -8.33,-6.18 -10.99,-10.69 -2.66,-4.49 -3.99,-9.48 -3.99,-14.98 0,-2.81 0.54,-5.71 1.61,-8.72 1.05,-2.95 2.58,-5.72 4.58,-8.31 1.93,-2.51 4.21,-4.66 6.85,-6.45 5.08,-3.34 11.54,-5.02 19.37,-5.02 h 28.2 v 24.32 l -27.03,-21.9 v 25.56 h 31.42 v 30.21 l -8.61,-6.15 c -1.59,1.12 -2.94,1.98 -4.06,2.56 -1.05,0.54 -2.65,1.16 -4.8,1.87 -2.71,0.98 -5.24,1.5 -7.58,1.57 h -1.57 z"
   id="path112"
   inkscape:connector-curvature="0" />
			<path
   d="m 231.97,412.4 2.23,1.03 c -0.68,1.93 -1.32,3.43 -1.9,4.5 -0.61,1.12 -1.42,2.22 -2.42,3.3 -2.05,2.34 -4.36,4.03 -6.92,5.05 -3.61,1.54 -7.93,2.31 -12.96,2.31 -2.91,0 -5.54,-0.24 -7.91,-0.73 -2.39,-0.49 -4.49,-1.21 -6.3,-2.16 -1.88,-0.95 -3.56,-2.21 -5.05,-3.77 -1.95,-2.03 -3.44,-4.32 -4.47,-6.88 -1.03,-2.54 -1.54,-5.27 -1.54,-8.2 0,-2.98 0.56,-5.79 1.68,-8.42 1.12,-2.64 2.71,-4.96 4.76,-6.96 2.03,-1.98 4.37,-3.52 7.03,-4.61 2.71,-1.07 5.57,-1.61 8.57,-1.61 h 0.88 v 40.76 c 1.9,0.15 3.26,0.22 4.06,0.22 6.15,0 11.07,-1.76 14.76,-5.27 1.25,-1.17 2.22,-2.31 2.93,-3.41 0.76,-1.22 1.61,-2.93 2.57,-5.15 z m 3.29,-5.78 h -22.71 v -21.46 c 2.07,0.15 3.86,0.35 5.35,0.62 1.34,0.24 2.65,0.67 3.92,1.28 2.69,1.05 5.11,2.67 7.29,4.87 1.46,1.46 2.72,3.17 3.77,5.13 1.1,2.05 1.77,3.92 2.01,5.6 0.18,1.05 0.3,2.37 0.37,3.96 z"
   id="path114"
   inkscape:connector-curvature="0" />
			<path
   d="m 263.68,385.48 v 43.1 h -1.17 c -4.27,0 -8.18,-0.94 -11.72,-2.82 -3.49,-1.86 -6.25,-4.44 -8.28,-7.76 -2.03,-3.32 -3.04,-6.97 -3.04,-10.95 0,-2.98 0.57,-5.8 1.72,-8.46 1.12,-2.59 2.75,-4.89 4.87,-6.92 2.12,-2 4.55,-3.53 7.29,-4.58 2.78,-1.07 5.75,-1.61 8.9,-1.61 z m 5.02,43.11 v -43.1 h 0.84 c 3.47,0 6.63,0.53 9.48,1.57 2.93,1.07 5.41,2.56 7.43,4.47 2.1,1.95 3.74,4.26 4.91,6.92 1.15,2.71 1.72,5.6 1.72,8.68 0,4.08 -1,7.74 -3,10.99 -2,3.25 -4.79,5.81 -8.35,7.69 -3.54,1.86 -7.53,2.78 -11.98,2.78 z"
   id="path116"
   inkscape:connector-curvature="0" />
			<path
   d="m 299.53,439.83 v -53.91 h 23.03 v 53.91 z m 27.98,-11.32 v -42.59 h 1.35 c 4.17,0 8.03,0.94 11.57,2.82 3.52,1.86 6.29,4.43 8.31,7.73 2,3.25 3,6.86 3,10.84 0,3.13 -0.53,5.97 -1.57,8.53 -1.05,2.59 -2.55,4.83 -4.5,6.74 -1.95,1.93 -4.3,3.41 -7.03,4.43 -2.69,1.05 -5.64,1.57 -8.86,1.57 -0.12,-0.02 -0.28,-0.04 -0.48,-0.04 -0.2,0 -0.38,-0.01 -0.55,-0.04 h -1.24 z"
   id="path118"
   inkscape:connector-curvature="0" />
			<path
   d="m 403.02,412.4 2.23,1.03 c -0.68,1.93 -1.32,3.43 -1.9,4.5 -0.61,1.12 -1.42,2.22 -2.42,3.3 -2.05,2.34 -4.36,4.03 -6.92,5.05 -3.61,1.54 -7.93,2.31 -12.96,2.31 -2.91,0 -5.54,-0.24 -7.91,-0.73 -2.39,-0.49 -4.49,-1.21 -6.3,-2.16 -1.88,-0.95 -3.56,-2.21 -5.05,-3.77 -1.95,-2.03 -3.44,-4.32 -4.47,-6.88 -1.03,-2.54 -1.54,-5.27 -1.54,-8.2 0,-2.98 0.56,-5.79 1.68,-8.42 1.12,-2.64 2.71,-4.96 4.76,-6.96 2.03,-1.98 4.37,-3.52 7.03,-4.61 2.71,-1.07 5.57,-1.61 8.57,-1.61 h 0.88 v 40.76 c 1.9,0.15 3.26,0.22 4.06,0.22 6.15,0 11.07,-1.76 14.76,-5.27 1.25,-1.17 2.22,-2.31 2.93,-3.41 0.77,-1.22 1.62,-2.93 2.57,-5.15 z m 3.3,-5.78 h -22.71 v -21.46 c 2.07,0.15 3.86,0.35 5.35,0.62 1.34,0.24 2.65,0.67 3.92,1.28 2.69,1.05 5.11,2.67 7.29,4.87 1.46,1.46 2.72,3.17 3.77,5.13 1.1,2.05 1.77,3.92 2.01,5.6 0.18,1.05 0.3,2.37 0.37,3.96 z"
   id="path120"
   inkscape:connector-curvature="0" />
			<path
   d="m 412.62,428.3 v -42.37 h 22.89 v 6.23 c 2.17,-2.12 4.22,-3.67 6.15,-4.65 1.88,-0.95 3.85,-1.43 5.9,-1.43 1.81,0 3.47,0.39 4.98,1.17 1.54,0.78 2.72,1.88 3.55,3.3 0.83,1.42 1.25,2.95 1.25,4.61 0,1.59 -0.38,3.05 -1.14,4.39 -0.76,1.34 -1.82,2.41 -3.19,3.19 -1.37,0.78 -2.86,1.17 -4.47,1.17 -2.54,0 -4.68,-0.87 -6.41,-2.6 -1.73,-1.73 -2.6,-3.91 -2.6,-6.52 0,-1 0.18,-2.14 0.55,-3.41 -1.32,0.85 -2.84,2.19 -4.58,3.99 v 32.92 h -22.88 z"
   id="path122"
   inkscape:connector-curvature="0" />
			<path
   d="m 473.59,370.18 c 3.74,0 6.71,0.59 8.94,1.76 2.25,1.17 3.37,2.73 3.37,4.69 0,1.15 -0.5,2.19 -1.5,3.11 -1,0.93 -2.38,1.65 -4.14,2.16 -1.71,0.54 -3.7,0.81 -5.97,0.81 -3.49,0 -6.27,-0.56 -8.35,-1.68 -2.1,-1.15 -3.15,-2.69 -3.15,-4.61 0,-1.83 0.99,-3.33 2.97,-4.5 2,-1.17 4.61,-1.74 7.83,-1.74 z m -10.65,58.12 v -42.37 h 23.18 v 42.37 z"
   id="path124"
   inkscape:connector-curvature="0" />
			<path
   d="m 495.16,414.34 v -28.42 l 22.74,-8.09 v 8.09 h 7.43 V 389 h -7.14 v 39.81 h -1.79 c -4.03,0 -7.65,-0.63 -10.88,-1.9 -3.32,-1.27 -5.86,-3 -7.62,-5.2 -1.82,-2.2 -2.74,-4.66 -2.74,-7.37 z"
   id="path126"
   inkscape:connector-curvature="0" />
			<path
   d="m 529.7,413.68 v -27.76 h 22.96 v 42.37 h -2.56 c -4.13,0 -7.73,-0.59 -10.8,-1.76 -1.56,-0.59 -2.93,-1.3 -4.1,-2.14 -1.17,-0.84 -2.17,-1.81 -3,-2.91 -1.67,-2.22 -2.5,-4.82 -2.5,-7.8 z m 27.83,14.62 v -42.37 h 23.18 v 42.37 z"
   id="path128"
   inkscape:connector-curvature="0" />
			<path
   d="m 606.64,418 -8.02,-2.89 c -3.64,-1.29 -6.45,-3.22 -8.42,-5.79 -2.03,-2.61 -3.04,-5.54 -3.04,-8.79 0,-2.81 0.74,-5.4 2.23,-7.76 1.46,-2.39 3.45,-4.26 5.97,-5.6 2.51,-1.34 5.3,-2.01 8.35,-2.01 0.51,0 0.99,0.02 1.43,0.07 -0.81,1.05 -1.29,1.78 -1.46,2.2 -0.22,0.51 -0.33,1.11 -0.33,1.79 0,2.83 2.43,5.24 7.29,7.21 l 5.16,2.01 c 2.78,1.15 5.09,2.48 6.92,3.99 1.83,1.54 3.22,3.27 4.17,5.2 0.95,1.93 1.43,4.04 1.43,6.34 0,2.66 -0.62,5.09 -1.87,7.29 -1.27,2.2 -2.99,3.94 -5.16,5.24 -2.22,1.29 -4.63,1.94 -7.21,1.94 -1.07,0 -2.41,-0.07 -3.99,-0.22 1.37,-1.51 2.05,-2.97 2.05,-4.36 -0.01,-2.56 -1.84,-4.51 -5.5,-5.86 z m -11.83,-2.16 c 1.15,0 2.23,0.29 3.26,0.88 1,0.59 1.79,1.38 2.38,2.38 0.59,1.03 0.88,2.11 0.88,3.26 0,1.2 -0.28,2.3 -0.84,3.3 -0.59,1.03 -1.39,1.83 -2.42,2.42 -1.03,0.59 -2.11,0.88 -3.26,0.88 -1.2,0 -2.31,-0.29 -3.33,-0.88 -1.05,-0.59 -1.86,-1.39 -2.42,-2.42 -0.59,-1 -0.88,-2.1 -0.88,-3.3 0,-1.15 0.29,-2.23 0.88,-3.26 0.59,-1 1.39,-1.79 2.42,-2.38 1.02,-0.58 2.13,-0.88 3.33,-0.88 z m 24.65,-31.27 c 1.2,0 2.31,0.29 3.33,0.88 1.02,0.59 1.83,1.39 2.42,2.42 0.59,1.03 0.88,2.12 0.88,3.3 0,1.15 -0.28,2.22 -0.84,3.22 -0.59,1 -1.39,1.79 -2.42,2.38 -1.05,0.61 -2.17,0.92 -3.37,0.92 -1.78,0 -3.31,-0.63 -4.58,-1.9 -1.29,-1.29 -1.94,-2.83 -1.94,-4.61 0,-1.81 0.65,-3.36 1.94,-4.65 1.29,-1.31 2.82,-1.96 4.58,-1.96 z"
   id="path130"
   inkscape:connector-curvature="0" />
		</g>
		<g
   id="g138">
			<path
   d="m 667.07,377.94 c -1.46,-2.63 -3.52,-4.66 -6.14,-6.08 -2.62,-1.41 -5.31,-2.12 -8.07,-2.12 -2.76,0 -5.45,0.71 -8.07,2.12 -2.63,1.41 -4.68,3.44 -6.15,6.07 -1.47,2.63 -2.21,5.37 -2.21,8.23 0,2.83 0.73,5.55 2.17,8.16 1.45,2.61 3.48,4.64 6.08,6.08 2.6,1.44 5.32,2.16 8.17,2.16 2.84,0 5.57,-0.72 8.17,-2.16 2.6,-1.44 4.63,-3.48 6.07,-6.09 1.44,-2.6 2.16,-5.33 2.16,-8.15 0.02,-2.85 -0.71,-5.59 -2.18,-8.22 z m -14.2,21.48 c -2.29,0 -4.48,-0.58 -6.59,-1.76 -2.11,-1.17 -3.74,-2.8 -4.91,-4.9 -1.18,-2.1 -1.76,-4.29 -1.76,-6.58 0,-2.3 0.6,-4.51 1.79,-6.65 1.2,-2.13 2.84,-3.76 4.96,-4.9 2.12,-1.15 4.29,-1.72 6.52,-1.72 2.22,0 4.38,0.57 6.51,1.72 2.12,1.15 3.77,2.77 4.95,4.9 1.19,2.13 1.78,4.35 1.78,6.65 0,2.29 -0.58,4.48 -1.75,6.58 -1.17,2.1 -2.8,3.73 -4.9,4.9 -2.12,1.17 -4.31,1.76 -6.6,1.76 z"
   id="path134"
   inkscape:connector-curvature="0" />
			<path
   d="m 655.86,388.08 v 0 c -0.24,-0.23 -0.53,-0.43 -0.85,-0.62 1.2,-0.22 2.2,-0.74 2.99,-1.55 0.95,-0.98 1.43,-2.16 1.43,-3.49 0,-0.95 -0.29,-1.85 -0.86,-2.68 -0.57,-0.84 -1.34,-1.44 -2.3,-1.77 -0.97,-0.34 -2.46,-0.49 -4.52,-0.5 h -6.22 v 17.88 h 0.24 3.05 v -7.4 h 1.41 c 0.96,0 1.65,0.2 2.11,0.55 v 0 0 c 0.68,0.49 1.67,1.83 2.87,3.98 l 1.61,2.87 h 4 l -2.35,-3.77 c -1.02,-1.63 -1.88,-2.79 -2.61,-3.5 z m 0.11,-5.42 c 0,0.74 -0.26,1.3 -0.8,1.75 -0.51,0.42 -1.58,0.68 -3.18,0.67 h -3.17 v -4.78 h 2.96 c 1.36,0 2.29,0.11 2.73,0.28 0.47,0.19 0.82,0.46 1.08,0.83 0.26,0.37 0.38,0.77 0.38,1.25 z"
   id="path136"
   inkscape:connector-curvature="0" />
		</g>
		<g
   id="g148">
			<polygon
   points="526.41,118.68 493.96,118.68 493.96,156.65 378.5,100.17 111.67,230.7 121.04,241.52 378.5,116.03 635.95,241.52 645.32,230.7 526.41,172.53 "
   id="polygon140" />
			<rect
   x="486.47"
   y="108.75"
   width="47.439999"
   height="5.0500002"
   id="rect142" />
			<polygon
   points="327.53,274.03 198.93,336.94 198.93,355.46 327.53,292.78 455.77,355.28 493.63,355.28 "
   id="polygon144" />
			<path
   d="m 198.93,226.37 v 93.75 l 129.09,-62.02 110.7,54.15 v -37.44 h 32.45 v 53.31 l 55.89,27.34 h 31.01 V 224.93 L 379.94,136.95 Z m 232.29,39.51 h 47.44 v 5.05 h -47.44 z"
   id="path146"
   inkscape:connector-curvature="0" />
		</g>
	</g>
</g>
</svg>