<?xml version="1.0" encoding="utf-8"?>
<!-- Generator: Adobe Illustrator 24.0.2, SVG Export Plug-In . SVG Version: 6.00 Build 0)  -->
<svg version="1.0" id="Layer_1" xmlns="http://www.w3.org/2000/svg" xmlns:xlink="http://www.w3.org/1999/xlink" x="0px" y="0px"
	 viewBox="0 0 1920 540" enable-background="new 0 0 1920 540" xml:space="preserve">
<g>
	<g>
		<g>
			<path d="M769.28,193.53h9.83v5.5c3.52-4.28,7.71-6.41,12.56-6.41c2.58,0,4.82,0.53,6.72,1.59c1.9,1.06,3.45,2.67,4.67,4.82
				c1.77-2.15,3.68-3.76,5.73-4.82s4.24-1.59,6.57-1.59c2.96,0,5.47,0.6,7.52,1.8c2.05,1.2,3.58,2.97,4.59,5.3
				c0.73,1.72,1.1,4.5,1.1,8.35v25.77h-10.67V210.8c0-4-0.37-6.58-1.1-7.74c-0.99-1.52-2.51-2.28-4.55-2.28
				c-1.49,0-2.9,0.46-4.21,1.37c-1.32,0.91-2.26,2.25-2.85,4c-0.58,1.76-0.87,4.54-0.87,8.33v19.36h-10.67v-22.09
				c0-3.92-0.19-6.45-0.57-7.59c-0.38-1.14-0.97-1.99-1.77-2.54c-0.8-0.56-1.88-0.84-3.25-0.84c-1.65,0-3.13,0.44-4.44,1.33
				c-1.32,0.89-2.26,2.16-2.83,3.83c-0.57,1.67-0.85,4.44-0.85,8.31v19.59h-10.67V193.53z"/>
			<path d="M838.21,236.5l12.18,1.48c0.2,1.42,0.67,2.39,1.4,2.92c1.01,0.76,2.61,1.14,4.78,1.14c2.78,0,4.87-0.42,6.26-1.25
				c0.94-0.56,1.64-1.46,2.13-2.7c0.33-0.89,0.49-2.52,0.49-4.9v-5.88c-3.19,4.35-7.21,6.53-12.07,6.53c-5.42,0-9.7-2.29-12.87-6.87
				c-2.48-3.62-3.72-8.12-3.72-13.51c0-6.76,1.63-11.92,4.88-15.49c3.25-3.57,7.29-5.35,12.13-5.35c4.99,0,9.1,2.19,12.34,6.57
				v-5.66h9.98v36.17c0,4.76-0.39,8.31-1.18,10.67c-0.78,2.35-1.89,4.2-3.3,5.54c-1.42,1.34-3.31,2.39-5.67,3.15
				c-2.37,0.76-5.36,1.14-8.98,1.14c-6.83,0-11.68-1.17-14.54-3.51c-2.86-2.34-4.29-5.31-4.29-8.9
				C838.18,237.43,838.19,237,838.21,236.5z M847.74,212.85c0,4.28,0.83,7.41,2.49,9.39c1.66,1.99,3.7,2.98,6.13,2.98
				c2.61,0,4.81-1.02,6.6-3.06c1.8-2.04,2.7-5.05,2.7-9.05c0-4.18-0.86-7.28-2.58-9.3c-1.72-2.02-3.9-3.04-6.53-3.04
				c-2.56,0-4.66,0.99-6.32,2.98C848.57,205.75,847.74,208.78,847.74,212.85z"/>
			<path d="M896.9,233.84h-10.67v-40.31h9.91v5.73c1.7-2.71,3.22-4.49,4.57-5.35c1.35-0.86,2.89-1.29,4.61-1.29
				c2.43,0,4.77,0.67,7.02,2.01l-3.3,9.3c-1.8-1.16-3.47-1.75-5.01-1.75c-1.49,0-2.76,0.41-3.8,1.23c-1.04,0.82-1.85,2.31-2.45,4.46
				c-0.59,2.15-0.89,6.66-0.89,13.51V233.84z"/>
			<path d="M938.63,188.06v-9.87h10.67v9.87H938.63z M938.63,233.84v-40.31h10.67v40.31H938.63z"/>
			<path d="M996.9,233.84h-10.67v-20.57c0-4.35-0.23-7.17-0.68-8.45c-0.46-1.28-1.2-2.27-2.22-2.98c-1.02-0.71-2.26-1.06-3.7-1.06
				c-1.85,0-3.51,0.51-4.97,1.52c-1.47,1.01-2.47,2.35-3.02,4.02c-0.54,1.67-0.82,4.76-0.82,9.26v18.26h-10.67v-40.31h9.91v5.92
				c3.52-4.55,7.95-6.83,13.29-6.83c2.35,0,4.5,0.42,6.45,1.27c1.95,0.85,3.42,1.93,4.42,3.25c1,1.32,1.7,2.81,2.09,4.48
				c0.39,1.67,0.59,4.06,0.59,7.17V233.84z"/>
			<path d="M1003.43,233.84v-8.31l15.11-17.35c2.48-2.83,4.31-4.85,5.5-6.04c-1.24,0.08-2.87,0.13-4.9,0.15l-14.23,0.08v-8.84h33.33
				v7.55l-15.41,17.76l-5.43,5.88c2.96-0.18,4.8-0.27,5.5-0.27h16.51v9.38H1003.43z M1015.8,187.34v-10.1h10.48v10.1H1015.8z"/>
			<path d="M1046.58,233.84v-10.67h10.67v10.67H1046.58z"/>
			<path d="M1090.16,233.84v-55.65h18.03c6.83,0,11.29,0.28,13.36,0.84c3.19,0.84,5.86,2.65,8.01,5.45
				c2.15,2.8,3.23,6.41,3.23,10.84c0,3.42-0.62,6.29-1.86,8.62c-1.24,2.33-2.82,4.16-4.73,5.48c-1.91,1.33-3.85,2.21-5.83,2.64
				c-2.68,0.53-6.57,0.8-11.65,0.8h-7.33v20.99H1090.16z M1101.4,187.61v15.79h6.15c4.43,0,7.39-0.29,8.88-0.87
				c1.49-0.58,2.66-1.49,3.51-2.73c0.85-1.24,1.27-2.68,1.27-4.33c0-2.02-0.59-3.69-1.78-5.01c-1.19-1.32-2.69-2.14-4.52-2.47
				c-1.34-0.25-4.04-0.38-8.09-0.38H1101.4z"/>
			<path d="M1152.15,233.84h-10.67v-40.31h9.91v5.73c1.7-2.71,3.22-4.49,4.57-5.35c1.35-0.86,2.89-1.29,4.61-1.29
				c2.43,0,4.77,0.67,7.02,2.01l-3.3,9.3c-1.8-1.16-3.47-1.75-5.01-1.75c-1.49,0-2.76,0.41-3.8,1.23c-1.04,0.82-1.85,2.31-2.45,4.46
				c-0.59,2.15-0.89,6.66-0.89,13.51V233.84z"/>
			<path d="M1167.9,233.84v-8.31l15.11-17.35c2.48-2.83,4.31-4.85,5.5-6.04c-1.24,0.08-2.87,0.13-4.9,0.15l-14.23,0.08v-8.84h33.33
				v7.55l-15.41,17.76l-5.43,5.88c2.96-0.18,4.8-0.27,5.5-0.27h16.51v9.38H1167.9z"/>
			<path d="M1234.4,221.01l10.63,1.78c-1.37,3.9-3.52,6.86-6.47,8.9c-2.95,2.04-6.64,3.06-11.06,3.06c-7.01,0-12.2-2.29-15.56-6.87
				c-2.66-3.67-3.99-8.3-3.99-13.89c0-6.68,1.75-11.91,5.24-15.7c3.49-3.78,7.91-5.67,13.25-5.67c6,0,10.73,1.98,14.2,5.94
				c3.47,3.96,5.12,10.03,4.97,18.2h-26.72c0.08,3.16,0.94,5.62,2.58,7.38c1.64,1.76,3.69,2.64,6.15,2.64
				c1.67,0,3.07-0.46,4.21-1.37C1232.96,224.5,1233.82,223.04,1234.4,221.01z M1235.01,210.23c-0.08-3.09-0.87-5.43-2.39-7.04
				c-1.52-1.61-3.37-2.41-5.54-2.41c-2.33,0-4.25,0.85-5.77,2.54c-1.52,1.7-2.27,4-2.24,6.91H1235.01z"/>
			<path d="M1253.5,193.53h9.83v5.5c3.52-4.28,7.71-6.41,12.56-6.41c2.58,0,4.82,0.53,6.72,1.59c1.9,1.06,3.45,2.67,4.67,4.82
				c1.77-2.15,3.68-3.76,5.73-4.82c2.05-1.06,4.24-1.59,6.57-1.59c2.96,0,5.47,0.6,7.52,1.8c2.05,1.2,3.58,2.97,4.59,5.3
				c0.73,1.72,1.1,4.5,1.1,8.35v25.77h-10.67V210.8c0-4-0.37-6.58-1.1-7.74c-0.99-1.52-2.51-2.28-4.55-2.28
				c-1.49,0-2.9,0.46-4.21,1.37c-1.32,0.91-2.26,2.25-2.85,4c-0.58,1.76-0.87,4.54-0.87,8.33v19.36h-10.67v-22.09
				c0-3.92-0.19-6.45-0.57-7.59c-0.38-1.14-0.97-1.99-1.77-2.54c-0.8-0.56-1.88-0.84-3.25-0.84c-1.65,0-3.13,0.44-4.44,1.33
				c-1.32,0.89-2.26,2.16-2.83,3.83c-0.57,1.67-0.85,4.44-0.85,8.31v19.59h-10.67V193.53z"/>
			<path d="M1318.37,193.53h11.35l9.64,28.62l9.41-28.62h11.05l-14.23,38.79l-2.54,7.02c-0.94,2.35-1.83,4.15-2.68,5.39
				c-0.85,1.24-1.82,2.25-2.92,3.02c-1.1,0.77-2.46,1.37-4.06,1.8c-1.61,0.43-3.42,0.65-5.45,0.65c-2.05,0-4.06-0.22-6.04-0.65
				l-0.95-8.35c1.67,0.33,3.18,0.49,4.52,0.49c2.48,0,4.31-0.73,5.5-2.18c1.19-1.46,2.1-3.31,2.73-5.56L1318.37,193.53z"/>
			<path d="M1362.89,222.34l10.7-1.63c0.46,2.08,1.38,3.65,2.77,4.73c1.39,1.08,3.34,1.61,5.85,1.61c2.76,0,4.83-0.51,6.23-1.52
				c0.94-0.71,1.4-1.66,1.4-2.85c0-0.81-0.25-1.48-0.76-2.01c-0.53-0.51-1.72-0.97-3.57-1.4c-8.6-1.9-14.06-3.63-16.36-5.2
				c-3.19-2.18-4.78-5.2-4.78-9.07c0-3.49,1.38-6.43,4.14-8.81c2.76-2.38,7.03-3.57,12.83-3.57c5.52,0,9.62,0.9,12.3,2.7
				c2.68,1.8,4.53,4.45,5.54,7.97l-10.06,1.86c-0.43-1.57-1.25-2.77-2.45-3.61c-1.2-0.84-2.92-1.25-5.14-1.25
				c-2.81,0-4.82,0.39-6.04,1.18c-0.81,0.56-1.21,1.28-1.21,2.16c0,0.76,0.35,1.4,1.06,1.94c0.96,0.71,4.28,1.71,9.96,3
				c5.68,1.29,9.65,2.87,11.9,4.74c2.23,1.9,3.34,4.54,3.34,7.93c0,3.69-1.54,6.87-4.63,9.53c-3.09,2.66-7.66,3.99-13.7,3.99
				c-5.49,0-9.84-1.11-13.04-3.34C1365.97,229.18,1363.88,226.16,1362.89,222.34z"/>
			<path d="M1409.88,206.51v-28.32h10.67v19.24l5.2-4.4v7.21l-5.2,4.4v29.19h-10.67v-20.12l-5.2,4.4v-7.21L1409.88,206.51z"/>
			<path d="M1439.45,205.83l-9.68-1.75c1.09-3.9,2.96-6.78,5.62-8.65c2.66-1.87,6.6-2.81,11.84-2.81c4.76,0,8.3,0.56,10.63,1.69
				c2.33,1.13,3.97,2.56,4.92,4.29c0.95,1.73,1.42,4.92,1.42,9.55l-0.11,12.45c0,3.54,0.17,6.16,0.51,7.84
				c0.34,1.68,0.98,3.49,1.92,5.41h-10.55c-0.28-0.71-0.62-1.76-1.02-3.15c-0.18-0.63-0.3-1.05-0.38-1.25
				c-1.82,1.77-3.77,3.1-5.85,3.99c-2.08,0.89-4.29,1.33-6.64,1.33c-4.15,0-7.42-1.13-9.81-3.38c-2.39-2.25-3.59-5.1-3.59-8.54
				c0-2.28,0.54-4.31,1.63-6.09c1.09-1.78,2.61-3.15,4.57-4.1c1.96-0.95,4.79-1.78,8.48-2.49c4.98-0.94,8.44-1.81,10.36-2.62v-1.06
				c0-2.05-0.51-3.51-1.52-4.38c-1.01-0.87-2.92-1.31-5.73-1.31c-1.9,0-3.38,0.37-4.44,1.12
				C1440.97,202.65,1440.11,203.96,1439.45,205.83z M1453.72,214.48c-1.37,0.46-3.53,1-6.49,1.63c-2.96,0.63-4.9,1.25-5.81,1.86
				c-1.39,0.99-2.09,2.24-2.09,3.76c0,1.49,0.56,2.78,1.67,3.87c1.11,1.09,2.53,1.63,4.25,1.63c1.92,0,3.76-0.63,5.5-1.9
				c1.29-0.96,2.14-2.14,2.54-3.53c0.28-0.91,0.42-2.64,0.42-5.2V214.48z"/>
			<path d="M1482.23,233.84l-12.75-40.31h10.36l7.55,26.42l6.95-26.42h10.29l6.72,26.42l7.71-26.42h10.51l-12.94,40.31h-10.25
				l-6.95-25.93l-6.83,25.93H1482.23z"/>
			<path d="M1559.21,178.19h20.54c4.63,0,8.16,0.35,10.59,1.06c3.26,0.96,6.06,2.67,8.39,5.12c2.33,2.46,4.1,5.46,5.31,9.02
				c1.21,3.56,1.82,7.94,1.82,13.15c0,4.58-0.57,8.53-1.71,11.84c-1.39,4.05-3.38,7.33-5.96,9.83c-1.95,1.9-4.58,3.38-7.9,4.44
				c-2.48,0.78-5.8,1.18-9.95,1.18h-21.14V178.19z M1570.44,187.61v36.86h8.39c3.14,0,5.4-0.18,6.79-0.53
				c1.82-0.46,3.33-1.23,4.54-2.32c1.2-1.09,2.18-2.88,2.94-5.37c0.76-2.49,1.14-5.89,1.14-10.19c0-4.3-0.38-7.6-1.14-9.91
				c-0.76-2.3-1.82-4.1-3.19-5.39c-1.37-1.29-3.1-2.16-5.2-2.62c-1.57-0.35-4.64-0.53-9.22-0.53H1570.44z"/>
			<path d="M1610.26,193.53h11.35l9.64,28.62l9.41-28.62h11.05l-14.23,38.79l-2.54,7.02c-0.94,2.35-1.83,4.15-2.68,5.39
				c-0.85,1.24-1.82,2.25-2.92,3.02c-1.1,0.77-2.46,1.37-4.06,1.8c-1.61,0.43-3.42,0.65-5.45,0.65c-2.05,0-4.06-0.22-6.04-0.65
				l-0.95-8.35c1.67,0.33,3.18,0.49,4.52,0.49c2.48,0,4.31-0.73,5.5-2.18c1.19-1.46,2.1-3.31,2.73-5.56L1610.26,193.53z"/>
			<path d="M1657.74,193.53h9.83v5.5c3.52-4.28,7.71-6.41,12.56-6.41c2.58,0,4.82,0.53,6.72,1.59c1.9,1.06,3.45,2.67,4.67,4.82
				c1.77-2.15,3.68-3.76,5.73-4.82s4.24-1.59,6.57-1.59c2.96,0,5.47,0.6,7.52,1.8c2.05,1.2,3.58,2.97,4.59,5.3
				c0.73,1.72,1.1,4.5,1.1,8.35v25.77h-10.67V210.8c0-4-0.37-6.58-1.1-7.74c-0.99-1.52-2.51-2.28-4.55-2.28
				c-1.49,0-2.9,0.46-4.21,1.37c-1.32,0.91-2.27,2.25-2.85,4c-0.58,1.76-0.87,4.54-0.87,8.33v19.36h-10.67v-22.09
				c0-3.92-0.19-6.45-0.57-7.59c-0.38-1.14-0.97-1.99-1.77-2.54c-0.8-0.56-1.88-0.84-3.25-0.84c-1.65,0-3.13,0.44-4.44,1.33
				c-1.32,0.89-2.26,2.16-2.83,3.83c-0.57,1.67-0.85,4.44-0.85,8.31v19.59h-10.67V193.53z"/>
			<path d="M1751.01,221.01l10.63,1.78c-1.37,3.9-3.52,6.86-6.47,8.9c-2.95,2.04-6.64,3.06-11.06,3.06c-7.01,0-12.2-2.29-15.56-6.87
				c-2.66-3.67-3.99-8.3-3.99-13.89c0-6.68,1.75-11.91,5.24-15.7c3.49-3.78,7.91-5.67,13.25-5.67c6,0,10.73,1.98,14.2,5.94
				c3.47,3.96,5.12,10.03,4.97,18.2h-26.72c0.08,3.16,0.94,5.62,2.58,7.38c1.64,1.76,3.69,2.64,6.15,2.64
				c1.67,0,3.07-0.46,4.21-1.37C1749.56,224.5,1750.42,223.04,1751.01,221.01z M1751.61,210.23c-0.08-3.09-0.87-5.43-2.39-7.04
				c-1.52-1.61-3.37-2.41-5.54-2.41c-2.33,0-4.25,0.85-5.77,2.54c-1.52,1.7-2.27,4-2.24,6.91H1751.61z"/>
			<path d="M1770.52,233.84v-55.65h10.67v29.53l12.49-14.2h13.13l-13.78,14.73l14.77,25.58h-11.5l-10.13-18.11l-4.97,5.2v12.91
				H1770.52z"/>
		</g>
		<g>
			<path d="M769.28,348.65l10.05-47.98h20.03c3.47,0,6.07,0.4,7.81,1.19c1.73,0.8,3.17,2.16,4.3,4.09c1.13,1.93,1.7,4.1,1.7,6.5
				c0,1.99-0.4,4-1.21,6.05c-0.81,2.05-1.83,3.74-3.06,5.07c-1.23,1.33-2.48,2.33-3.75,3.01c-1.27,0.68-2.62,1.18-4.06,1.51
				c-3.08,0.72-6.19,1.08-9.33,1.08h-12.01l-4.06,19.47H769.28z M780.9,323.74h10.57c4.1,0,7.11-0.44,9.03-1.32
				c1.92-0.88,3.46-2.23,4.61-4.04c1.16-1.81,1.73-3.73,1.73-5.76c0-1.57-0.31-2.85-0.92-3.85c-0.61-0.99-1.47-1.72-2.59-2.19
				s-3.25-0.7-6.41-0.7h-12.31L780.9,323.74z"/>
			<path d="M813.33,348.65l7.27-34.76h5.24l-1.47,7.1c1.79-2.68,3.54-4.67,5.25-5.96c1.71-1.29,3.46-1.93,5.25-1.93
				c1.18,0,2.63,0.43,4.35,1.28l-2.42,5.5c-1.03-0.74-2.15-1.11-3.37-1.11c-2.07,0-4.2,1.16-6.38,3.47
				c-2.18,2.31-3.89,6.47-5.14,12.47l-2.95,13.94H813.33z"/>
			<path d="M859.08,344.33c-2.05,1.77-4.03,3.06-5.92,3.88c-1.9,0.82-3.93,1.23-6.09,1.23c-3.21,0-5.79-0.94-7.76-2.83
				c-1.96-1.89-2.95-4.3-2.95-7.25c0-1.94,0.44-3.66,1.33-5.15c0.88-1.49,2.06-2.69,3.52-3.6c1.46-0.91,3.25-1.55,5.37-1.95
				c1.33-0.26,3.86-0.47,7.58-0.62c3.72-0.15,6.39-0.54,8-1.18c0.46-1.61,0.69-2.96,0.69-4.03c0-1.37-0.5-2.45-1.51-3.24
				c-1.37-1.09-3.38-1.64-6.02-1.64c-2.49,0-4.52,0.55-6.1,1.65c-1.58,1.1-2.73,2.67-3.45,4.7l-5.99-0.52
				c1.22-3.45,3.16-6.09,5.81-7.92c2.65-1.83,5.99-2.75,10.03-2.75c4.3,0,7.7,1.03,10.21,3.08c1.92,1.53,2.88,3.51,2.88,5.96
				c0,1.85-0.27,4-0.82,6.45l-1.93,8.64c-0.61,2.75-0.92,4.99-0.92,6.71c0,1.09,0.24,2.66,0.72,4.71h-5.99
				C859.44,347.52,859.22,346.08,859.08,344.33z M861.28,331.04c-0.83,0.33-1.72,0.58-2.67,0.75c-0.95,0.17-2.54,0.36-4.76,0.56
				c-3.45,0.31-5.88,0.69-7.3,1.16c-1.42,0.47-2.49,1.22-3.21,2.24c-0.72,1.03-1.08,2.16-1.08,3.4c0,1.66,0.57,3.02,1.72,4.09
				c1.15,1.07,2.78,1.6,4.89,1.6c1.96,0,3.85-0.52,5.66-1.55c1.81-1.04,3.24-2.48,4.29-4.34
				C859.87,337.11,860.69,334.47,861.28,331.04z"/>
			<path d="M896.92,335.98l5.92,0.62c-1.48,4.34-3.59,7.57-6.33,9.67c-2.74,2.11-5.85,3.16-9.34,3.16c-3.77,0-6.83-1.22-9.18-3.67
				c-2.35-2.44-3.52-5.86-3.52-10.24c0-3.8,0.75-7.53,2.26-11.19s3.66-6.45,6.46-8.36c2.8-1.91,6.01-2.86,9.61-2.86
				c3.73,0,6.69,1.05,8.87,3.16c2.18,2.11,3.27,4.89,3.27,8.36l-5.83,0.39c-0.02-2.2-0.66-3.93-1.91-5.17
				c-1.25-1.24-2.91-1.87-4.96-1.87c-2.38,0-4.44,0.75-6.19,2.26c-1.75,1.51-3.11,3.79-4.11,6.86c-0.99,3.07-1.49,6.02-1.49,8.85
				c0,2.97,0.65,5.19,1.96,6.68c1.31,1.48,2.92,2.23,4.84,2.23c1.92,0,3.76-0.73,5.51-2.19
				C894.53,341.2,895.91,338.97,896.92,335.98z"/>
			<path d="M907.49,335.46c0-6.79,2-12.4,5.99-16.85c3.29-3.67,7.61-5.5,12.96-5.5c4.19,0,7.57,1.31,10.13,3.93
				c2.56,2.62,3.85,6.15,3.85,10.6c0,3.99-0.81,7.71-2.42,11.14c-1.61,3.44-3.91,6.07-6.89,7.9c-2.98,1.83-6.11,2.75-9.41,2.75
				c-2.71,0-5.17-0.58-7.38-1.73c-2.21-1.16-3.91-2.79-5.07-4.91C908.07,340.68,907.49,338.23,907.49,335.46z M913.41,334.87
				c0,3.27,0.79,5.76,2.36,7.45c1.57,1.69,3.57,2.54,5.99,2.54c1.27,0,2.52-0.26,3.76-0.77c1.24-0.51,2.4-1.29,3.47-2.34
				c1.07-1.05,1.98-2.24,2.73-3.58c0.75-1.34,1.36-2.79,1.82-4.34c0.68-2.16,1.01-4.23,1.01-6.22c0-3.14-0.79-5.58-2.37-7.32
				c-1.58-1.73-3.57-2.6-5.97-2.6c-1.85,0-3.55,0.44-5.07,1.33c-1.53,0.88-2.91,2.18-4.14,3.88c-1.23,1.7-2.14,3.68-2.72,5.94
				C913.7,331.09,913.41,333.1,913.41,334.87z"/>
			<path d="M950.33,348.65l-3.63-34.76h5.69l1.57,15.61l0.62,8.77c0.04,0.65,0.11,1.98,0.2,3.96c0.65-2.23,1.21-3.93,1.67-5.12
				c0.46-1.19,1.19-2.88,2.19-5.09l8.28-18.13h6.45l1.15,17.38c0.17,2.64,0.28,6.16,0.33,10.57c1.09-2.92,2.87-6.98,5.33-12.17
				l7.46-15.77h5.92l-16.99,34.76h-6.15l-1.31-20.39c-0.09-1.27-0.15-3.73-0.2-7.4c-0.9,2.33-1.95,4.86-3.17,7.56l-9.2,20.23H950.33
				z"/>
			<path d="M992.12,348.65l7.27-34.76h5.37l-1.28,6.05c2.33-2.38,4.52-4.11,6.55-5.2c2.03-1.09,4.1-1.64,6.22-1.64
				c2.81,0,5.02,0.76,6.63,2.29c1.6,1.53,2.41,3.57,2.41,6.12c0,1.29-0.28,3.32-0.85,6.09l-4.42,21.04h-5.92l4.61-22.03
				c0.46-2.14,0.69-3.72,0.69-4.75c0-1.16-0.4-2.09-1.19-2.81c-0.8-0.72-1.95-1.08-3.45-1.08c-3.03,0-5.73,1.09-8.1,3.27
				c-2.37,2.18-4.11,5.92-5.22,11.23l-3.37,16.17H992.12z"/>
			<path d="M1029.17,348.65l7.27-34.76h5.92l-7.27,34.76H1029.17z M1037.81,307.38l1.41-6.71h5.89l-1.41,6.71H1037.81z"/>
			<path d="M1067.72,344.33c-2.05,1.77-4.03,3.06-5.92,3.88c-1.9,0.82-3.93,1.23-6.09,1.23c-3.21,0-5.79-0.94-7.76-2.83
				c-1.96-1.89-2.95-4.3-2.95-7.25c0-1.94,0.44-3.66,1.33-5.15c0.88-1.49,2.06-2.69,3.52-3.6c1.46-0.91,3.25-1.55,5.37-1.95
				c1.33-0.26,3.86-0.47,7.58-0.62c3.72-0.15,6.39-0.54,8-1.18c0.46-1.61,0.69-2.96,0.69-4.03c0-1.37-0.5-2.45-1.51-3.24
				c-1.37-1.09-3.38-1.64-6.02-1.64c-2.49,0-4.52,0.55-6.1,1.65c-1.58,1.1-2.73,2.67-3.45,4.7l-5.99-0.52
				c1.22-3.45,3.16-6.09,5.81-7.92c2.65-1.83,5.99-2.75,10.03-2.75c4.3,0,7.7,1.03,10.21,3.08c1.92,1.53,2.88,3.51,2.88,5.96
				c0,1.85-0.27,4-0.82,6.45l-1.93,8.64c-0.61,2.75-0.92,4.99-0.92,6.71c0,1.09,0.24,2.66,0.72,4.71h-5.99
				C1068.08,347.52,1067.85,346.08,1067.72,344.33z M1069.91,331.04c-0.83,0.33-1.72,0.58-2.67,0.75c-0.95,0.17-2.54,0.36-4.76,0.56
				c-3.45,0.31-5.88,0.69-7.3,1.16c-1.42,0.47-2.49,1.22-3.21,2.24c-0.72,1.03-1.08,2.16-1.08,3.4c0,1.66,0.57,3.02,1.72,4.09
				c1.15,1.07,2.78,1.6,4.89,1.6c1.96,0,3.85-0.52,5.66-1.55c1.81-1.04,3.24-2.48,4.29-4.34
				C1068.51,337.11,1069.32,334.47,1069.91,331.04z"/>
			<path d="M1118.72,348.65l10.05-47.98h6.38l-10.01,47.98H1118.72z"/>
			<path d="M1135.74,348.65l7.27-34.76h5.37l-1.28,6.05c2.33-2.38,4.52-4.11,6.55-5.2c2.03-1.09,4.1-1.64,6.22-1.64
				c2.81,0,5.02,0.76,6.63,2.29c1.6,1.53,2.41,3.57,2.41,6.12c0,1.29-0.28,3.32-0.85,6.09l-4.42,21.04h-5.92l4.61-22.03
				c0.46-2.14,0.69-3.72,0.69-4.75c0-1.16-0.4-2.09-1.19-2.81c-0.8-0.72-1.95-1.08-3.45-1.08c-3.03,0-5.73,1.09-8.1,3.27
				c-2.37,2.18-4.11,5.92-5.22,11.23l-3.37,16.17H1135.74z"/>
			<path d="M1172.1,348.65l0.95-4.58l18.69-21.04c1.33-1.48,2.81-3.02,4.45-4.61c-2.81,0.28-4.83,0.43-6.05,0.43h-12.93l1.05-4.94
				h26.87l-0.79,3.73l-18.85,21.17c-1.07,1.2-2.66,2.85-4.78,4.94c3.29-0.2,5.55-0.29,6.77-0.29h13.68l-1.08,5.2H1172.1z
				 M1187.71,309.08l1.54-7.3h7.3l-1.57,7.3H1187.71z"/>
			<path d="M1204.3,362.07l0.36-5.56c1.22,0.35,2.41,0.52,3.57,0.52c1.2,0,2.17-0.27,2.91-0.82c0.96-0.72,2.01-2.07,3.14-4.06
				l1.9-3.4l-5.79-34.85h5.83l2.62,17.57c0.52,3.47,0.97,6.94,1.34,10.41l15.55-27.98h6.19l-22.16,39.37
				c-2.14,3.84-4.04,6.38-5.69,7.63c-1.66,1.24-3.57,1.87-5.73,1.87C1206.95,362.75,1205.61,362.53,1204.3,362.07z"/>
			<path d="M1240.04,348.65l7.27-34.76h5.37l-1.28,6.05c2.33-2.38,4.52-4.11,6.55-5.2c2.03-1.09,4.1-1.64,6.22-1.64
				c2.81,0,5.02,0.76,6.63,2.29c1.6,1.53,2.41,3.57,2.41,6.12c0,1.29-0.28,3.32-0.85,6.09l-4.42,21.04H1262l4.61-22.03
				c0.46-2.14,0.69-3.72,0.69-4.75c0-1.16-0.4-2.09-1.19-2.81c-0.8-0.72-1.95-1.08-3.45-1.08c-3.03,0-5.73,1.09-8.1,3.27
				c-2.37,2.18-4.11,5.92-5.22,11.23l-3.37,16.17H1240.04z"/>
			<path d="M1277.09,348.65l7.27-34.76h5.92l-7.27,34.76H1277.09z M1285.73,307.38l1.41-6.71h5.89l-1.41,6.71H1285.73z"/>
			<path d="M1317.74,336.83l5.76,0.59c-0.83,2.86-2.73,5.57-5.71,8.15c-2.98,2.57-6.53,3.86-10.65,3.86c-2.57,0-4.94-0.59-7.09-1.78
				c-2.15-1.19-3.79-2.92-4.91-5.19c-1.12-2.27-1.69-4.85-1.69-7.76c0-3.8,0.88-7.48,2.63-11.05c1.76-3.57,4.03-6.22,6.82-7.95
				c2.79-1.73,5.81-2.6,9.07-2.6c4.15,0,7.46,1.29,9.93,3.86c2.48,2.57,3.71,6.09,3.71,10.54c0,1.7-0.15,3.45-0.46,5.24h-25.59
				c-0.09,0.68-0.13,1.29-0.13,1.83c0,3.25,0.75,5.73,2.24,7.45c1.49,1.71,3.32,2.57,5.48,2.57c2.03,0,4.03-0.67,5.99-2
				C1315.12,341.26,1316.64,339.34,1317.74,336.83z M1300.52,328.23h19.51c0.02-0.61,0.03-1.05,0.03-1.31
				c0-2.97-0.74-5.24-2.23-6.82c-1.48-1.58-3.39-2.37-5.73-2.37c-2.53,0-4.84,0.87-6.92,2.62
				C1303.1,322.09,1301.55,324.72,1300.52,328.23z"/>
			<path d="M1329.48,348.65l7.27-34.76h5.24l-1.47,7.1c1.79-2.68,3.54-4.67,5.25-5.96c1.71-1.29,3.46-1.93,5.25-1.93
				c1.18,0,2.63,0.43,4.35,1.28l-2.42,5.5c-1.03-0.74-2.15-1.11-3.37-1.11c-2.07,0-4.2,1.16-6.38,3.47
				c-2.18,2.31-3.89,6.47-5.14,12.47l-2.95,13.94H1329.48z"/>
			<path d="M1352.36,336.77l5.92-0.36c0,1.7,0.26,3.15,0.79,4.35c0.52,1.2,1.49,2.18,2.9,2.95c1.41,0.76,3.05,1.15,4.93,1.15
				c2.62,0,4.58-0.52,5.89-1.57s1.96-2.28,1.96-3.7c0-1.03-0.39-2-1.18-2.91c-0.81-0.92-2.78-2.05-5.91-3.39
				c-3.13-1.34-5.13-2.29-6.01-2.83c-1.46-0.89-2.56-1.95-3.31-3.16c-0.74-1.21-1.11-2.6-1.11-4.17c0-2.75,1.09-5.11,3.27-7.07
				c2.18-1.96,5.24-2.95,9.16-2.95c4.36,0,7.68,1.01,9.97,3.03c2.28,2.02,3.46,4.67,3.55,7.97l-5.79,0.39
				c-0.09-2.09-0.83-3.75-2.23-4.97c-1.4-1.22-3.37-1.83-5.92-1.83c-2.05,0-3.64,0.47-4.78,1.41c-1.13,0.94-1.7,1.95-1.7,3.04
				c0,1.09,0.49,2.05,1.47,2.88c0.65,0.57,2.35,1.44,5.07,2.62c4.54,1.96,7.4,3.51,8.58,4.65c1.88,1.81,2.81,4.01,2.81,6.61
				c0,1.72-0.53,3.41-1.59,5.07c-1.06,1.66-2.67,2.98-4.84,3.98c-2.17,0.99-4.73,1.49-7.67,1.49c-4.01,0-7.43-0.99-10.24-2.98
				C1353.54,344.47,1352.21,341.24,1352.36,336.77z"/>
			<path d="M1385.38,348.65l10.05-47.98h5.89l-6.22,29.75l17.28-16.53h7.82l-14.82,12.96l8.97,21.8h-6.48l-6.94-17.84l-7.2,6.22
				l-2.42,11.62H1385.38z"/>
			<path d="M1419.88,335.46c0-6.79,2-12.4,5.99-16.85c3.29-3.67,7.61-5.5,12.96-5.5c4.19,0,7.57,1.31,10.13,3.93
				c2.56,2.62,3.85,6.15,3.85,10.6c0,3.99-0.81,7.71-2.42,11.14c-1.61,3.44-3.91,6.07-6.89,7.9c-2.98,1.83-6.11,2.75-9.41,2.75
				c-2.71,0-5.17-0.58-7.38-1.73c-2.22-1.16-3.91-2.79-5.07-4.91C1420.46,340.68,1419.88,338.23,1419.88,335.46z M1425.8,334.87
				c0,3.27,0.79,5.76,2.36,7.45s3.57,2.54,5.99,2.54c1.27,0,2.52-0.26,3.76-0.77c1.24-0.51,2.4-1.29,3.47-2.34
				c1.07-1.05,1.98-2.24,2.73-3.58c0.75-1.34,1.36-2.79,1.82-4.34c0.68-2.16,1.01-4.23,1.01-6.22c0-3.14-0.79-5.58-2.37-7.32
				c-1.58-1.73-3.57-2.6-5.97-2.6c-1.85,0-3.55,0.44-5.07,1.33c-1.53,0.88-2.91,2.18-4.14,3.88c-1.23,1.7-2.14,3.68-2.72,5.94
				C1426.09,331.09,1425.8,333.1,1425.8,334.87z"/>
			<path d="M1475.61,334.25l1.24-5.92h18.07l-1.21,5.92H1475.61z"/>
			<path d="M1526.73,300.67h6.41l-6.15,29.49c-0.5,2.44-0.75,4.26-0.75,5.43c0,2.57,1.01,4.65,3.04,6.22s4.58,2.36,7.66,2.36
				c2.44,0,4.72-0.56,6.82-1.69c2.1-1.12,3.77-2.78,4.99-4.96c1.22-2.18,2.32-5.66,3.31-10.44l5.53-26.41h6.41l-5.86,28.15
				c-1,4.8-2.32,8.6-3.96,11.41c-1.64,2.8-3.91,5.05-6.81,6.74c-2.9,1.69-6.27,2.54-10.11,2.54c-3.62,0-6.76-0.6-9.41-1.8
				c-2.65-1.2-4.64-2.86-5.96-4.97c-1.32-2.12-1.98-4.52-1.98-7.2c0-1.68,0.45-4.57,1.34-8.67L1526.73,300.67z"/>
			<path d="M1564.63,336.77l5.92-0.36c0,1.7,0.26,3.15,0.79,4.35c0.52,1.2,1.49,2.18,2.9,2.95c1.41,0.76,3.05,1.15,4.93,1.15
				c2.62,0,4.58-0.52,5.89-1.57s1.96-2.28,1.96-3.7c0-1.03-0.39-2-1.18-2.91c-0.81-0.92-2.78-2.05-5.91-3.39
				c-3.13-1.34-5.13-2.29-6.01-2.83c-1.46-0.89-2.56-1.95-3.31-3.16c-0.74-1.21-1.11-2.6-1.11-4.17c0-2.75,1.09-5.11,3.27-7.07
				c2.18-1.96,5.24-2.95,9.16-2.95c4.36,0,7.68,1.01,9.97,3.03c2.28,2.02,3.46,4.67,3.55,7.97l-5.79,0.39
				c-0.09-2.09-0.83-3.75-2.23-4.97c-1.4-1.22-3.37-1.83-5.92-1.83c-2.05,0-3.64,0.47-4.78,1.41c-1.13,0.94-1.7,1.95-1.7,3.04
				c0,1.09,0.49,2.05,1.47,2.88c0.65,0.57,2.35,1.44,5.07,2.62c4.54,1.96,7.4,3.51,8.58,4.65c1.88,1.81,2.81,4.01,2.81,6.61
				c0,1.72-0.53,3.41-1.59,5.07c-1.06,1.66-2.67,2.98-4.84,3.98c-2.17,0.99-4.73,1.49-7.67,1.49c-4.01,0-7.43-0.99-10.24-2.98
				C1565.81,344.47,1564.48,341.24,1564.63,336.77z"/>
			<path d="M1601.58,328.26l-4.97,2.65l1.08-5.11l4.97-2.62l4.68-22.52h5.92l-3.96,18.98l5.17-2.75l-1.05,5.07l-5.17,2.75
				l-5.01,23.92h-5.92L1601.58,328.26z"/>
			<path d="M1636.2,342.37c-4.17,4.71-8.43,7.07-12.8,7.07c-2.68,0-4.85-0.77-6.5-2.31c-1.65-1.54-2.47-3.42-2.47-5.64
				c0-1.46,0.37-3.97,1.11-7.53l4.19-20.06h5.92l-4.65,22.22c-0.39,1.85-0.59,3.29-0.59,4.32c0,1.31,0.4,2.33,1.19,3.06
				c0.8,0.73,1.97,1.1,3.52,1.1c1.66,0,3.28-0.4,4.86-1.21c1.58-0.81,2.95-1.9,4.09-3.27c1.15-1.37,2.08-3,2.8-4.88
				c0.48-1.2,1.04-3.31,1.67-6.32l3.14-15.02h5.92l-7.27,34.76h-5.47L1636.2,342.37z"/>
			<path d="M1649.43,351.79l5.99,0.56c-0.04,1.35,0.12,2.37,0.49,3.04c0.37,0.68,0.96,1.2,1.77,1.57c1.07,0.48,2.45,0.72,4.16,0.72
				c3.58,0,6.15-0.93,7.72-2.78c1.03-1.24,1.97-3.95,2.85-8.12l0.59-2.81c-3.08,3.12-6.35,4.68-9.82,4.68
				c-3.51,0-6.45-1.29-8.82-3.88c-2.37-2.59-3.55-6.25-3.55-10.98c0-3.91,0.93-7.49,2.8-10.77c1.87-3.27,4.09-5.74,6.66-7.41
				c2.57-1.67,5.22-2.5,7.95-2.5c4.56,0,8.07,2.16,10.54,6.48l1.18-5.69h5.43l-7,33.54c-0.76,3.69-1.77,6.56-3.01,8.62
				c-1.24,2.06-2.97,3.66-5.19,4.79c-2.21,1.13-4.77,1.7-7.67,1.7c-2.79,0-5.2-0.36-7.22-1.08c-2.02-0.72-3.52-1.77-4.52-3.16
				c-0.99-1.39-1.49-2.97-1.49-4.76C1649.26,353.01,1649.32,352.42,1649.43,351.79z M1656.82,333.27c0,2.38,0.23,4.17,0.69,5.37
				c0.65,1.68,1.59,2.96,2.8,3.85c1.21,0.88,2.56,1.33,4.04,1.33c1.94,0,3.87-0.68,5.79-2.05c1.92-1.36,3.47-3.47,4.66-6.33
				c1.19-2.86,1.78-5.58,1.78-8.18c0-2.86-0.79-5.13-2.37-6.82c-1.58-1.69-3.54-2.54-5.87-2.54c-1.44,0-2.84,0.39-4.19,1.16
				c-1.35,0.78-2.61,1.95-3.78,3.53c-1.17,1.58-2.05,3.47-2.65,5.68C1657.12,330.46,1656.82,332.13,1656.82,333.27z"/>
			<path d="M1688.08,335.46c0-6.79,2-12.4,5.99-16.85c3.29-3.67,7.61-5.5,12.96-5.5c4.19,0,7.57,1.31,10.13,3.93
				c2.56,2.62,3.85,6.15,3.85,10.6c0,3.99-0.81,7.71-2.42,11.14c-1.61,3.44-3.91,6.07-6.89,7.9c-2.98,1.83-6.11,2.75-9.41,2.75
				c-2.71,0-5.17-0.58-7.38-1.73c-2.22-1.16-3.91-2.79-5.07-4.91C1688.66,340.68,1688.08,338.23,1688.08,335.46z M1694,334.87
				c0,3.27,0.79,5.76,2.36,7.45s3.57,2.54,5.99,2.54c1.27,0,2.52-0.26,3.76-0.77c1.24-0.51,2.4-1.29,3.47-2.34
				c1.07-1.05,1.98-2.24,2.73-3.58c0.75-1.34,1.36-2.79,1.82-4.34c0.68-2.16,1.01-4.23,1.01-6.22c0-3.14-0.79-5.58-2.37-7.32
				c-1.58-1.73-3.57-2.6-5.97-2.6c-1.85,0-3.55,0.44-5.07,1.33c-1.53,0.88-2.91,2.18-4.14,3.88c-1.23,1.7-2.14,3.68-2.72,5.94
				C1694.29,331.09,1694,333.1,1694,334.87z"/>
			<path d="M1730.92,348.65l-3.63-34.76h5.7l1.57,15.61l0.62,8.77c0.04,0.65,0.11,1.98,0.2,3.96c0.65-2.23,1.21-3.93,1.67-5.12
				c0.46-1.19,1.19-2.88,2.19-5.09l8.28-18.13h6.45l1.15,17.38c0.17,2.64,0.28,6.16,0.33,10.57c1.09-2.92,2.87-6.98,5.33-12.17
				l7.46-15.77h5.92l-16.99,34.76h-6.15l-1.31-20.39c-0.09-1.27-0.15-3.73-0.2-7.4c-0.9,2.33-1.95,4.86-3.17,7.56l-9.2,20.23
				H1730.92z"/>
			<path d="M1796.14,344.33c-2.05,1.77-4.03,3.06-5.92,3.88c-1.9,0.82-3.93,1.23-6.09,1.23c-3.21,0-5.79-0.94-7.76-2.83
				c-1.96-1.89-2.95-4.3-2.95-7.25c0-1.94,0.44-3.66,1.33-5.15c0.88-1.49,2.06-2.69,3.52-3.6c1.46-0.91,3.25-1.55,5.37-1.95
				c1.33-0.26,3.86-0.47,7.58-0.62c3.72-0.15,6.39-0.54,8-1.18c0.46-1.61,0.69-2.96,0.69-4.03c0-1.37-0.5-2.45-1.5-3.24
				c-1.38-1.09-3.38-1.64-6.02-1.64c-2.49,0-4.52,0.55-6.1,1.65c-1.58,1.1-2.73,2.67-3.45,4.7l-5.99-0.52
				c1.22-3.45,3.16-6.09,5.81-7.92c2.65-1.83,5.99-2.75,10.03-2.75c4.3,0,7.7,1.03,10.21,3.08c1.92,1.53,2.88,3.51,2.88,5.96
				c0,1.85-0.27,4-0.82,6.45l-1.93,8.64c-0.61,2.75-0.92,4.99-0.92,6.71c0,1.09,0.24,2.66,0.72,4.71h-5.99
				C1796.5,347.52,1796.27,346.08,1796.14,344.33z M1798.33,331.04c-0.83,0.33-1.72,0.58-2.67,0.75c-0.95,0.17-2.54,0.36-4.76,0.56
				c-3.45,0.31-5.88,0.69-7.3,1.16c-1.42,0.47-2.49,1.22-3.21,2.24c-0.72,1.03-1.08,2.16-1.08,3.4c0,1.66,0.57,3.02,1.72,4.09
				c1.15,1.07,2.78,1.6,4.89,1.6c1.96,0,3.85-0.52,5.66-1.55c1.81-1.04,3.24-2.48,4.29-4.34
				C1796.93,337.11,1797.74,334.47,1798.33,331.04z"/>
		</g>
		<rect x="769.28" y="271.38" width="1039.05" height="7.63"/>
	</g>
	<g>
		<g>
			<path d="M152.83,403.03h-4.72v25.49c-1.32,0.05-2.44,0.07-3.37,0.07c-5.57,0-10.67-1.29-15.31-3.88
				c-4.66-2.61-8.33-6.18-10.99-10.69c-2.66-4.49-3.99-9.48-3.99-14.98c0-2.81,0.54-5.71,1.61-8.72c1.05-2.95,2.58-5.72,4.58-8.31
				c1.93-2.51,4.21-4.66,6.85-6.45c5.08-3.34,11.54-5.02,19.37-5.02h28.2v24.32l-27.03-21.9v25.56h31.42v30.21l-8.61-6.15
				c-1.59,1.12-2.94,1.98-4.06,2.56c-1.05,0.54-2.65,1.16-4.8,1.87c-2.71,0.98-5.24,1.5-7.58,1.57h-1.57V403.03z"/>
			<path d="M231.97,412.4l2.23,1.03c-0.68,1.93-1.32,3.43-1.9,4.5c-0.61,1.12-1.42,2.22-2.42,3.3c-2.05,2.34-4.36,4.03-6.92,5.05
				c-3.61,1.54-7.93,2.31-12.96,2.31c-2.91,0-5.54-0.24-7.91-0.73c-2.39-0.49-4.49-1.21-6.3-2.16c-1.88-0.95-3.56-2.21-5.05-3.77
				c-1.95-2.03-3.44-4.32-4.47-6.88c-1.03-2.54-1.54-5.27-1.54-8.2c0-2.98,0.56-5.79,1.68-8.42c1.12-2.64,2.71-4.96,4.76-6.96
				c2.03-1.98,4.37-3.52,7.03-4.61c2.71-1.07,5.57-1.61,8.57-1.61h0.88v40.76c1.9,0.15,3.26,0.22,4.06,0.22
				c6.15,0,11.07-1.76,14.76-5.27c1.25-1.17,2.22-2.31,2.93-3.41C230.16,416.33,231.01,414.62,231.97,412.4z M235.26,406.62h-22.71
				v-21.46c2.07,0.15,3.86,0.35,5.35,0.62c1.34,0.24,2.65,0.67,3.92,1.28c2.69,1.05,5.11,2.67,7.29,4.87
				c1.46,1.46,2.72,3.17,3.77,5.13c1.1,2.05,1.77,3.92,2.01,5.6C235.07,403.71,235.19,405.03,235.26,406.62z"/>
			<path d="M263.68,385.48v43.1h-1.17c-4.27,0-8.18-0.94-11.72-2.82c-3.49-1.86-6.25-4.44-8.28-7.76
				c-2.03-3.32-3.04-6.97-3.04-10.95c0-2.98,0.57-5.8,1.72-8.46c1.12-2.59,2.75-4.89,4.87-6.92c2.12-2,4.55-3.53,7.29-4.58
				c2.78-1.07,5.75-1.61,8.9-1.61H263.68z M268.7,428.59v-43.1h0.84c3.47,0,6.63,0.53,9.48,1.57c2.93,1.07,5.41,2.56,7.43,4.47
				c2.1,1.95,3.74,4.26,4.91,6.92c1.15,2.71,1.72,5.6,1.72,8.68c0,4.08-1,7.74-3,10.99c-2,3.25-4.79,5.81-8.35,7.69
				c-3.54,1.86-7.53,2.78-11.98,2.78H268.7z"/>
			<path d="M299.53,439.83v-53.91h23.03v53.91H299.53z M327.51,428.51v-42.59h1.35c4.17,0,8.03,0.94,11.57,2.82
				c3.52,1.86,6.29,4.43,8.31,7.73c2,3.25,3,6.86,3,10.84c0,3.13-0.53,5.97-1.57,8.53c-1.05,2.59-2.55,4.83-4.5,6.74
				c-1.95,1.93-4.3,3.41-7.03,4.43c-2.69,1.05-5.64,1.57-8.86,1.57c-0.12-0.02-0.28-0.04-0.48-0.04c-0.2,0-0.38-0.01-0.55-0.04
				H327.51z"/>
			<path d="M403.02,412.4l2.23,1.03c-0.68,1.93-1.32,3.43-1.9,4.5c-0.61,1.12-1.42,2.22-2.42,3.3c-2.05,2.34-4.36,4.03-6.92,5.05
				c-3.61,1.54-7.93,2.31-12.96,2.31c-2.91,0-5.54-0.24-7.91-0.73c-2.39-0.49-4.49-1.21-6.3-2.16c-1.88-0.95-3.56-2.21-5.05-3.77
				c-1.95-2.03-3.44-4.32-4.47-6.88c-1.03-2.54-1.54-5.27-1.54-8.2c0-2.98,0.56-5.79,1.68-8.42c1.12-2.64,2.71-4.96,4.76-6.96
				c2.03-1.98,4.37-3.52,7.03-4.61c2.71-1.07,5.57-1.61,8.57-1.61h0.88v40.76c1.9,0.15,3.26,0.22,4.06,0.22
				c6.15,0,11.07-1.76,14.76-5.27c1.25-1.17,2.22-2.31,2.93-3.41C401.22,416.33,402.07,414.62,403.02,412.4z M406.32,406.62h-22.71
				v-21.46c2.07,0.15,3.86,0.35,5.35,0.62c1.34,0.24,2.65,0.67,3.92,1.28c2.69,1.05,5.11,2.67,7.29,4.87
				c1.46,1.46,2.72,3.17,3.77,5.13c1.1,2.05,1.77,3.92,2.01,5.6C406.13,403.71,406.25,405.03,406.32,406.62z"/>
			<path d="M412.62,428.3v-42.37h22.89v6.23c2.17-2.12,4.22-3.67,6.15-4.65c1.88-0.95,3.85-1.43,5.9-1.43
				c1.81,0,3.47,0.39,4.98,1.17c1.54,0.78,2.72,1.88,3.55,3.3c0.83,1.42,1.25,2.95,1.25,4.61c0,1.59-0.38,3.05-1.14,4.39
				c-0.76,1.34-1.82,2.41-3.19,3.19c-1.37,0.78-2.86,1.17-4.47,1.17c-2.54,0-4.68-0.87-6.41-2.6c-1.73-1.73-2.6-3.91-2.6-6.52
				c0-1,0.18-2.14,0.55-3.41c-1.32,0.85-2.84,2.19-4.58,3.99v32.92H412.62z"/>
			<path d="M473.59,370.18c3.74,0,6.71,0.59,8.94,1.76c2.25,1.17,3.37,2.73,3.37,4.69c0,1.15-0.5,2.19-1.5,3.11
				c-1,0.93-2.38,1.65-4.14,2.16c-1.71,0.54-3.7,0.81-5.97,0.81c-3.49,0-6.27-0.56-8.35-1.68c-2.1-1.15-3.15-2.69-3.15-4.61
				c0-1.83,0.99-3.33,2.97-4.5C467.76,370.75,470.37,370.18,473.59,370.18z M462.94,428.3v-42.37h23.18v42.37H462.94z"/>
			<path d="M495.16,414.34v-28.42l22.74-8.09v8.09h7.43V389h-7.14v39.81h-1.79c-4.03,0-7.65-0.63-10.88-1.9
				c-3.32-1.27-5.86-3-7.62-5.2C496.08,419.51,495.16,417.05,495.16,414.34z"/>
			<path d="M529.7,413.68v-27.76h22.96v42.37h-2.56c-4.13,0-7.73-0.59-10.8-1.76c-1.56-0.59-2.93-1.3-4.1-2.14s-2.17-1.81-3-2.91
				C530.53,419.26,529.7,416.66,529.7,413.68z M557.53,428.3v-42.37h23.18v42.37H557.53z"/>
			<path d="M606.64,418l-8.02-2.89c-3.64-1.29-6.45-3.22-8.42-5.79c-2.03-2.61-3.04-5.54-3.04-8.79c0-2.81,0.74-5.4,2.23-7.76
				c1.46-2.39,3.45-4.26,5.97-5.6c2.51-1.34,5.3-2.01,8.35-2.01c0.51,0,0.99,0.02,1.43,0.07c-0.81,1.05-1.29,1.78-1.46,2.2
				c-0.22,0.51-0.33,1.11-0.33,1.79c0,2.83,2.43,5.24,7.29,7.21l5.16,2.01c2.78,1.15,5.09,2.48,6.92,3.99
				c1.83,1.54,3.22,3.27,4.17,5.2c0.95,1.93,1.43,4.04,1.43,6.34c0,2.66-0.62,5.09-1.87,7.29c-1.27,2.2-2.99,3.94-5.16,5.24
				c-2.22,1.29-4.63,1.94-7.21,1.94c-1.07,0-2.41-0.07-3.99-0.22c1.37-1.51,2.05-2.97,2.05-4.36
				C612.13,421.3,610.3,419.35,606.64,418z M594.81,415.84c1.15,0,2.23,0.29,3.26,0.88c1,0.59,1.79,1.38,2.38,2.38
				c0.59,1.03,0.88,2.11,0.88,3.26c0,1.2-0.28,2.3-0.84,3.3c-0.59,1.03-1.39,1.83-2.42,2.42c-1.03,0.59-2.11,0.88-3.26,0.88
				c-1.2,0-2.31-0.29-3.33-0.88c-1.05-0.59-1.86-1.39-2.42-2.42c-0.59-1-0.88-2.1-0.88-3.3c0-1.15,0.29-2.23,0.88-3.26
				c0.59-1,1.39-1.79,2.42-2.38C592.5,416.14,593.61,415.84,594.81,415.84z M619.46,384.57c1.2,0,2.31,0.29,3.33,0.88
				s1.83,1.39,2.42,2.42c0.59,1.03,0.88,2.12,0.88,3.3c0,1.15-0.28,2.22-0.84,3.22c-0.59,1-1.39,1.79-2.42,2.38
				c-1.05,0.61-2.17,0.92-3.37,0.92c-1.78,0-3.31-0.63-4.58-1.9c-1.29-1.29-1.94-2.83-1.94-4.61c0-1.81,0.65-3.36,1.94-4.65
				C616.17,385.22,617.7,384.57,619.46,384.57z"/>
		</g>
		<g>
			<path d="M667.07,377.94c-1.46-2.63-3.52-4.66-6.14-6.08c-2.62-1.41-5.31-2.12-8.07-2.12c-2.76,0-5.45,0.71-8.07,2.12
				c-2.63,1.41-4.68,3.44-6.15,6.07c-1.47,2.63-2.21,5.37-2.21,8.23c0,2.83,0.73,5.55,2.17,8.16c1.45,2.61,3.48,4.64,6.08,6.08
				c2.6,1.44,5.32,2.16,8.17,2.16c2.84,0,5.57-0.72,8.17-2.16c2.6-1.44,4.63-3.48,6.07-6.09c1.44-2.6,2.16-5.33,2.16-8.15
				C669.27,383.31,668.54,380.57,667.07,377.94z M652.87,399.42c-2.29,0-4.48-0.58-6.59-1.76c-2.11-1.17-3.74-2.8-4.91-4.9
				c-1.18-2.1-1.76-4.29-1.76-6.58c0-2.3,0.6-4.51,1.79-6.65c1.2-2.13,2.84-3.76,4.96-4.9c2.12-1.15,4.29-1.72,6.52-1.72
				c2.22,0,4.38,0.57,6.51,1.72c2.12,1.15,3.77,2.77,4.95,4.9c1.19,2.13,1.78,4.35,1.78,6.65c0,2.29-0.58,4.48-1.75,6.58
				c-1.17,2.1-2.8,3.73-4.9,4.9C657.35,398.83,655.16,399.42,652.87,399.42z"/>
			<path d="M655.86,388.08L655.86,388.08c-0.24-0.23-0.53-0.43-0.85-0.62c1.2-0.22,2.2-0.74,2.99-1.55
				c0.95-0.98,1.43-2.16,1.43-3.49c0-0.95-0.29-1.85-0.86-2.68c-0.57-0.84-1.34-1.44-2.3-1.77c-0.97-0.34-2.46-0.49-4.52-0.5h-6.22
				v17.88h0.24h3.05v-7.4h1.41c0.96,0,1.65,0.2,2.11,0.55l0,0l0,0c0.68,0.49,1.67,1.83,2.87,3.98l1.61,2.87h4l-2.35-3.77
				C657.45,389.95,656.59,388.79,655.86,388.08z M655.97,382.66c0,0.74-0.26,1.3-0.8,1.75c-0.51,0.42-1.58,0.68-3.18,0.67h-3.17
				v-4.78l2.96,0c1.36,0,2.29,0.11,2.73,0.28c0.47,0.19,0.82,0.46,1.08,0.83C655.85,381.78,655.97,382.18,655.97,382.66z"/>
		</g>
		<g>
			<polygon points="526.41,172.53 526.41,118.68 493.96,118.68 493.96,156.65 378.5,100.17 111.67,230.7 121.04,241.52 
				378.5,116.03 635.95,241.52 645.32,230.7 			"/>
			<rect x="486.47" y="108.75" width="47.44" height="5.05"/>
			<polygon points="198.93,336.94 198.93,355.46 327.53,292.78 455.77,355.28 493.63,355.28 327.53,274.03 			"/>
			<path d="M198.93,226.37v93.75l129.09-62.02l110.7,54.15v-37.44h32.45v53.31l55.89,27.34h31.01V224.93l-178.13-87.98
				L198.93,226.37z M431.22,265.88h47.44v5.05h-47.44V265.88z"/>
		</g>
	</g>
</g>
</svg>
